<?xml version="1.0" encoding="UTF-8"?><svg xmlns="http://www.w3.org/2000/svg" xmlns:xlink="http://www.w3.org/1999/xlink" height="661.3" preserveAspectRatio="xMidYMid meet" version="1.0" viewBox="493.1 21.9 308.9 661.3" width="308.9" zoomAndPan="magnify"><g><g id="change1_1"><path d="M 663.736 40.658 C 664.593 43.047 665.092 46.422 665.673 48.892 C 665.674 48.891 672.207 45.686 675.198 44.855 C 677.039 44.344 679.583 43.873 681.494 43.887 C 683.015 43.898 685.135 44.022 686.499 44.694 C 688.128 45.496 690.120 47.233 690.858 48.892 C 691.940 51.326 691.051 55.114 690.858 57.771 C 690.620 61.043 689.975 65.389 689.243 68.588 C 687.903 74.440 684.949 81.922 683.108 87.637 C 683.109 87.637 688.068 86.768 690.212 86.830 C 692.225 86.888 694.943 87.258 696.831 87.960 C 698.092 88.429 699.994 89.078 700.705 90.220 C 702.267 92.729 701.308 97.214 700.544 100.069 C 698.914 106.162 693.027 112.724 689.632 118.041 C 687.901 120.752 685.469 124.287 683.684 126.963 C 683.685 126.963 690.793 128.180 693.350 129.788 C 695.060 130.864 696.923 132.962 697.960 134.696 C 698.568 135.713 699.363 137.230 699.298 138.413 C 699.178 140.607 697.140 143.124 695.729 144.808 C 693.824 147.083 690.326 149.136 687.999 150.978 C 684.307 153.901 678.950 157.307 675.651 160.666 C 671.857 164.529 667.631 170.476 664.822 175.105 C 662.587 178.787 660.015 183.971 658.553 188.023 C 657.357 191.339 656.251 195.940 655.703 199.422 C 654.534 206.857 654.772 216.961 654.373 224.477 C 654.374 224.476 660.879 216.851 663.875 213.776 C 666.602 210.978 670.427 207.432 673.378 204.873 C 675.075 203.401 677.628 201.769 679.199 200.164 C 681.462 197.854 684.165 194.419 685.726 191.587 C 687.803 187.821 689.041 182.112 690.626 178.114 C 692.121 174.342 693.968 169.221 695.963 165.689 C 697.805 162.430 700.462 158.066 703.225 155.540 C 704.349 154.513 706.106 153.409 707.512 152.828 C 708.722 152.327 710.479 151.613 711.766 151.852 C 713.178 152.114 714.684 153.557 715.713 154.558 C 716.855 155.668 718.085 157.447 718.819 158.860 C 719.654 160.470 720.529 162.785 720.770 164.582 C 722.589 163.598 723.864 161.687 725.117 160.590 C 726.997 158.943 729.640 156.875 731.793 155.606 C 733.436 154.636 735.737 153.472 737.573 152.953 C 739.353 152.450 741.846 152.094 743.693 152.206 C 745.179 152.296 747.206 152.661 748.521 153.362 C 750.024 154.163 751.644 155.877 752.669 157.237 C 753.580 158.447 754.287 160.379 754.981 161.725 C 754.982 161.725 759.628 158.774 761.831 157.977 C 764.570 156.986 768.459 156.198 771.372 156.175 C 772.626 156.165 774.325 156.361 775.508 156.776 C 777.236 157.382 779.525 158.560 780.724 159.943 C 781.741 161.117 782.504 163.160 782.807 164.683 C 783.139 166.353 782.865 168.666 782.663 170.357 C 782.584 171.011 782.361 171.865 782.232 172.511 C 782.232 172.512 785.948 173.595 787.475 174.235 C 789.693 175.164 792.676 176.480 794.579 177.950 C 796.369 179.333 798.454 181.607 799.658 183.521 C 800.397 184.696 801.444 186.393 801.461 187.781 C 801.486 189.872 799.824 192.423 798.675 194.171 C 797.548 195.885 795.607 197.885 794.006 199.168 C 792.387 200.465 789.952 201.858 788.043 202.671 C 786.391 203.375 784.014 203.822 782.287 204.316 C 782.288 204.317 785.863 209.013 786.773 211.343 C 787.478 213.150 788.499 215.831 787.969 217.697 C 787.336 219.925 784.695 222.195 782.661 223.304 C 780.638 224.407 777.408 224.535 775.111 224.724 C 771.980 224.981 767.769 224.755 764.645 224.425 C 760.879 224.027 755.959 222.803 752.236 222.107 C 752.236 222.108 752.818 224.394 752.909 225.397 C 753.053 226.990 753.217 229.200 752.741 230.727 C 752.255 232.290 751.162 234.432 749.781 235.311 C 748.222 236.303 745.511 236.222 743.669 236.075 C 740.706 235.839 736.924 234.337 734.214 233.115 C 730.815 231.581 726.794 228.569 723.614 226.621 C 723.614 226.621 723.027 230.457 722.372 231.968 C 721.659 233.616 720.514 235.924 719.030 236.935 C 717.789 237.780 715.652 238.233 714.159 238.081 C 711.597 237.819 708.612 235.666 706.519 234.165 C 704.925 233.023 703.132 231.083 701.794 229.650 C 699.190 226.859 696.153 222.758 693.735 219.805 C 693.735 219.805 690.870 219.291 689.630 219.310 C 688.477 219.328 686.946 219.595 685.829 219.881 C 683.852 220.387 681.186 221.199 679.471 222.306 C 676.564 224.182 673.342 227.703 671.479 230.618 C 669.181 234.213 667.603 239.813 666.428 243.915 C 665.278 247.936 664.236 253.441 663.729 257.592 C 663.080 262.900 662.954 270.052 662.934 275.400 C 662.923 278.097 663.134 281.690 663.221 284.386 C 663.219 284.386 651.619 284.526 646.647 284.586 C 646.647 284.560 646.367 101.073 646.247 22.424 C 646.247 22.424 647.073 22.408 647.428 22.401 C 649.422 22.553 651.935 23.841 653.565 24.998 C 655.523 26.388 657.536 28.990 658.892 30.972 C 660.727 33.653 662.638 37.600 663.736 40.658 M 647.428 22.401 C 647.428 22.401 647.428 22.401 647.428 22.401 M 720.770 164.760 C 720.883 164.856 721.091 164.622 721.214 164.538 C 720.777 164.635 720.730 164.725 720.770 164.760 Z" fill="#498a0c" fill-rule="evenodd"/></g><path d="M 665.673 48.892 C 665.673 48.892 665.673 48.892 665.673 48.892 C 665.092 46.422 664.593 43.047 663.736 40.658 C 662.638 37.600 660.727 33.653 658.892 30.972 C 657.536 28.990 655.523 26.388 653.565 24.998 C 651.935 23.841 649.422 22.553 647.428 22.401 C 647.428 22.401 647.428 22.401 647.428 22.401 C 647.073 22.408 646.247 22.424 646.247 22.424 C 646.247 22.424 646.247 22.424 646.247 22.424 C 646.367 101.073 646.647 284.560 646.647 284.586 C 646.647 284.586 646.647 284.586 646.647 284.586 C 651.619 284.526 663.219 284.386 663.221 284.386 C 663.221 284.386 663.221 284.386 663.221 284.386 C 663.134 281.690 662.923 278.097 662.934 275.400 C 662.954 270.052 663.080 262.900 663.729 257.592 C 664.236 253.441 665.278 247.936 666.428 243.915 C 667.603 239.813 669.181 234.213 671.479 230.618 C 673.342 227.703 676.564 224.182 679.471 222.306 C 681.186 221.199 683.852 220.387 685.829 219.881 C 686.946 219.595 688.477 219.328 689.630 219.310 C 690.870 219.291 693.735 219.805 693.735 219.805 C 693.735 219.805 693.735 219.805 693.735 219.805 C 696.153 222.758 699.190 226.859 701.794 229.650 C 703.132 231.083 704.925 233.023 706.519 234.165 C 708.612 235.666 711.597 237.819 714.159 238.081 C 715.652 238.233 717.789 237.780 719.030 236.935 C 720.514 235.924 721.659 233.616 722.372 231.968 C 723.027 230.457 723.614 226.621 723.614 226.621 C 723.614 226.621 723.614 226.621 723.614 226.621 C 726.794 228.569 730.815 231.581 734.214 233.115 C 736.924 234.337 740.706 235.839 743.669 236.075 C 745.511 236.222 748.222 236.303 749.781 235.311 C 751.162 234.432 752.255 232.290 752.741 230.727 C 753.217 229.200 753.053 226.990 752.909 225.397 C 752.818 224.394 752.236 222.108 752.236 222.107 C 752.236 222.107 752.236 222.107 752.236 222.107 C 755.959 222.803 760.879 224.027 764.645 224.425 C 767.769 224.755 771.980 224.981 775.111 224.724 C 777.408 224.535 780.638 224.407 782.661 223.304 C 784.695 222.195 787.336 219.925 787.969 217.697 C 788.499 215.831 787.478 213.150 786.773 211.343 C 785.863 209.013 782.288 204.317 782.287 204.316 C 782.287 204.316 782.287 204.316 782.287 204.316 C 784.014 203.822 786.391 203.375 788.043 202.671 C 789.952 201.858 792.387 200.465 794.006 199.168 C 795.607 197.885 797.548 195.885 798.675 194.171 C 799.824 192.423 801.486 189.872 801.461 187.781 C 801.444 186.393 800.397 184.696 799.658 183.521 C 798.454 181.607 796.369 179.333 794.579 177.950 C 792.676 176.480 789.693 175.164 787.475 174.235 C 785.948 173.595 782.232 172.512 782.232 172.511 C 782.232 172.511 782.232 172.511 782.232 172.511 C 782.361 171.865 782.584 171.011 782.663 170.357 C 782.865 168.666 783.139 166.353 782.807 164.683 C 782.504 163.160 781.741 161.117 780.724 159.943 C 779.525 158.560 777.236 157.382 775.508 156.776 C 774.325 156.361 772.626 156.165 771.372 156.175 C 768.459 156.198 764.570 156.986 761.831 157.977 C 759.628 158.774 754.982 161.725 754.981 161.725 C 754.981 161.725 754.981 161.725 754.981 161.725 C 754.287 160.379 753.580 158.447 752.669 157.237 C 751.644 155.877 750.024 154.163 748.521 153.362 C 747.206 152.661 745.179 152.296 743.693 152.206 C 741.846 152.094 739.353 152.450 737.573 152.953 C 735.737 153.472 733.436 154.636 731.793 155.606 C 729.640 156.875 726.997 158.943 725.117 160.590 C 723.864 161.687 722.589 163.598 721.214 164.538 C 721.091 164.622 720.883 164.856 720.770 164.760 C 720.777 164.635 720.730 164.725 720.770 164.760 C 720.529 162.785 719.654 160.470 718.819 158.860 C 718.085 157.447 716.855 155.668 715.713 154.558 C 714.684 153.557 713.178 152.114 711.766 151.852 C 710.479 151.613 708.722 152.327 707.512 152.828 C 706.106 153.409 704.349 154.513 703.225 155.540 C 700.462 158.066 697.805 162.430 695.963 165.689 C 693.968 169.221 692.121 174.342 690.626 178.114 C 689.041 182.112 687.803 187.821 685.726 191.587 C 684.165 194.419 681.462 197.854 679.199 200.164 C 677.628 201.769 675.075 203.401 673.378 204.873 C 670.427 207.432 666.602 210.978 663.875 213.776 C 660.879 216.851 654.374 224.476 654.373 224.477 C 654.373 224.477 654.373 224.477 654.373 224.477 C 654.772 216.961 654.534 206.857 655.703 199.422 C 656.251 195.940 657.357 191.339 658.553 188.023 C 660.015 183.971 662.587 178.787 664.822 175.105 C 667.631 170.476 671.857 164.529 675.651 160.666 C 678.950 157.307 684.307 153.901 687.999 150.978 C 690.326 149.136 693.824 147.083 695.729 144.808 C 697.140 143.124 699.178 140.607 699.298 138.413 C 699.363 137.230 698.568 135.713 697.960 134.696 C 696.923 132.962 695.060 130.864 693.350 129.788 C 690.793 128.180 683.685 126.963 683.684 126.963 C 683.684 126.963 683.684 126.963 683.684 126.963 C 685.469 124.287 687.901 120.752 689.632 118.041 C 693.027 112.724 698.914 106.162 700.544 100.069 C 701.308 97.214 702.267 92.729 700.705 90.220 C 699.994 89.078 698.092 88.429 696.831 87.960 C 694.943 87.258 692.225 86.888 690.212 86.830 C 688.068 86.768 683.109 87.637 683.108 87.637 C 683.108 87.637 683.108 87.637 683.108 87.637 C 684.949 81.922 687.903 74.440 689.243 68.588 C 689.975 65.389 690.620 61.043 690.858 57.771 C 691.051 55.114 691.940 51.326 690.858 48.892 C 690.120 47.233 688.128 45.496 686.499 44.694 C 685.135 44.022 683.015 43.898 681.494 43.887 C 679.583 43.873 677.039 44.344 675.198 44.855 C 672.207 45.686 665.674 48.891 665.673 48.892" fill="none" stroke="#498a0c" stroke-linecap="round" stroke-linejoin="round"/><g id="change2_1"><path d="M 629.050 40.658 C 628.206 43.049 627.717 46.422 627.146 48.892 C 627.145 48.891 620.725 45.686 617.780 44.855 C 615.971 44.345 613.469 43.873 611.589 43.887 C 610.093 43.898 608.007 44.026 606.668 44.694 C 605.058 45.498 603.106 47.244 602.382 48.892 C 601.310 51.330 602.192 55.114 602.382 57.771 C 602.616 61.042 603.249 65.388 603.970 68.588 C 605.287 74.436 608.192 81.922 610.002 87.637 C 610.001 87.637 605.126 86.768 603.017 86.830 C 601.036 86.888 598.363 87.260 596.509 87.960 C 595.265 88.430 593.398 89.090 592.699 90.220 C 591.146 92.734 592.105 97.211 592.858 100.069 C 594.460 106.140 600.249 112.723 603.587 118.041 C 605.289 120.752 607.681 124.287 609.436 126.963 C 609.435 126.963 602.439 128.189 599.931 129.788 C 598.242 130.866 596.416 132.969 595.399 134.696 C 594.798 135.715 594.019 137.232 594.083 138.413 C 594.202 140.598 596.200 143.120 597.592 144.808 C 599.461 147.074 602.905 149.136 605.193 150.978 C 608.823 153.900 614.096 157.315 617.334 160.666 C 621.074 164.537 625.224 170.483 627.982 175.105 C 630.183 178.792 632.710 183.977 634.146 188.023 C 635.324 191.342 636.410 195.942 636.948 199.422 C 638.099 206.860 637.864 216.961 638.257 224.477 C 638.256 224.476 631.862 216.853 628.913 213.776 C 626.234 210.980 622.473 207.434 619.569 204.873 C 617.902 203.402 615.388 201.765 613.846 200.164 C 611.616 197.850 608.961 194.412 607.428 191.587 C 605.380 187.815 604.169 182.113 602.610 178.114 C 601.141 174.344 599.328 169.226 597.362 165.689 C 595.554 162.435 592.951 158.072 590.222 155.540 C 589.120 154.517 587.393 153.410 586.007 152.828 C 584.819 152.328 583.090 151.614 581.824 151.852 C 580.429 152.114 578.952 153.560 577.942 154.558 C 576.817 155.670 575.609 157.451 574.889 158.860 C 574.065 160.473 573.207 162.787 572.971 164.582 C 571.177 163.596 569.930 161.688 568.696 160.590 C 566.850 158.946 564.253 156.877 562.133 155.606 C 560.519 154.638 558.258 153.473 556.449 152.953 C 554.701 152.451 552.247 152.094 550.431 152.206 C 548.969 152.296 546.974 152.665 545.684 153.362 C 544.200 154.164 542.611 155.881 541.606 157.237 C 540.707 158.450 540.014 160.379 539.332 161.725 C 539.331 161.725 534.767 158.775 532.596 157.977 C 529.907 156.988 526.081 156.198 523.215 156.175 C 521.982 156.165 520.310 156.362 519.148 156.776 C 517.445 157.383 515.196 158.569 514.020 159.943 C 513.013 161.120 512.270 163.163 511.972 164.683 C 511.644 166.354 511.915 168.666 512.113 170.357 C 512.190 171.011 512.410 171.865 512.537 172.511 C 512.537 172.512 508.882 173.596 507.382 174.235 C 505.198 175.165 502.264 176.485 500.396 177.950 C 498.631 179.336 496.584 181.613 495.403 183.521 C 494.674 184.698 493.646 186.397 493.630 187.781 C 493.606 189.866 495.236 192.420 496.369 194.171 C 497.475 195.880 499.381 197.882 500.960 199.168 C 502.549 200.461 504.943 201.857 506.823 202.671 C 508.446 203.374 510.785 203.822 512.483 204.316 C 512.482 204.317 508.966 209.020 508.073 211.343 C 507.377 213.152 506.370 215.831 506.896 217.697 C 507.520 219.908 510.103 222.192 512.115 223.304 C 514.100 224.400 517.279 224.535 519.539 224.724 C 522.617 224.981 526.759 224.754 529.830 224.425 C 533.534 224.027 538.370 222.803 542.031 222.107 C 542.031 222.108 541.459 224.394 541.370 225.397 C 541.227 226.990 541.065 229.198 541.534 230.727 C 542.012 232.285 543.074 234.431 544.445 235.311 C 545.974 236.293 548.643 236.221 550.455 236.075 C 553.372 235.839 557.091 234.334 559.751 233.115 C 563.100 231.579 567.047 228.569 570.174 226.621 C 570.175 226.621 570.750 230.455 571.395 231.968 C 572.096 233.612 573.210 235.922 574.682 236.935 C 575.898 237.773 578.001 238.233 579.471 238.081 C 581.999 237.819 584.930 235.662 586.983 234.165 C 588.554 233.021 590.315 231.081 591.629 229.650 C 594.193 226.856 597.176 222.758 599.553 219.805 C 599.553 219.805 602.370 219.291 603.589 219.310 C 604.723 219.328 606.229 219.595 607.326 219.881 C 609.273 220.388 611.896 221.204 613.579 222.306 C 616.449 224.187 619.609 227.714 621.436 230.618 C 623.705 234.222 625.249 239.816 626.403 243.915 C 627.535 247.939 628.559 253.442 629.057 257.592 C 629.695 262.902 629.819 270.053 629.839 275.400 C 629.849 278.097 629.642 281.690 629.557 284.386 C 629.559 284.386 640.964 284.526 645.853 284.586 C 645.853 284.560 646.129 101.073 646.247 22.424 C 646.247 22.424 645.434 22.408 645.086 22.401 C 643.120 22.563 640.650 23.846 639.051 24.998 C 637.117 26.392 635.144 28.994 633.813 30.972 C 632.004 33.658 630.128 37.605 629.050 40.658 M 645.086 22.401 C 645.086 22.401 645.086 22.401 645.086 22.401 M 572.971 164.760 C 572.858 164.854 572.655 164.622 572.534 164.538 C 572.964 164.635 573.011 164.725 572.971 164.760 Z" fill="#75aa00" fill-rule="evenodd"/></g><path d="M 627.146 48.892 C 627.146 48.892 627.146 48.892 627.146 48.892 C 627.717 46.422 628.206 43.049 629.050 40.658 C 630.128 37.605 632.004 33.658 633.813 30.972 C 635.144 28.994 637.117 26.392 639.051 24.998 C 640.650 23.846 643.120 22.563 645.086 22.401 C 645.086 22.401 645.086 22.401 645.086 22.401 C 645.434 22.408 646.247 22.424 646.247 22.424 C 646.247 22.424 646.247 22.424 646.247 22.424 C 646.129 101.073 645.853 284.560 645.853 284.586 C 645.853 284.586 645.853 284.586 645.853 284.586 C 640.964 284.526 629.559 284.386 629.557 284.386 C 629.557 284.386 629.557 284.386 629.557 284.386 C 629.642 281.690 629.849 278.097 629.839 275.400 C 629.819 270.053 629.695 262.902 629.057 257.592 C 628.559 253.442 627.535 247.939 626.403 243.915 C 625.249 239.816 623.705 234.222 621.436 230.618 C 619.609 227.714 616.449 224.187 613.579 222.306 C 611.896 221.204 609.273 220.388 607.326 219.881 C 606.229 219.595 604.723 219.328 603.589 219.310 C 602.370 219.291 599.553 219.805 599.553 219.805 C 599.553 219.805 599.553 219.805 599.553 219.805 C 597.176 222.758 594.193 226.856 591.629 229.650 C 590.315 231.081 588.554 233.021 586.983 234.165 C 584.930 235.662 581.999 237.819 579.471 238.081 C 578.001 238.233 575.898 237.773 574.682 236.935 C 573.210 235.922 572.096 233.612 571.395 231.968 C 570.750 230.455 570.175 226.621 570.174 226.621 C 570.174 226.621 570.174 226.621 570.174 226.621 C 567.047 228.569 563.100 231.579 559.751 233.115 C 557.091 234.334 553.372 235.839 550.455 236.075 C 548.643 236.221 545.974 236.293 544.445 235.311 C 543.074 234.431 542.012 232.285 541.534 230.727 C 541.065 229.198 541.227 226.990 541.370 225.397 C 541.459 224.394 542.031 222.108 542.031 222.107 C 542.031 222.107 542.031 222.107 542.031 222.107 C 538.370 222.803 533.534 224.027 529.830 224.425 C 526.759 224.754 522.617 224.981 519.539 224.724 C 517.279 224.535 514.100 224.400 512.115 223.304 C 510.103 222.192 507.520 219.908 506.896 217.697 C 506.370 215.831 507.377 213.152 508.073 211.343 C 508.966 209.020 512.482 204.317 512.483 204.316 C 512.483 204.316 512.483 204.316 512.483 204.316 C 510.785 203.822 508.446 203.374 506.823 202.671 C 504.943 201.857 502.549 200.461 500.960 199.168 C 499.381 197.882 497.475 195.880 496.369 194.171 C 495.236 192.420 493.606 189.866 493.630 187.781 C 493.646 186.397 494.674 184.698 495.403 183.521 C 496.584 181.613 498.631 179.336 500.396 177.950 C 502.264 176.485 505.198 175.165 507.382 174.235 C 508.882 173.596 512.537 172.512 512.537 172.511 C 512.537 172.511 512.537 172.511 512.537 172.511 C 512.410 171.865 512.190 171.011 512.113 170.357 C 511.915 168.666 511.644 166.354 511.972 164.683 C 512.270 163.163 513.013 161.120 514.020 159.943 C 515.196 158.569 517.445 157.383 519.148 156.776 C 520.310 156.362 521.982 156.165 523.215 156.175 C 526.081 156.198 529.907 156.988 532.596 157.977 C 534.767 158.775 539.331 161.725 539.332 161.725 C 539.332 161.725 539.332 161.725 539.332 161.725 C 540.014 160.379 540.707 158.450 541.606 157.237 C 542.611 155.881 544.200 154.164 545.684 153.362 C 546.974 152.665 548.969 152.296 550.431 152.206 C 552.247 152.094 554.701 152.451 556.449 152.953 C 558.258 153.473 560.519 154.638 562.133 155.606 C 564.253 156.877 566.850 158.946 568.696 160.590 C 569.930 161.688 571.177 163.596 572.534 164.538 C 572.655 164.622 572.858 164.854 572.971 164.760 C 572.964 164.635 573.011 164.725 572.971 164.760 C 573.207 162.787 574.065 160.473 574.889 158.860 C 575.609 157.451 576.817 155.670 577.942 154.558 C 578.952 153.560 580.429 152.114 581.824 151.852 C 583.090 151.614 584.819 152.328 586.007 152.828 C 587.393 153.410 589.120 154.517 590.222 155.540 C 592.951 158.072 595.554 162.435 597.362 165.689 C 599.328 169.226 601.141 174.344 602.610 178.114 C 604.169 182.113 605.380 187.815 607.428 191.587 C 608.961 194.412 611.616 197.850 613.846 200.164 C 615.388 201.765 617.902 203.402 619.569 204.873 C 622.473 207.434 626.234 210.980 628.913 213.776 C 631.862 216.853 638.256 224.476 638.257 224.477 C 638.257 224.477 638.257 224.477 638.257 224.477 C 637.864 216.961 638.099 206.860 636.948 199.422 C 636.410 195.942 635.324 191.342 634.146 188.023 C 632.710 183.977 630.183 178.792 627.982 175.105 C 625.224 170.483 621.074 164.537 617.334 160.666 C 614.096 157.315 608.823 153.900 605.193 150.978 C 602.905 149.136 599.461 147.074 597.592 144.808 C 596.200 143.120 594.202 140.598 594.083 138.413 C 594.019 137.232 594.798 135.715 595.399 134.696 C 596.416 132.969 598.242 130.866 599.931 129.788 C 602.439 128.189 609.435 126.963 609.436 126.963 C 609.436 126.963 609.436 126.963 609.436 126.963 C 607.681 124.287 605.289 120.752 603.587 118.041 C 600.249 112.723 594.460 106.140 592.858 100.069 C 592.105 97.211 591.146 92.734 592.699 90.220 C 593.398 89.090 595.265 88.430 596.509 87.960 C 598.363 87.260 601.036 86.888 603.017 86.830 C 605.126 86.768 610.001 87.637 610.002 87.637 C 610.002 87.637 610.002 87.637 610.002 87.637 C 608.192 81.922 605.287 74.436 603.970 68.588 C 603.249 65.388 602.616 61.042 602.382 57.771 C 602.192 55.114 601.310 51.330 602.382 48.892 C 603.106 47.244 605.058 45.498 606.668 44.694 C 608.007 44.026 610.093 43.898 611.589 43.887 C 613.469 43.873 615.971 44.345 617.780 44.855 C 620.725 45.686 627.145 48.891 627.146 48.892" fill="none" stroke="#75aa00" stroke-linecap="round" stroke-linejoin="round"/><g id="change3_1"><path d="M 641.595 681.601 C 639.032 680.265 636.899 676.761 634.887 674.687 C 634.888 674.648 643.189 399.070 646.747 280.948 C 651.399 280.988 657.612 280.772 662.254 281.080 C 666.739 281.377 672.716 282.041 677.123 282.925 C 682.726 284.047 690.408 285.425 695.451 288.111 C 699.871 290.465 704.991 295.026 708.246 298.831 C 711.749 302.926 715.324 309.302 717.472 314.245 C 719.328 318.514 720.898 324.577 721.827 329.138 C 722.561 332.749 722.981 337.661 723.307 341.332 C 723.834 347.254 724.377 355.178 724.361 361.124 C 724.347 366.219 723.850 373.006 723.395 378.081 C 722.167 391.772 719.440 409.911 717.523 423.523 C 715.227 439.825 712.098 461.559 709.228 477.770 C 703.367 510.871 694.465 554.827 686.721 587.538 C 682.102 607.046 676.127 633.179 669.555 652.118 C 667.670 657.549 665.016 664.801 662.209 669.818 C 660.821 672.300 658.706 675.499 656.765 677.577 C 655.369 679.071 653.378 681.095 651.502 681.911 C 650.181 682.486 648.195 682.665 646.755 682.634 C 645.177 682.600 642.995 682.331 641.595 681.601 M 646.747 280.948 C 646.747 280.948 646.747 280.948 646.747 280.948 Z" fill="#e86201" fill-rule="evenodd"/></g><path d="M 634.887 674.687 C 634.887 674.687 634.887 674.687 634.887 674.687 C 636.899 676.761 639.032 680.265 641.595 681.601 C 642.995 682.331 645.177 682.600 646.755 682.634 C 648.195 682.665 650.181 682.486 651.502 681.911 C 653.378 681.095 655.369 679.071 656.765 677.577 C 658.706 675.499 660.821 672.300 662.209 669.818 C 665.016 664.801 667.670 657.549 669.555 652.118 C 676.127 633.179 682.102 607.046 686.721 587.538 C 694.465 554.827 703.367 510.871 709.228 477.770 C 712.098 461.559 715.227 439.825 717.523 423.523 C 719.440 409.911 722.167 391.772 723.395 378.081 C 723.850 373.006 724.347 366.219 724.361 361.124 C 724.377 355.178 723.834 347.254 723.307 341.332 C 722.981 337.661 722.561 332.749 721.827 329.138 C 720.898 324.577 719.328 318.514 717.472 314.245 C 715.324 309.302 711.749 302.926 708.246 298.831 C 704.991 295.026 699.871 290.465 695.451 288.111 C 690.408 285.425 682.726 284.047 677.123 282.925 C 672.716 282.041 666.739 281.377 662.254 281.080 C 657.612 280.772 651.399 280.988 646.747 280.948 C 646.747 280.948 646.747 280.948 646.747 280.948 C 643.189 399.070 634.888 674.648 634.887 674.687" fill="none" stroke="#e86201" stroke-linecap="round" stroke-linejoin="round"/><g id="change4_1"><path d="M 649.614 630.231 C 645.734 643.775 639.403 661.479 635.028 674.871 C 635.027 674.870 631.288 667.976 629.964 664.890 C 627.171 658.376 624.357 649.325 622.290 642.545 C 616.887 624.823 611.016 600.803 606.760 582.771 C 601.085 558.730 594.304 526.486 589.752 502.207 C 584.879 476.215 579.231 441.398 575.509 415.217 C 573.620 401.932 570.890 384.216 570.032 370.825 C 569.407 361.073 568.518 347.947 569.744 338.252 C 570.736 330.401 573.300 320.012 576.388 312.727 C 578.055 308.795 580.916 303.780 583.590 300.451 C 586.070 297.363 589.974 293.679 593.247 291.449 C 596.041 289.545 600.233 287.742 603.394 286.539 C 606.590 285.323 611.022 284.169 614.360 283.429 C 618.081 282.604 623.109 281.780 626.903 281.422 C 632.865 280.858 640.873 281.090 646.860 280.948 C 648.756 281.488 651.388 281.926 653.182 282.747 C 657.415 284.683 662.647 288.299 665.919 291.611 C 670.112 295.855 674.280 302.827 676.924 308.176 C 680.335 315.078 683.246 325.027 685.118 332.495 C 687.045 340.177 688.687 350.651 689.480 358.531 C 690.910 372.743 691.204 391.851 690.749 406.128 C 690.429 416.164 689.098 429.508 687.859 439.473 C 683.586 473.834 675.373 519.328 668.309 553.226 C 663.459 576.499 656.160 607.378 649.614 630.231 M 646.860 280.948 C 646.860 280.948 646.860 280.948 646.860 280.948 Z" fill="#ff7900" fill-rule="evenodd"/></g><path d="M 635.028 674.871 C 635.028 674.871 635.028 674.871 635.028 674.871 C 639.403 661.479 645.734 643.775 649.614 630.231 C 656.160 607.378 663.459 576.499 668.309 553.226 C 675.373 519.328 683.586 473.834 687.859 439.473 C 689.098 429.508 690.429 416.164 690.749 406.128 C 691.204 391.851 690.910 372.743 689.480 358.531 C 688.687 350.651 687.045 340.177 685.118 332.495 C 683.246 325.027 680.335 315.078 676.924 308.176 C 674.280 302.827 670.112 295.855 665.919 291.611 C 662.647 288.299 657.415 284.683 653.182 282.747 C 651.388 281.926 648.756 281.488 646.860 280.948 C 646.860 280.948 646.860 280.948 646.860 280.948 C 640.873 281.090 632.865 280.858 626.903 281.422 C 623.109 281.780 618.081 282.604 614.360 283.429 C 611.022 284.169 606.590 285.323 603.394 286.539 C 600.233 287.742 596.041 289.545 593.247 291.449 C 589.974 293.679 586.070 297.363 583.590 300.451 C 580.916 303.780 578.055 308.795 576.388 312.727 C 573.300 320.012 570.736 330.401 569.744 338.252 C 568.518 347.947 569.407 361.073 570.032 370.825 C 570.890 384.216 573.620 401.932 575.509 415.217 C 579.231 441.398 584.879 476.215 589.752 502.207 C 594.304 526.486 601.085 558.730 606.760 582.771 C 611.016 600.803 616.887 624.823 622.290 642.545 C 624.357 649.325 627.171 658.376 629.964 664.890 C 631.288 667.976 635.027 674.870 635.028 674.871" fill="none" stroke="#ff7900" stroke-linecap="round" stroke-linejoin="round"/><g id="change5_1"><path d="M 671.327 347.807 C 671.327 347.807 671.327 347.807 671.327 347.807 C 674.735 347.789 679.289 348.001 682.687 347.746 C 686.344 347.472 691.187 346.704 694.780 345.975 C 699.497 345.018 705.732 343.418 710.294 341.883 C 714.273 340.544 719.349 338.145 723.241 336.569 C 723.241 336.569 723.777 341.823 723.913 344.081 C 724.101 347.192 724.219 354.463 724.219 354.464 C 716.798 354.446 706.865 355.155 699.483 354.403 C 693.330 353.777 685.244 351.959 679.267 350.372 C 676.848 349.730 671.328 347.807 671.327 347.807 C 671.327 347.807 671.327 347.807 671.327 347.807 Z" fill="#d44f02" fill-rule="evenodd"/></g><path d="M 724.219 354.464 C 724.219 354.464 724.219 354.464 724.219 354.464 C 724.219 354.463 724.101 347.192 723.913 344.081 C 723.777 341.823 723.241 336.569 723.241 336.569 C 719.349 338.145 714.273 340.544 710.294 341.883 C 705.732 343.418 699.497 345.018 694.780 345.975 C 691.187 346.704 686.344 347.472 682.687 347.746 C 679.289 348.001 674.735 347.789 671.327 347.807 C 671.327 347.807 671.327 347.807 671.327 347.807 C 671.328 347.807 676.848 349.730 679.267 350.372 C 685.244 351.959 693.330 353.777 699.483 354.403 C 706.865 355.155 716.798 354.446 724.219 354.464 M 671.327 347.807 C 671.327 347.807 671.327 347.807 671.327 347.807" fill="none" stroke="#d44f02" stroke-linecap="round" stroke-linejoin="round"/><g id="change5_2"><path d="M 665.063 449.444 C 665.063 449.444 665.063 449.444 665.063 449.444 C 666.994 449.390 669.572 449.375 671.501 449.265 C 675.822 449.019 681.598 448.661 685.867 447.954 C 690.990 447.105 697.750 445.473 702.678 443.840 C 706.635 442.529 711.650 440.085 715.495 438.475 C 715.495 438.475 715.142 441.691 714.958 443.066 C 714.429 447.029 712.932 456.239 712.932 456.240 C 706.261 456.186 697.325 456.804 690.696 456.061 C 685.115 455.435 677.781 453.716 672.395 452.127 C 670.148 451.464 665.063 449.444 665.063 449.444 C 665.063 449.444 665.063 449.444 665.063 449.444 Z" fill="#d44f02" fill-rule="evenodd"/></g><path d="M 712.932 456.240 C 712.932 456.240 712.932 456.240 712.932 456.240 C 712.932 456.239 714.429 447.029 714.958 443.066 C 715.142 441.691 715.495 438.475 715.495 438.475 C 711.650 440.085 706.635 442.529 702.678 443.840 C 697.750 445.473 690.990 447.105 685.867 447.954 C 681.598 448.661 675.822 449.019 671.501 449.265 C 669.572 449.375 666.994 449.390 665.063 449.444 C 665.063 449.444 665.063 449.444 665.063 449.444 C 665.063 449.444 670.148 451.464 672.395 452.127 C 677.781 453.716 685.115 455.435 690.696 456.061 C 697.325 456.804 706.261 456.186 712.932 456.240 M 665.063 449.444 C 665.063 449.444 665.063 449.444 665.063 449.444" fill="none" stroke="#d44f02" stroke-linecap="round" stroke-linejoin="round"/><g id="change5_3"><path d="M 651.590 576.173 C 651.590 576.173 651.590 576.173 651.590 576.173 C 656.000 575.995 661.900 576.025 666.292 575.579 C 670.968 575.104 677.204 574.229 681.751 573.038 C 684.564 572.301 688.152 570.788 690.885 569.795 C 690.885 569.795 687.868 582.974 687.867 582.975 C 685.027 582.978 681.228 583.246 678.399 582.984 C 673.890 582.566 667.971 581.208 663.589 580.065 C 659.927 579.110 651.591 576.174 651.590 576.173 C 651.590 576.173 651.590 576.173 651.590 576.173 Z" fill="#d44f02" fill-rule="evenodd"/></g><path d="M 687.867 582.975 C 687.867 582.975 687.867 582.975 687.867 582.975 C 687.868 582.974 690.885 569.795 690.885 569.795 C 688.152 570.788 684.564 572.301 681.751 573.038 C 677.204 574.229 670.968 575.104 666.292 575.579 C 661.900 576.025 656.000 575.995 651.590 576.173 C 651.590 576.173 651.590 576.173 651.590 576.173 C 651.591 576.174 659.927 579.110 663.589 580.065 C 667.971 581.208 673.890 582.566 678.399 582.984 C 681.228 583.246 685.027 582.978 687.867 582.975 M 651.590 576.173 C 651.590 576.173 651.590 576.173 651.590 576.173" fill="none" stroke="#d44f02" stroke-linecap="round" stroke-linejoin="round"/><g id="change5_4"><path d="M 620.947 386.025 C 620.947 386.025 620.947 386.025 620.947 386.025 C 618.028 385.759 614.132 385.439 611.216 385.140 C 605.990 384.605 598.958 384.224 593.819 383.135 C 588.815 382.076 582.335 379.849 577.542 378.063 C 575.306 377.230 572.436 375.844 570.229 374.938 C 570.229 374.938 570.547 379.773 570.760 381.838 C 571.093 385.068 572.175 392.570 572.175 392.571 C 579.411 392.571 589.112 393.437 596.296 392.571 C 600.207 392.100 605.286 390.638 609.093 389.622 C 612.684 388.664 620.946 386.025 620.947 386.025 C 620.947 386.025 620.947 386.025 620.947 386.025 Z" fill="#d44f02" fill-rule="evenodd"/></g><path d="M 572.175 392.571 C 572.175 392.571 572.175 392.571 572.175 392.571 C 572.175 392.570 571.093 385.068 570.760 381.838 C 570.547 379.773 570.229 374.938 570.229 374.938 C 572.436 375.844 575.306 377.230 577.542 378.063 C 582.335 379.849 588.815 382.076 593.819 383.135 C 598.958 384.224 605.990 384.605 611.216 385.140 C 614.132 385.439 618.028 385.759 620.947 386.025 C 620.947 386.025 620.947 386.025 620.947 386.025 C 620.946 386.025 612.684 388.664 609.093 389.622 C 605.286 390.638 600.207 392.100 596.296 392.571 C 589.112 393.437 579.411 392.571 572.175 392.571 M 620.947 386.025 C 620.947 386.025 620.947 386.025 620.947 386.025" fill="none" stroke="#d44f02" stroke-linecap="round" stroke-linejoin="round"/><g id="change5_5"><path d="M 635.965 520.638 C 635.965 520.638 635.965 520.638 635.965 520.638 C 632.487 520.284 627.846 519.855 624.374 519.456 C 619.825 518.932 613.705 518.499 609.235 517.504 C 603.764 516.286 591.464 511.738 591.464 511.738 C 591.820 513.414 592.293 515.649 592.637 517.327 C 593.231 520.216 594.569 526.965 594.569 526.966 C 599.891 526.789 607.023 527.009 612.310 526.375 C 615.706 525.967 620.161 524.924 623.487 524.127 C 627.267 523.222 635.964 520.639 635.965 520.638 C 635.965 520.638 635.965 520.638 635.965 520.638 Z" fill="#d44f02" fill-rule="evenodd"/></g><path d="M 594.569 526.966 C 594.569 526.966 594.569 526.966 594.569 526.966 C 594.569 526.965 593.231 520.216 592.637 517.327 C 592.293 515.649 591.820 513.414 591.464 511.738 C 591.464 511.738 603.764 516.286 609.235 517.504 C 613.705 518.499 619.825 518.932 624.374 519.456 C 627.846 519.855 632.487 520.284 635.965 520.638 C 635.965 520.638 635.965 520.638 635.965 520.638 C 635.964 520.639 627.267 523.222 623.487 524.127 C 620.161 524.924 615.706 525.967 612.310 526.375 C 607.023 527.009 599.891 526.789 594.569 526.966 M 635.965 520.638 C 635.965 520.638 635.965 520.638 635.965 520.638" fill="none" stroke="#d44f02" stroke-linecap="round" stroke-linejoin="round"/></g></svg>