<?xml version="1.0" encoding="UTF-8"?><svg xmlns="http://www.w3.org/2000/svg" xmlns:xlink="http://www.w3.org/1999/xlink" height="67.0" preserveAspectRatio="xMidYMid meet" version="1.0" viewBox="-0.1 0.0 126.3 67.0" width="126.3" zoomAndPan="magnify"><g><g><g id="change1_1"><path d="M119.32,0v4.78H67.26V0l-5.68,1.91v2.87H9.52V0.96L3.84,1.91v19.13v15.31V50.7v12.15v0.01 l0.95,1.82l1.89-6.33c0.94,2.36,1.9,3.9,2.84,6.13V53.57h52.06v2.86l2.35,6.94l2.38-5.98l0.95,2.23v-6.05h52.06v3.82l2.72,4.78 l2.96-5.74V36.35V21.04V1.91L119.32,0z M61.58,44.96H9.52v-4.79h52.06V44.96z M61.58,31.57H9.52v-4.79h52.06V31.57z M61.58,18.17 H9.52v-4.78h52.06V18.17z M119.32,44.96H67.26v-4.79h52.06V44.96z M119.32,31.57H67.26v-4.79h52.06V31.57z M119.32,18.17H67.26 v-4.78h52.06V18.17z" fill="#604533"/></g><g><g fill="#543927" id="change2_1"><path d="M67.26,8.65h6.63c0.552,0,1-0.448,1-1s-0.448-1-1-1h-6.63c-0.552,0-1,0.448-1,1 S66.708,8.65,67.26,8.65z" fill="inherit"/><path d="M67.26,11.52h4.73c0.552,0,1-0.448,1-1s-0.448-1-1-1h-4.73c-0.552,0-1,0.448-1,1 S66.708,11.52,67.26,11.52z" fill="inherit"/><path d="M108.91,8.65h10.41c0.552,0,1-0.448,1-1s-0.448-1-1-1h-10.41c-0.552,0-1,0.448-1,1 S108.358,8.65,108.91,8.65z" fill="inherit"/><path d="M119.32,9.52h-4.73c-0.552,0-1,0.448-1,1s0.448,1,1,1h4.73c0.552,0,1-0.448,1-1 S119.872,9.52,119.32,9.52z" fill="inherit"/><path d="M67.26,22.04h3.79c0.552,0,1-0.448,1-1s-0.448-1-1-1h-3.79c-0.552,0-1,0.448-1,1 S66.708,22.04,67.26,22.04z" fill="inherit"/><path d="M67.26,24.91h4.73c0.552,0,1-0.448,1-1s-0.448-1-1-1h-4.73c-0.552,0-1,0.448-1,1 S66.708,24.91,67.26,24.91z" fill="inherit"/><path d="M119.32,20.04h-10.41c-0.552,0-1,0.448-1,1s0.448,1,1,1h10.41c0.552,0,1-0.448,1-1 S119.872,20.04,119.32,20.04z" fill="inherit"/><path d="M119.32,22.91h-4.73c-0.552,0-1,0.448-1,1s0.448,1,1,1h4.73c0.552,0,1-0.448,1-1 S119.872,22.91,119.32,22.91z" fill="inherit"/><path d="M67.26,35.43h8.52c0.552,0,1-0.448,1-1s-0.448-1-1-1h-8.52c-0.552,0-1,0.448-1,1 S66.708,35.43,67.26,35.43z" fill="inherit"/><path d="M67.26,38.3h6.08c0.552,0,1-0.448,1-1s-0.448-1-1-1h-6.08c-0.552,0-1,0.448-1,1 S66.708,38.3,67.26,38.3z" fill="inherit"/><path d="M119.32,33.43h-16.09c-0.552,0-1,0.448-1,1s0.448,1,1,1h16.09c0.552,0,1-0.448,1-1 S119.872,33.43,119.32,33.43z" fill="inherit"/><path d="M119.32,36.3h-8.52c-0.552,0-1,0.448-1,1s0.448,1,1,1h8.52c0.552,0,1-0.448,1-1 S119.872,36.3,119.32,36.3z" fill="inherit"/><path d="M77.67,46.83H67.26c-0.552,0-1,0.448-1,1s0.448,1,1,1h10.41c0.552,0,1-0.448,1-1 S78.222,46.83,77.67,46.83z" fill="inherit"/><path d="M74.7,49.7h-7.44c-0.552,0-1,0.448-1,1s0.448,1,1,1h7.44c0.552,0,1-0.448,1-1 S75.253,49.7,74.7,49.7z" fill="inherit"/><path d="M119.32,46.83h-7.57c-0.552,0-1,0.448-1,1s0.448,1,1,1h7.57c0.552,0,1-0.448,1-1 S119.872,46.83,119.32,46.83z" fill="inherit"/><path d="M119.32,49.7h-13.25c-0.552,0-1,0.448-1,1s0.448,1,1,1h13.25c0.552,0,1-0.448,1-1 S119.872,49.7,119.32,49.7z" fill="inherit"/><path d="M20.88,6.65H9.52c-0.552,0-1,0.448-1,1s0.448,1,1,1h11.36c0.552,0,1-0.448,1-1 S21.432,6.65,20.88,6.65z" fill="inherit"/><path d="M9.52,11.52h8.11c0.552,0,1-0.448,1-1s-0.448-1-1-1H9.52c-0.552,0-1,0.448-1,1 S8.968,11.52,9.52,11.52z" fill="inherit"/><path d="M61.58,6.65H51.17c-0.552,0-1,0.448-1,1s0.448,1,1,1h10.41c0.552,0,1-0.448,1-1 S62.133,6.65,61.58,6.65z" fill="inherit"/><path d="M61.58,9.52h-4.73c-0.552,0-1,0.448-1,1s0.448,1,1,1h4.73c0.552,0,1-0.448,1-1 S62.133,9.52,61.58,9.52z" fill="inherit"/><path d="M9.52,22.04h6.06c0.552,0,1-0.448,1-1s-0.448-1-1-1H9.52c-0.552,0-1,0.448-1,1 S8.968,22.04,9.52,22.04z" fill="inherit"/><path d="M9.52,24.91h7.57c0.552,0,1-0.448,1-1s-0.448-1-1-1H9.52c-0.552,0-1,0.448-1,1 S8.968,24.91,9.52,24.91z" fill="inherit"/><path d="M61.58,20.04H51.17c-0.552,0-1,0.448-1,1s0.448,1,1,1h10.41c0.552,0,1-0.448,1-1 S62.133,20.04,61.58,20.04z" fill="inherit"/><path d="M61.58,22.91h-4.73c-0.552,0-1,0.448-1,1s0.448,1,1,1h4.73c0.552,0,1-0.448,1-1 S62.133,22.91,61.58,22.91z" fill="inherit"/><path d="M9.52,35.43h8.52c0.552,0,1-0.448,1-1s-0.448-1-1-1H9.52c-0.552,0-1,0.448-1,1 S8.968,35.43,9.52,35.43z" fill="inherit"/><path d="M20.88,36.3H9.52c-0.552,0-1,0.448-1,1s0.448,1,1,1h11.36c0.552,0,1-0.448,1-1 S21.432,36.3,20.88,36.3z" fill="inherit"/><path d="M61.58,33.43h-16.09c-0.552,0-1,0.448-1,1s0.448,1,1,1h16.09c0.552,0,1-0.448,1-1 S62.133,33.43,61.58,33.43z" fill="inherit"/><path d="M61.58,36.3h-8.52c-0.552,0-1,0.448-1,1s0.448,1,1,1h8.52c0.552,0,1-0.448,1-1 S62.133,36.3,61.58,36.3z" fill="inherit"/><path d="M18.04,46.83H9.52c-0.552,0-1,0.448-1,1s0.448,1,1,1h8.52c0.552,0,1-0.448,1-1 S18.593,46.83,18.04,46.83z" fill="inherit"/><path d="M15.6,49.7H9.52c-0.552,0-1,0.448-1,1s0.448,1,1,1h6.08c0.552,0,1-0.448,1-1 S16.153,49.7,15.6,49.7z" fill="inherit"/><path d="M61.58,46.83h-7.57c-0.552,0-1,0.448-1,1s0.448,1,1,1h7.57c0.552,0,1-0.448,1-1 S62.133,46.83,61.58,46.83z" fill="inherit"/><path d="M61.58,49.7H43.6c-0.552,0-1,0.448-1,1s0.448,1,1,1h17.98c0.552,0,1-0.448,1-1 S62.133,49.7,61.58,49.7z" fill="inherit"/><path d="M41.7,21h-9.46c-0.552,0-1,0.448-1,1s0.448,1,1,1h9.46c0.552,0,1-0.448,1-1S42.253,21,41.7,21z" fill="inherit"/></g><g id="change3_1"><path d="M119.32,0v4.78v2.87v2.87v2.87v4.78v2.87v2.87v2.87v4.79v2.86v1.92v0.95v2.87v4.79v2.87v2.87v2.87 v3.82l2.72,4.78l2.96-5.74V36.35V21.04V1.91L119.32,0z M122.16,52.61c-1.05,0-1.89-0.86-1.89-1.91c0-1.06,0.84-1.92,1.89-1.92 c1.05,0,1.89,0.86,1.89,1.92C124.05,51.75,123.21,52.61,122.16,52.61z M122.16,38.26c-1.05,0-1.89-0.86-1.89-1.91 c0-1.06,0.84-1.92,1.89-1.92c1.05,0,1.89,0.86,1.89,1.92C124.05,37.4,123.21,38.26,122.16,38.26z M122.16,22.96 c-1.05,0-1.89-0.86-1.89-1.92c0-1.05,0.84-1.91,1.89-1.91c1.05,0,1.89,0.86,1.89,1.91C124.05,22.1,123.21,22.96,122.16,22.96z M122.16,10.52c-1.05,0-1.89-0.85-1.89-1.91s0.84-1.91,1.89-1.91c1.05,0,1.89,0.85,1.89,1.91S123.21,10.52,122.16,10.52z" fill="#7f5d46"/></g><g id="change3_2"><path d="M61.58,4.78v2.87v2.87v2.87v4.78v2.87v2.87v2.87v4.79v2.86v1.92v0.95v2.87v4.79v2.87v2.87v2.87 v2.86l2.35,6.94l2.38-5.98l0.95,2.23v-6.05V50.7v-2.87v-2.87v-4.79V37.3v-0.95v-1.92v-2.86v-4.79v-2.87v-2.87v-2.87v-4.78v-2.87 V7.65V4.78V0l-5.68,1.91V4.78z M64.42,6.7c1.05,0,1.89,0.85,1.89,1.91s-0.84,1.91-1.89,1.91s-1.89-0.85-1.89-1.91 S63.37,6.7,64.42,6.7z M64.42,19.13c1.05,0,1.89,0.86,1.89,1.91c0,1.06-0.84,1.92-1.89,1.92s-1.89-0.86-1.89-1.92 C62.53,19.99,63.37,19.13,64.42,19.13z M64.42,34.43c1.05,0,1.89,0.86,1.89,1.92c0,1.05-0.84,1.91-1.89,1.91 s-1.89-0.86-1.89-1.91C62.53,35.29,63.37,34.43,64.42,34.43z M64.42,48.78c1.05,0,1.89,0.86,1.89,1.92 c0,1.05-0.84,1.91-1.89,1.91s-1.89-0.86-1.89-1.91C62.53,49.64,63.37,48.78,64.42,48.78z" fill="#7f5d46"/></g><g id="change3_3"><path d="M3.84,21.04v15.31V50.7v12.15v0.01l0.95,1.82l1.89-6.33c0.94,2.36,1.9,3.9,2.84,6.13V53.57V50.7 v-2.87v-2.87v-4.79V37.3v-0.95v-1.92v-2.86v-4.79v-2.87v-2.87v-2.87v-4.78v-2.87V7.65V4.78V0.96L3.84,1.91V21.04z M6.68,6.7 c1.04,0,1.89,0.85,1.89,1.91s-0.85,1.91-1.89,1.91c-1.05,0-1.89-0.85-1.89-1.91S5.63,6.7,6.68,6.7z M6.68,19.13 c1.04,0,1.89,0.86,1.89,1.91c0,1.06-0.85,1.92-1.89,1.92c-1.05,0-1.89-0.86-1.89-1.92C4.79,19.99,5.63,19.13,6.68,19.13z M6.68,34.43c1.04,0,1.89,0.86,1.89,1.92c0,1.05-0.85,1.91-1.89,1.91c-1.05,0-1.89-0.86-1.89-1.91 C4.79,35.29,5.63,34.43,6.68,34.43z M6.68,48.78c1.04,0,1.89,0.86,1.89,1.92c0,1.05-0.85,1.91-1.89,1.91 c-1.05,0-1.89-0.86-1.89-1.91C4.79,49.64,5.63,48.78,6.68,48.78z" fill="#7f5d46"/></g></g><g id="change4_1"><path d="M125.459,55.542c-0.493-0.253-1.094-0.061-1.347,0.43l-2.115,4.101l-1.808-3.177 c-0.17-0.3-0.483-0.49-0.828-0.504c-0.359-0.016-0.672,0.15-0.867,0.434l-2.28,3.331l-2.162-3.855 c-0.177-0.315-0.51-0.51-0.871-0.511c0,0-0.001,0-0.001,0c-0.361,0-0.694,0.195-0.872,0.51l-1.726,3.066l-0.373-1.497 c-0.087-0.35-0.355-0.626-0.703-0.722c-0.346-0.099-0.72,0.001-0.975,0.256l-2.959,2.959l-1.349-2.699 c-0.169-0.339-0.516-0.553-0.895-0.553s-0.725,0.214-0.895,0.553l-1.076,2.151l-1.075-2.151c-0.155-0.31-0.459-0.518-0.804-0.549 c-0.349-0.027-0.682,0.119-0.89,0.396l-2.039,2.713l-2.2-3.922c-0.206-0.367-0.615-0.564-1.034-0.498 c-0.415,0.068-0.743,0.389-0.821,0.802l-0.481,2.556l-1.604-2.86c-0.177-0.315-0.51-0.51-0.872-0.511h0 c-0.361,0-0.694,0.195-0.872,0.51l-2.208,3.922L84.43,57.51c-0.207-0.277-0.542-0.422-0.89-0.396 c-0.345,0.031-0.65,0.239-0.805,0.549l-1.349,2.699l-2.959-2.959c-0.262-0.262-0.646-0.355-1.002-0.249 c-0.354,0.109-0.619,0.406-0.688,0.771l-0.586,3.113l-2.539-3.19c-0.188-0.237-0.474-0.376-0.777-0.377 c-0.316-0.018-0.59,0.135-0.781,0.37l-2.932,3.61l-1.892-4.451c-0.159-0.373-0.506-0.577-0.932-0.608 c-0.405,0.005-0.768,0.254-0.917,0.63l-1.375,3.455l-1.479-4.366c-0.144-0.424-0.558-0.699-0.998-0.678 c-0.447,0.022-0.824,0.339-0.924,0.775l-1.012,4.418l-1.692-3.006c-0.191-0.339-0.56-0.536-0.949-0.507 c-0.388,0.03-0.723,0.282-0.859,0.646l-1.164,3.108l-0.944-1.894c-0.155-0.311-0.46-0.519-0.806-0.55 c-0.353-0.032-0.683,0.12-0.891,0.398l-2.15,2.879l-2.158-2.88c-0.208-0.278-0.546-0.425-0.89-0.396 c-0.346,0.031-0.65,0.239-0.805,0.55l-1.075,2.156l-1.075-2.156c-0.155-0.311-0.46-0.519-0.806-0.55 c-0.344-0.024-0.683,0.12-0.891,0.398l-1.979,2.649l-1.246-2.498c-0.144-0.288-0.417-0.489-0.735-0.541 c-0.319-0.05-0.641,0.053-0.868,0.281l-2.958,2.965l-1.349-2.706c-0.177-0.355-0.541-0.571-0.947-0.552 c-0.397,0.021-0.745,0.275-0.884,0.648l-1.216,3.247l-1.906-3.387c-0.191-0.339-0.565-0.532-0.949-0.507 c-0.388,0.03-0.723,0.282-0.859,0.646l-1.215,3.243l-1.896-3.382c-0.184-0.33-0.532-0.52-0.916-0.51 c-0.377,0.017-0.713,0.245-0.868,0.589l-1.561,3.47l-0.478-3.208c-0.06-0.399-0.353-0.723-0.744-0.822 c-0.391-0.098-0.804,0.046-1.045,0.37l-3.13,4.177V59.42c0-0.437-0.283-0.822-0.699-0.954c-0.414-0.131-0.869,0.022-1.12,0.379 L9.959,63c-0.285-0.614-0.568-1.187-0.846-1.747c-0.52-1.047-1.01-2.036-1.503-3.274c-0.158-0.396-0.546-0.646-0.974-0.629 c-0.425,0.019-0.792,0.305-0.914,0.713l-1.184,3.963l-2.651-5.098c-0.255-0.49-0.857-0.682-1.349-0.426 c-0.49,0.255-0.681,0.859-0.426,1.349l2.8,5.383c0.012,0.03,0.025,0.059,0.04,0.088l0.95,1.82 c0.189,0.36,0.585,0.571,0.982,0.533c0.405-0.039,0.747-0.319,0.863-0.709l1.119-3.745c0.152,0.313,0.304,0.619,0.454,0.922 c0.441,0.89,0.858,1.73,1.285,2.743c0.042,0.093,0.08,0.188,0.118,0.286l0.104,0.257c0.141,0.335,0.454,0.567,0.815,0.605 c0.368,0.04,0.716-0.122,0.925-0.42l2.121-3.026V66c0,0.431,0.275,0.813,0.684,0.949C13.478,66.983,13.585,67,13.69,67 c0.309,0,0.608-0.144,0.8-0.4l3.494-4.663l0.627,4.211c0.065,0.439,0.413,0.782,0.852,0.843c0.442,0.059,0.867-0.176,1.049-0.581 l2.146-4.771l1.979,3.53c0.19,0.339,0.562,0.542,0.948,0.508c0.388-0.03,0.724-0.282,0.86-0.646l1.216-3.247l1.906,3.387 c0.191,0.339,0.56,0.541,0.949,0.507c0.388-0.03,0.723-0.282,0.859-0.646l1.164-3.108l0.944,1.894 c0.144,0.288,0.417,0.489,0.735,0.541c0.315,0.049,0.641-0.053,0.868-0.281l2.958-2.965l1.349,2.706 c0.155,0.311,0.46,0.519,0.806,0.55c0.345,0.029,0.683-0.119,0.891-0.398l1.979-2.649l1.245,2.497 c0.169,0.339,0.516,0.554,0.895,0.554c0.379,0,0.726-0.214,0.895-0.554l1.247-2.5l1.988,2.653c0.189,0.252,0.485,0.4,0.8,0.4 c0,0,0,0,0.001,0c0.315,0,0.612-0.149,0.8-0.402l1.978-2.649l1.246,2.497c0.178,0.356,0.551,0.579,0.947,0.552 c0.397-0.021,0.745-0.275,0.884-0.648l1.216-3.247l1.906,3.387c0.203,0.361,0.611,0.557,1.015,0.5 c0.409-0.059,0.739-0.364,0.832-0.767l0.801-3.496l1.217,3.594c0.135,0.397,0.502,0.668,0.921,0.679 c0.413,0.014,0.8-0.24,0.955-0.63l1.482-3.724l1.588,3.745c0.137,0.323,0.433,0.55,0.78,0.6c0.35,0.049,0.695-0.087,0.917-0.36 l3.196-3.935l3.125,3.927c0.243,0.306,0.641,0.439,1.023,0.348c0.38-0.094,0.669-0.401,0.742-0.786l0.64-3.399l2.601,2.601 c0.227,0.227,0.551,0.327,0.867,0.28c0.317-0.052,0.59-0.252,0.734-0.54l1.246-2.492l1.979,2.644 c0.202,0.27,0.526,0.42,0.865,0.398c0.337-0.022,0.641-0.213,0.807-0.508l2.087-3.708l2.08,3.708 c0.206,0.367,0.614,0.563,1.034,0.498c0.415-0.068,0.743-0.389,0.821-0.802l0.481-2.556l1.604,2.86 c0.165,0.295,0.468,0.486,0.806,0.508c0.335,0.027,0.663-0.127,0.866-0.397l1.989-2.647l1.247,2.494 c0.169,0.339,0.516,0.553,0.895,0.553s0.725-0.214,0.895-0.553l1.076-2.151l1.075,2.151c0.144,0.288,0.417,0.488,0.734,0.54 c0.318,0.049,0.641-0.053,0.867-0.28l2.69-2.689l0.553,2.224c0.099,0.398,0.43,0.695,0.836,0.75 c0.401,0.05,0.804-0.144,1.005-0.501l2.087-3.708l2.079,3.708c0.169,0.301,0.482,0.494,0.828,0.51 c0.338,0.005,0.674-0.149,0.87-0.434l2.287-3.34l1.929,3.39c0.182,0.319,0.538,0.511,0.89,0.505 c0.367-0.008,0.7-0.216,0.868-0.542l2.96-5.74C126.142,56.397,125.95,55.794,125.459,55.542z" fill="#6fceae"/></g></g></g></svg>