<?xml version="1.0" encoding="UTF-8"?><svg xmlns="http://www.w3.org/2000/svg" xmlns:xlink="http://www.w3.org/1999/xlink" height="358.8" preserveAspectRatio="xMidYMid meet" version="1.0" viewBox="-0.4 -0.2 478.6 358.8" width="478.6" zoomAndPan="magnify"><g id="change1_1"><path d="M478.06,14.92c-0.01,1.69-0.68,3.25-0.64,4.9c0.03,1.46-0.51,2.7-1.1,3.99c-0.46,1.02-1.15,1.92-1.41,3.05 c-0.28,1.19-1.19,2.08-1.78,3.14c-0.69,1.25-1.36,2.52-2.14,3.72c-0.57,0.88-1.26,1.7-1.96,2.49c-1.32,1.49-2.63,2.98-4.03,4.38 c-1.47,1.47-3.16,2.73-4.56,4.25c-2.21,2.4-5,3.91-7.79,5.42c-0.98,0.53-1.97,1.1-3.04,1.44c-0.99,0.32-1.66,1.07-2.47,1.61 c-1.39,0.94-2.76,1.9-4.37,2.44c-0.28,0.1-0.28,0.5-0.63,0.46c-1.68,2.35-2.35,5.21-3.93,7.63c-0.64,0.97-1.24,2-1.87,2.99 c1.67,0.87,1.62,0.84,0.74,2.89c-0.7,1.63-1.73,3.18-2.41,4.79c-0.7,1.65-2.36,2.52-2.79,4.25c-2.39,1.41-3.95,4.12-7.06,4.43 c-0.64,0.06-1.3,0.41-1.84,0.79c-2.59,1.79-5.65,1.96-8.59,2.53c-0.31,0.06-0.61,0.14-0.92,0.21c0.01,0.08-0.02,0.17-0.1,0.23 c-0.13,0.09-0.2-0.04-0.24-0.15c-0.45-0.02-0.9-0.05-1.35-0.07c-1.18,0.67-2.36,0.87-3.72,0.16c-0.13-0.07-0.26-0.1-0.39-0.15 c-0.21-0.02-0.41-0.07-0.59-0.14c-1.35-0.16-2.55,0.76-3.74,1.32c-0.87,0.41-1.66,0.5-2.5,0.22c-1.06-0.35-2.11-0.33-3.15-0.07 c-0.79,0.2-1.47,0.17-2.29-0.07c-1.2-0.35-2.5-0.4-3.76-0.46c-2.79-0.14-5.46-0.55-7.8-2.28c-0.62-0.46-1.42-0.75-2.32-0.65 c-1.22,0.14-2.31-0.38-3.31-1.03c-0.53-0.34-0.92-0.43-1.54-0.02c-2.02,1.34-4.21,2.38-6.2,3.78c-0.29,0.2-0.67,0.33-0.88,0.6 c-1.35,1.72-3.22,2.93-5.05,3.86c-1.52,0.78-1.86,2.39-3.17,3.08c-2.07,1.09-3.41,3.21-5.72,3.96c-0.82,0.27-1.44,0.93-2,1.6 c-0.79,0.95-1.72,1.68-2.97,1.94c-0.26,0.05-0.6,0.19-0.71,0.39c-1.09,2.05-3.42,2.61-4.97,4.14c-1.54,1.52-3.32,2.8-5.1,4.06 c-0.95,0.67-1.92,1.25-2.93,1.83c-1.12,0.64-2.38,1.35-3.05,2.55c-0.89,1.57-2.32,2.22-3.94,2.58c-0.45,0.1-0.86,0.28-1.14,0.56 c-1.34,1.36-2.62,2.76-3.92,4.16c-0.13,0.14-0.2,0.4-0.36,0.46c-2.09,0.91-3.25,3.36-5.8,3.52c-0.37,0.02-0.69,0.33-0.81,0.64 c-0.77,1.93-2.56,2.9-4.13,3.84c-1.38,0.82-2.71,1.72-3.97,2.68c-0.9,0.68-1.7,1.45-2.45,2.27c-1.26,1.37-2.39,2.86-3.63,4.24 c-0.09,0.75-0.05,1.53-0.17,2.27c-0.03,0.18-0.07,0.37-0.12,0.54c-0.1,0.36-0.26,0.7-0.51,1.01c-0.12,0.16-0.27,0.31-0.44,0.45 c-0.18,2.47-1.54,3.87-4.11,4.45c-0.71,0.16-1.45,0.63-1.94,1.17c-0.81,0.88-1.9,1.17-2.89,1.63c-0.82,0.37-1.64,0.83-2.4,1.24 c-0.52,0.28-1.01,0.47-1.51,0.58c-0.5,0.11-1.01,0.14-1.55,0.09c-0.44,1.12-0.72,2.31-1.09,3.45c-0.12,0.38-0.25,0.76-0.4,1.12 c-1.03,2.58-1.54,5.33-3.49,7.63c-1.56,1.85-3.47,3.8-3.64,6.54c-0.01,0.12-0.02,0.28-0.09,0.34c-1.5,1.21-1.97,3.25-3.53,4.43 c-0.95,0.72-1.39,1.86-1.97,2.86c-1.1,1.91-2.76,3.37-4,5.15c-0.83,1.2-1.77,2.25-3.15,2.83c-0.64,0.27-0.94,0.91-1.33,1.46 c-1.24,1.76-3.15,2.82-4.82,4.06c-0.95,0.71-2.56,0.61-3.89,0.71c-1.58,0.12-3.08,0.55-4.58,0.97c-0.88,0.24-1.73,0.49-2.67,0.55 c-1.35,0.1-2.05,1.29-2.88,2.17c-0.81,0.85-1.49,1.82-2.71,2.15c-0.17,0.05-0.31,0.22-0.44,0.36c-1.86,2.01-4.08,3.54-6.34,5.06 c-1.29,0.87-2.13,2.33-3.44,3.27c-0.91,0.66-1.78,1.34-2.79,1.87c-0.85,0.44-1.54,1.19-2.32,1.78c-1.62,1.23-3.52,1.98-5.3,2.91 c-1.07,0.56-1.87,1.43-2.47,2.41c-0.58,0.95-1.26,1.62-2.28,2.07c-1.86,0.82-3.5,2.02-5.08,3.26c-0.66,0.52-1.38,0.99-2.11,1.2 c-0.95,0.27-1.59,0.82-2.19,1.48c-1.08,1.2-2.26,2.18-4.01,2.06c-0.5-0.03-0.75,0.4-1.05,0.67c-1.17,1.05-2.39,2.02-3.95,2.45 c-1.37,0.38-2.26,1.65-3.73,1.92c-1.03,0.19-2.17-0.03-3.1,0.65c-1.08,0.79-2.49,0.87-3.39,2.22c-0.68,1.03-2.15,1.57-3.36,2.23 c-1.99,1.07-4.17,1.85-5.92,3.33c-1.1,0.93-2.04,2.04-3.53,2.47c-1.08,0.31-1.9,1.21-2.82,1.83c-2.47,1.66-5.5,2.48-7.38,5.08 c-0.12,0.17-0.26,0.33-0.4,0.47c-0.41,0.41-0.9,0.7-1.43,0.92c-0.78,0.32-1.66,0.47-2.54,0.52c-1.78,1.76-3.65,3.42-5.57,5.03 c-0.64,0.54-1.28,1.07-1.93,1.6c-1.24,1.02-2.49,2.01-3.65,3.14c-1.08,1.05-2.27,2.06-3.65,2.82c-1.19,0.66-2.29,1.55-3.33,2.43 c-1.3,1.1-2.71,1.95-4.14,2.84c-1.21,0.76-2.58,1.33-3.64,2.43c-0.73,0.76-1.99,1.01-2.76,1.76c-1.23,1.19-3.02,1.51-4.11,2.88 c-0.54,0.69-1.49,0.5-2.2,0.86c-0.35,0.18-0.77,0.21-1.11,0.51c-1,0.89-2.16,0.72-3.32,0.38c-0.09,0.07-0.17,0.15-0.26,0.22 c0.02,0.28-0.01,0.56-0.21,0.76c-1.19,1.15-2.22,2.46-3.57,3.45c-1.12,0.83-2.13,1.83-3.33,2.52c-1.9,1.09-3.74,2.35-5.95,2.83 c0.31,1.35-0.65,2.18-1.33,3.1c-1.23,1.64-2.32,3.38-3.75,4.86c-1.62,1.67-3.09,3.47-4.76,5.09c-1.03,1-2.31,1.73-3.14,2.94 c-0.46,0.67-1.4,0.8-1.79,1.64c-1.22,2.65-2.37,5.35-3.84,7.87c-1.02,1.74-2,3.5-2.93,5.29c-1.02,1.98-2.35,3.76-3.33,5.76 c-0.58,1.19-1.83,1.89-2.45,3.14c-1.11,2.24-2.81,4.09-4.34,6.05c-1.16,1.49-2.2,3.1-3.09,4.76c-0.78,1.46-2.1,1.54-3.21,0.39 c-0.17,0.09-0.46,0.14-0.51,0.27c-0.82,2.45-2.67,4.27-3.93,6.45c-0.44,0.77-1.29,1.1-1.85,1.82c-0.94,1.19-1.66,2.54-2.8,3.62 c-0.77,0.73-1.26,1.8-2.12,2.52c-0.05,0.04-0.1,0.09-0.16,0.13c-0.16,0.13-0.32,0.23-0.53,0.23c-0.5,0.76-0.92,1.59-1.56,2.25 c-0.21,0.22-0.46,0.42-0.73,0.59c-0.66,0.41-1.38,0.75-1.93,0.22c-0.61-0.6-0.93-1.48-0.59-2.41c0.42-1.14,0.9-2.27,1.25-3.44 c0.83-2.75,1.76-5.47,2.9-8.09c1.18-2.69,2.64-5.25,4.01-7.85c1.75-3.32,3.62-6.58,5.69-9.71c0.19-0.28,0.56-0.53,0.13-0.9 c-0.52,0.03-0.93,0.37-1.14,0.75c-1.01,1.79-2.55,3.02-4.18,4.18c-1.07,0.76-1.84,1.84-2.62,2.87c-0.71,0.94-1.29,1.91-2.33,2.63 c-1.58,1.09-2.97,2.45-4.01,4.13c-0.34,0.55-1.08,0.83-1.58,1.31c-2.02,1.93-4.44,3.4-6.38,5.41c-0.17,0.18-0.34,0.26-0.52,0.29 c-0.17,0.03-0.35,0.02-0.54,0.02c-0.18,0.14-0.35,0.32-0.56,0.43c-0.65,0.35-1.26,0.82-2.05,0.15c-0.76-0.65-0.87-1.44-0.55-2.24 c1.91-4.7,4.49-9.01,7.58-13.04c1.28-1.67,2.32-3.54,3.81-5.06c1.2-1.22,2.31-2.56,3.87-3.39c-0.96-0.77-1.89-0.1-2.33,0.48 c-0.59,0.77-1.31,0.95-2.06,1.35c-2.16,1.16-4.55,1.73-6.69,2.95c-2.14,1.22-4.37,0.84-5.93-1.04c-0.08-0.1-0.15-0.2-0.19-0.29 c-0.14-0.29-0.14-0.56-0.12-0.88c-0.02-0.22-0.01-0.43,0.01-0.64c0.02-0.19,0.05-0.36,0.1-0.54c0.01-0.06,0.02-0.12,0.04-0.18 c0.02-0.07,0.05-0.14,0.08-0.21c0.05-0.13,0.09-0.27,0.15-0.39c0.18-0.39,0.41-0.76,0.65-1.12c0.37-0.54,0.78-1.06,1.13-1.61 c1.11-1.74,2.84-2.88,4.28-4.3c3.58-3.55,8.08-5.84,12.08-8.82c2.55-1.9,5.4-3.27,8.45-4.14c1.16-0.33,2.41-0.35,3.62-0.51 c0.33-0.99,1.44-1.03,2.09-1.78c2.12-2.47,4.04-5.15,6.58-7.25c1.03-0.85,1.92-1.97,2.59-3.02c1.38-2.18,3.45-3.59,5.11-5.45 c1.16-1.3,2.15-2.76,3.45-3.94c0.54-0.74,0.74-1.38,0.42-2.42c-0.48-1.55,0.2-3.18,0.51-4.76c0.6-3.1,2.87-5.34,4.13-8.1 c0.54-1.19,1.82-1.82,2.4-3c1.16-2.34,2.67-4.48,4.06-6.66c1.38-2.16,2.98-4.22,4.73-6.14c2.16-2.36,4.11-4.93,6.36-7.21 c1.46-1.49,2.69-3.21,4.57-4.33c1.56-0.93,2.41-2.7,3.8-3.92c2.56-2.24,4.58-5.03,7.24-7.17c0.79-0.64,1.03-1.02-0.06-1.77 c-1.85-1.27-3.29-3.12-5.05-4.48c-2.14-1.66-3.38-3.88-4.92-5.94c-0.36-0.48-0.58-0.99-0.68-1.6c-0.21-1.35-0.92-1.63-2.16-0.97 c-1.31,0.7-2.09,2.2-3.55,2.59c-3.31,0.88-5.08,3.97-8.01,5.37c-1.43,0.68-2.68,1.79-4.38,1.87c-0.42,0.02-0.89,0.16-1.16,0.53 c-1.45,2-3.97,2.59-5.64,4.28c-0.08,0.08-0.21,0.18-0.3,0.17c-1.53-0.16-2.31,0.9-3.14,1.9c-0.2,0.24-0.46,0.46-0.74,0.58 c-1.75,0.74-3.51,1.56-5.08,2.56c-2.24,1.44-4.95,2.18-6.75,4.3c-0.45,0.52-0.98,0.9-1.69,0.97c-0.49,0.04-1.01,0.21-1.28,0.56 c-1.2,1.55-2.99,2.39-4.62,3.1c-2.31,1.02-4.39,2.96-7.23,2.53c-0.78-0.12-1.2,0.55-1.76,0.87c-0.23,0.13-0.48,0.21-0.73,0.27 c-0.74,0.16-1.53,0.08-2.22,0.42c-0.46,0.99-0.95,1.97-1.63,2.81c-0.23,0.28-0.47,0.55-0.75,0.8c-0.17,0.15-0.23,0.3-0.28,0.48 c-0.3,1.06-0.76,1.9-1.7,2.65c-0.92,0.73-1.42,1.97-2.11,2.98c-0.2,0.29-0.37,0.7-0.65,0.82c-1.62,0.71-1.79,2.55-2.92,3.64 c-0.08,0.08-0.13,0.16-0.16,0.25c-0.03,0.09-0.03,0.19-0.03,0.29c0,0.2,0.04,0.4,0,0.59c0.84,0.92,1.04,1.95,1.01,3.01 c-0.01,0.42-0.06,0.85-0.12,1.28c-0.03,0.21-0.06,0.43-0.1,0.64c-0.26,1.69-0.42,3.42-0.9,5.03c-0.68,2.29-0.41,4.79-1.73,6.94 c-0.46,0.76-0.21,1.84-0.41,2.78c-0.31,1.48-0.99,2.82-1.37,4.28c-0.39,1.54-1.14,3.08-1.94,4.45c-1.51,2.59-2.62,5.38-4.04,8 c-0.14,0.25-0.26,0.47-0.48,0.65c-0.87,0.7-1.46,1.58-2,2.58c-0.48,0.89-1.39,1.56-2.15,2.28c-0.53,0.5-0.78,1.21-1.53,1.56 c-1.69,0.79-2.51,1.02-3.39-1.16c-0.98-0.51-2.04-0.93-2.44-2.12c-0.07-0.2-0.24-0.38-0.39-0.55c-1.29-1.42-1.21-2.9-0.29-4.5 c0.36-0.62,0.6-1.36,0.67-2.08c0.15-1.36,0.84-2.53,1.2-3.79c0.38-1.37,1.18-2.6,1.27-4.05c-0.12,0.03-0.22,0.09-0.31,0.15 c-0.28,0.2-0.46,0.5-0.56,0.76c-0.93,2.55-3.06,4.05-4.96,5.75c-1.96,1.75-3.78,3.63-5.65,5.48c-0.49,0.49-1,0.94-1.69,1.21 c-1,0.39-1.74,0.18-2.39-0.62c-1.85-0.12-3.12-1.26-3.84-2.75c-0.57-1.17-0.41-2.57,0.34-3.84c0.92-1.56,1.63-3.25,2.53-4.83 c1.32-2.33,2.8-4.56,4.42-6.71c0.91-1.22,1.5-2.71,2.59-3.78c0.44-0.44,0.87-0.87,1.25-1.34c0.38-0.47,0.72-0.96,0.99-1.52 c-1.02,0.87-2.11,1.62-3.24,2.32c-0.38,0.23-0.76,0.46-1.14,0.68c-1.53,0.89-3.1,1.71-4.61,2.64c-1.4,0.86-2.89,1.87-4.74,1.84 c-0.69-0.01-1.39,0.19-2.07,0.47c-1.16,0.48-4.57-0.57-4.96-1.56c-0.7-1.82-1.06-3.65,0.01-5.55c1.32-2.35,3.59-3.75,5.3-5.7 c1.09-1.25,2.4-2.39,3.77-3.15c2.16-1.21,3.97-2.86,6.1-4.08c1.04-0.59,1.88-1.52,2.86-2.23c1.29-0.94,2.55-1.94,3.95-2.69 c1.67-0.88,3.03-2.28,4.9-2.82c0.6-0.17,1.06-0.16,1.55,0.18c0.83-1.24,1.67-2.47,2.5-3.71c-0.04-0.21-0.05-0.41-0.04-0.6 c0.02-0.38,0.15-0.71,0.39-1.02c0.12-0.15,0.27-0.3,0.45-0.44c1.51-1.19,2.19-3.05,3.45-4.45c1.71-1.89,3.15-4,4.59-6.07 c2.08-2.98,4.9-5.22,7.23-7.94c1.06-1.24,2.67-1.86,4.13-2.61c0.19-0.1,0.39-0.17,0.6-0.25s0.41-0.14,0.61-0.21c0,0,0,0,0,0 c0.23-0.19,0.43-0.38,0.62-0.59c0.31-0.36,0.55-0.74,0.75-1.15c0.15-0.29,0.27-0.6,0.38-0.91c0.32-0.99,0.46-2.06,0.66-3.11 c0.33-1.72,1.04-3.37,1.51-5.08c0.56-2.03,1.44-3.93,2.01-5.98c0.58-2.07,1.38-4.19,2.52-6.08c0.13-0.21,0.25-0.43,0.35-0.65 c0.32-0.66,0.54-1.35,0.78-2.04c-0.04-1.39,0.41-2.66,0.82-3.95c0.14-0.43,0.27-0.86,0.38-1.29c0.62-2.42,1.68-4.71,2.75-6.92 c0.99-2.06,1.99-4.17,3.33-6.07c1.64-2.34,3.35-4.65,4.94-7.03c1.98-2.97,4.2-5.76,6.38-8.57c2.7-3.48,5.36-6.99,8.19-10.36 c1.24-1.47,2.77-2.7,3.96-4.24c1.4-1.8,3.1-3.23,4.92-4.63c1.54-1.19,2.93-2.74,4.49-3.88c2.51-1.84,4.86-4.04,8.03-4.85 c0.84-0.21,1.63-0.6,2.45-0.9c1.85-1.34,3.59-2.74,5.82-3.6c1.87-0.73,3.66-1.91,5.5-2.84c1.63-0.82,3.19-1.94,5.16-1.67 c1.01,0.14,2.08,0.19,3,0.57c0.81,0.34,1.17,0.11,1.54-0.49c1.37-2.2,3.11-4.21,4.98-5.88c3.12-2.78,5.46-6.51,9.51-8.24 c0.48-0.2,0.84-0.69,1.24-1.06c2-1.87,4.17-3.56,6.62-4.76c1.16-0.57,2.02-1.23,2.63-2.35c0.42-0.77,1.32-1.19,2.08-1.17 c1.24,0.03,1.91-0.69,2.66-1.39c0.54-0.52,1.09-1,1.82-1.26c0.74-0.26,1.36-0.71,1.93-1.25c0.95-0.91,2.26-1.02,3.43-1.41 c1.73-0.57,3.27-1.51,4.84-2.4c0.51-0.29,1.01-0.59,1.57-0.77c0.44-0.15,0.77-0.25,1.01-0.36c0.71-0.32,0.58-0.62,0.06-1.81 c-0.3-0.2-0.48-0.47-0.59-0.76c-0.04-0.1-0.07-0.2-0.09-0.3c-0.05-0.19-0.08-0.39-0.09-0.59c-0.08-1.33-0.05-2.67-0.06-4 c-0.13-2.8,0.99-5.07,3.09-6.82c2.87-2.39,6.17-4.13,9.59-5.56c1.34-0.56,2.99-0.4,4.35-1.02c1.88-0.85,3.94-0.96,5.84-1.73 c1.31-0.53,2.84-0.22,4.23-0.62c0.49-0.14,0.98-0.22,1.46-0.42c0.93-0.39,1.88-0.79,2.96-0.59c0.54,0.1,1.06-0.02,1.58-0.34 c0.41-0.25,1-0.3,1.5-0.26c2.08,0.15,4.14-0.04,6.21-0.16c0.64-0.04,1.27-0.01,1.91-0.06c1.04-0.08,2.25,0.07,2.99,1.09 c0.25,0.34,0.52,0.56,0.94,0.66c1.15,0.26,2.12,0.9,2.8,1.84c0.41,0.56,0.86,0.58,1.41,0.61c3.46,0.16,6.65-0.8,9.7-2.32 c0.42-0.21,0.96-0.12,1.3-0.53c-0.26-0.05-0.48-0.13-0.72-0.29c-1.01-0.66-1.89-1.5-3.17-1.78c-0.18-0.04-0.34-0.1-0.49-0.17 c-1.07-0.5-1.65-1.72-2.67-2.34c-0.34,0.43-0.77,0.75-1.25,0.74c-0.16,0-0.33-0.04-0.49-0.13c-0.95-0.49-1.84-1.24-1.96-2.36 c-0.25-2.22-0.12-4.41,1.02-6.43c0.29-0.51,0.5-1.07,0.7-1.62c0.98-2.67,3.28-4.26,5.06-6.27c2.45-2.76,5.5-4.76,8.67-6.59 c1.23-0.71,2.5-1.22,3.9-0.43c2.17-0.49,4.2-0.05,6.15,0.93c0.2,0.1,0.4,0.25,0.53,0.43c1.49,2.2,3.83,3.67,5.14,6.02 c0.11,0.19,0.35,0.3,0.33,0.58c-0.08,1.28,0.22,2.45,0.93,3.54c1.22,1.86,0.84,4.12,1.47,6.13c0.27-0.06,0.61-0.03,0.79-0.19 c2.47-2.17,5.55-2.66,8.62-3.16c1.69-0.28,3.16-1.17,4.62-1.94c1.01-0.54,2.07-0.34,3.05-0.78c0.64-0.29,1.22-0.66,1.84-0.98 c1.33-0.69,2.71-1.14,4.27-1.26c1.11-0.08,2.25-0.6,3.26-1.24c0.46-0.29,0.91-0.67,1.53-0.49c0.36-1.08,1.3-1.23,2.22-1.64 c2.19-0.97,4.45-1.71,6.7-2.5c3.66-1.29,7.29-2.66,11.06-3.66c2.23-0.6,4.5-1.17,6.67-1.93c1.58-0.56,3.19-1.03,4.78-1.56 c1.52-0.51,3.22-0.55,4.68-1.17c2.12-0.9,4.38-0.95,6.56-1.44c1.49-0.34,2.88-0.96,4.43-1.19c1.38-0.2,2.79-0.51,4.17-0.7 c3.08-0.42,6.21-0.58,9.32-0.78c2.19-0.13,4.39-0.14,6.58-0.21c1.27-0.31,2.55-0.44,3.84-0.51c2.15-0.13,4.32-0.1,6.44-0.47 c0.36-0.54,0.6-1.24,1-1.75c0.39-0.51,0.94-0.83,1.92-0.62c0.52-0.65,0.78-1.46,1.09-2.24c0.31-0.78,0.67-1.52,1.4-2.06 c-0.04-0.16-0.05-0.32-0.04-0.47c0.01-0.45,0.18-0.84,0.4-1.21c0.29-0.5,0.66-0.97,0.84-1.5c0.84-2.38,2.6-4.28,3.75-6.48 c0.57-1.08,1.44-1.95,1.9-3.18c0.39-1.03,1.2-2.36,2.45-3.01c0.09-0.05,0.2-0.14,0.22-0.23c0.39-1.65,1.69-2.78,2.57-4.11 c0.23-0.35,0.45-0.76,0.68-1.15c0.23-0.39,0.49-0.78,0.82-1.1c0.22-0.22,0.47-0.4,0.76-0.54c0.11-0.14,0.23-0.27,0.34-0.41 c0.03-0.03,0.05-0.07,0.08-0.1c0.16-0.29,0.32-0.57,0.49-0.85c0.46-0.75,1.02-1.42,1.88-1.81c0.63-1.41,1.85-1.5,2.96-0.78 c0.16,0.1,0.32,0.22,0.47,0.35c0.78,0.68,1.53,1.38,1.71,2.69c0.17,1.16,1.15,2.26,1.92,3.27c0.38,0.49,0.38,1.28,1.12,1.5 c1.93-1.79,3.9-3.58,6.21-4.81c3.28-1.75,6.69-3.25,10.52-3.37c0.09,0,0.19-0.03,0.28-0.07c0.09-0.04,0.18-0.08,0.28-0.11 c0.01-0.02,0.02-0.04,0.04-0.06c0.01-0.02,0.02-0.03,0.04-0.03c2.34-0.07,4.62-0.9,7-0.6c0.41,0.01,0.81,0.05,1.19,0.13 c0.29,0.06,0.56,0.13,0.83,0.23c0.8,0.3,1.51,0.79,2.11,1.53c1.01-1.22,2.08-2.29,3.38-3.19c0.43-0.3,0.89-0.58,1.38-0.83 c1.74-0.91,3.37-1.8,5.32-1.64c1.12,0.09,2.23,0.27,3.36,0.35c1.29,0.09,2.39,0.76,3.11,1.98c0.38,0.65,1.17,0.86,1.49,1.77 c0.53,1.47,0.73,1.4-0.62,2.46c0.35,1.54,1.55,2.96,0.51,4.69c-0.16,0.27-0.05,0.69-0.09,1.09c-0.01,0.13-0.04,0.26-0.1,0.38 c0.53,0.32,1.06,0.63,1.61,0.91c0.55,0.28,1.11,0.53,1.71,0.72c1.82,0.87,3.44,1.97,4.57,3.72c0.1,0.16,0.19,0.3,0.25,0.45 c0.07,0.15,0.11,0.3,0.12,0.48c0.46-0.08,0.8-0.09,1.06,0.01c0.09,0.03,0.17,0.08,0.24,0.14c0.29,0.24,0.49,0.7,0.72,1.49 c0.17-0.09,0.35-0.15,0.52-0.23s0.35-0.16,0.52-0.28c1.23-0.94,2.68-1.35,4.19-1.67c0.62-0.13,1.25-0.66,1.74-1.03 c1.73-1.3,3.91-1.91,5.44-3.32c0.9-0.83,1.99-1.24,2.89-2.01c0.77-0.66,1.7-1.26,2.66-1.69c1.54-0.69,3.76,0.36,4.37,1.94 C478.21,13.22,478.06,14.04,478.06,14.92z" fill="#FB825C"/></g><g id="change2_1"><path d="M288.16,153.75c-1.38-0.38-2.14-1.35-2.41-2.47c-0.09-0.37-0.13-0.76-0.12-1.15 c0.07-3.29-1.07-6.41-1.05-9.67c0.02-3.53-0.8-6.93-1.67-10.32c-0.44-1.72-1.29-3.37-1.5-5.11c-0.23-1.9-0.61-3.77-1.14-5.57 c-0.46-1.57-1.04-3.13-1.38-4.72c-0.52-2.46-2.07-4.55-2.38-7.06c-0.09-0.71-0.5-1.05-1.23-0.94c-0.59,0.09-1.21,0.1-1.75,0.32 c-4.28,1.71-8.74-1.69-10.06-4.7c-0.68-1.56-0.97-3.32-1.36-5.02c-0.62-2.71-0.85-5.4-0.56-8.15c0.06-0.57-0.22-0.64-0.63-0.39 c-1.92,1.2-3.96,0.52-5.88,0.21c-3.2-0.51-5.73-3.35-6.15-6.56c-0.15-1.14,0.04-2.29,0.34-3.4c0.14-0.5,0.05-0.88-0.51-0.71 c-2.73,0.83-5.05-0.43-7.44-1.38c-0.52-0.2-1.06-0.33-1.59-0.5c-0.33,0.41-0.87,0.32-1.3,0.53c-3.05,1.52-6.24,2.48-9.7,2.32 c-0.56-0.03-1.01-0.04-1.41-0.61c-0.67-0.94-1.64-1.57-2.8-1.84c-0.42-0.1-0.69-0.32-0.94-0.66c-0.74-1.02-1.94-1.16-2.99-1.09 c-0.64,0.05-1.27,0.02-1.91,0.06c-2.07,0.12-4.13,0.31-6.21,0.16c-0.5-0.04-1.1,0.02-1.5,0.26c-0.52,0.32-1.04,0.44-1.58,0.34 c-1.08-0.2-2.03,0.2-2.96,0.59c-0.49,0.21-0.98,0.28-1.46,0.42c-1.39,0.4-2.91,0.08-4.23,0.62c-1.9,0.77-3.96,0.88-5.84,1.73 c-1.36,0.62-3.01,0.45-4.35,1.02c-3.42,1.43-6.72,3.16-9.59,5.56c-2.1,1.75-3.22,4.02-3.09,6.82c0.53-0.73,0.62-1.69,1.33-2.36 c0.5-0.48,0.93-0.73,1.56-0.38c0.64,0.35,1.13,0.82,0.8,1.63c-0.64,1.6-0.09,2.95,1.07,3.96c0.74,0.64,1.76,1.01,2.72,1.34 c1.61,0.57,3.29,0.83,4.99,0.98c5.67,0.5,11.34,0.47,17-0.17c1.31-0.15,3.09,1.35,3.45,2.93c0.22,0.96-0.01,1.82-0.29,2.76 c-0.66,2.3-2.18,4.21-2.72,6.56c-0.23,0.99-1.04,1.83-1.39,2.86c-1.11,3.29-2.5,6.49-3.37,9.84c-0.6,2.29-1.16,4.68-0.83,7.14 c0.2,1.52,0.6,1.72,2.01,1.19c4.06-1.52,7.19-4.41,10.05-7.41c3.15-3.31,6.12-6.84,8.92-10.49c2.44-3.18,4.99-6.27,7.51-9.39 c0.4-0.49,0.86-0.93,1.34-1.35c1.78-1.53,2.62-3.67,3.57-5.71c0.66-1.41,1.69-2.61,2.15-4.11c0.73-2.37,1.17-4.76,0.92-7.26 c-0.14-1.43-0.99-2.28-2.2-2.88c-0.63-0.31-1.5-0.58-1.16-1.51c0.31-0.85,1.12-1.27,2.04-1.13c1.65,0.26,2.93,1.15,3.92,2.48 c0.97,1.29,1.59,2.73,1.66,4.35c0.04,0.86,0.58,1.57,0.61,2.41c0.06,1.78-0.35,3.45-1.04,5.09c-0.52,1.24-0.67,2.69-1.66,3.65 c-2.04,1.99-2.79,4.76-4.37,7.03c-1,1.44-1.72,3.11-2.6,4.67c-1.52,2.67-3.67,4.83-5.58,7.18c-0.75,0.92-1.57,1.83-2.06,2.89 c-0.95,2.06-2.7,3.41-4.04,5.12c-1.36,1.74-2.98,3.24-4.46,4.86c-0.45,0.49-1,0.93-1.58,1.25c-0.86,0.48-1.53,1.12-2.09,1.91 c-0.42,0.59-0.84,1.15-1.68,1.18c-0.21,0.01-0.53,0.16-0.61,0.33c-0.51,1.1-1.49,1.46-2.55,1.73c-1.19,0.3-2.08,1.13-3.09,1.75 c-0.64,0.39-1.29,0.51-2.04,0.45c-1.11-0.09-2.23-0.11-3.34-0.06c-1.25,0.06-2.1-0.45-2.72-1.52c-0.68-1.16-1.48-2.2-1.99-3.5 c-0.74-1.89-0.3-3.75-0.43-5.61c-0.21-2.98,1.05-5.65,1.41-8.5c0.2-1.54,0.85-3.07,1.54-4.49c1.1-2.26,1.7-4.68,2.65-6.98 c0.36-0.87,0.71-1.75,1.06-2.62c-0.89-0.02-1.79,0.06-2.66-0.07c-1.25-0.18-2.49,0-3.74-0.09c-3.28-0.24-6.67-0.22-9.74-1.2 c-2.37-0.75-5.17-1.56-6.49-4.25c-0.19-0.38-0.51-0.72-0.96-0.86c0.52,1.19,0.65,1.49-0.06,1.81c-0.24,0.11-0.57,0.22-1.01,0.36 c-0.56,0.18-1.05,0.48-1.57,0.77c-1.57,0.89-3.1,1.83-4.84,2.4c-1.17,0.39-2.48,0.5-3.43,1.41c-0.57,0.55-1.2,0.99-1.93,1.25 c-0.73,0.26-1.27,0.74-1.82,1.26c-0.75,0.71-1.42,1.43-2.66,1.39c-0.76-0.02-1.66,0.39-2.08,1.17c-0.61,1.12-1.47,1.78-2.63,2.35 c-2.45,1.2-4.62,2.89-6.62,4.76c-0.4,0.37-0.76,0.85-1.24,1.06c-4.04,1.73-6.38,5.46-9.51,8.24c-1.87,1.66-3.6,3.68-4.98,5.88 c-0.37,0.59-0.73,0.82-1.54,0.49c-0.92-0.38-1.99-0.44-3-0.57c-1.98-0.27-3.54,0.85-5.16,1.67c-1.84,0.93-3.63,2.11-5.5,2.84 c-2.23,0.87-3.97,2.27-5.82,3.6c0.68,0.32,1.4-0.04,2.11,0.15c0.6,0.17,1.01,0.48,1.25,1c0.27,0.59-0.26,0.91-0.6,1.16 c-2.29,1.7-4.07,4.01-6.38,5.66c-2.43,1.73-4.35,4.01-6.75,5.77c-1.66,1.22-2.87,3.04-4.37,4.5c-1.1,1.07-2.22,2.15-3.24,3.27 c-1.94,2.13-4.1,4.04-6,6.22c-1.79,2.06-3.48,4.2-5.18,6.32c-1.9,2.37-3.73,4.8-5.66,7.13c-2.6,3.13-4.93,6.43-6.84,9.96 c-1.79,3.3-3.71,6.52-5.56,9.78c-0.21,0.37-0.37,0.81-0.44,1.23c-0.15,0.87-0.58,1.52-1.45,1.69c-0.86,0.17-1.07-0.68-1.51-1.14 c-0.24,0.69-0.47,1.38-0.78,2.04c-0.11,0.22-0.22,0.44-0.35,0.65c-1.15,1.89-1.95,4.01-2.52,6.08c-0.57,2.04-1.45,3.95-2.01,5.98 c-0.47,1.7-1.18,3.35-1.51,5.08c-0.2,1.06-0.34,2.12-0.66,3.11c-0.1,0.31-0.23,0.61-0.38,0.91c-0.2,0.4-0.44,0.79-0.75,1.15 c-0.18,0.21-0.39,0.4-0.62,0.59l0,0c-0.06,0.22-0.01,0.4,0.1,0.57c0.04,0.06,0.08,0.11,0.12,0.17c0.94,1.15,0.89,1.59-0.3,2.53 c-0.23,0.18-0.41,0.34-0.41,0.64c0.08,2.19,0.31,4.36,0.81,6.47c0.2,0.84,0.45,1.68,0.75,2.51c0.15,0.41,0.31,0.82,0.49,1.23 c0.55,1.26,1.63,2.03,2.41,3.07c0.33,0.44,0.73,0.84,1.09,1.25c0.69-0.34,1.48-0.26,2.22-0.42c0.25-0.05,0.49-0.13,0.73-0.27 c0.56-0.32,0.98-0.99,1.76-0.87c2.84,0.42,4.92-1.52,7.23-2.53c1.62-0.71,3.41-1.55,4.62-3.1c0.28-0.36,0.79-0.52,1.28-0.56 c0.72-0.06,1.24-0.44,1.69-0.97c1.81-2.11,4.51-2.86,6.75-4.3c1.56-1,3.32-1.83,5.08-2.56c0.28-0.12,0.55-0.34,0.74-0.58 c0.83-1,1.61-2.05,3.14-1.9c0.1,0.01,0.22-0.09,0.3-0.17c1.68-1.7,4.19-2.28,5.64-4.28c0.27-0.38,0.75-0.51,1.16-0.53 c1.7-0.08,2.95-1.19,4.38-1.87c2.92-1.39,4.7-4.49,8.01-5.37c1.46-0.39,2.24-1.89,3.55-2.59c1.24-0.66,1.95-0.38,2.16,0.97 c0.09,0.61,0.31,1.12,0.68,1.6c1.54,2.06,2.78,4.28,4.92,5.94c1.75,1.36,3.19,3.21,5.05,4.48c1.1,0.75,0.85,1.14,0.06,1.77 c-2.66,2.15-4.68,4.94-7.24,7.17c-1.39,1.21-2.24,2.99-3.8,3.92c-1.88,1.12-3.11,2.85-4.57,4.33c-2.24,2.28-4.2,4.84-6.36,7.21 c-1.75,1.92-3.36,3.98-4.73,6.14c-1.39,2.18-2.9,4.33-4.06,6.66c-0.58,1.18-1.86,1.81-2.4,3c-1.26,2.76-3.53,5-4.13,8.1 c-0.3,1.58-0.99,3.21-0.51,4.76c0.33,1.05,0.12,1.68-0.42,2.42c2.7,2.24,5.68,3.94,9.12,4.8c2.03,0.51,4.08,0.83,6.15,1.14 c0.07,0.01,0.13,0.04,0.2,0.08c0.19,0.12,0.37,0.33,0.56,0.48c0.22-0.06,0.44-0.09,0.66-0.09c0.01,0,0.02,0,0.03,0 c0.23-0.01,0.46,0.01,0.7,0.02c0.47,0.03,0.93,0.05,1.38-0.11c2.2-0.48,4.05-1.74,5.95-2.83c1.2-0.69,2.21-1.69,3.33-2.52 c1.35-0.99,2.38-2.3,3.57-3.45c0.2-0.2,0.23-0.48,0.21-0.76c0.09-0.07,0.17-0.15,0.26-0.22c0.2-2.99,2.37-4.72,4.29-6.58 c2.38-2.3,5.39-3.74,8.04-5.67c3.18-2.32,6.53-4.41,9.73-6.7c1.74-1.24,3.19-2.9,5-4.02c3.74-2.32,6.71-5.55,10.06-8.32 c1.36-1.13,2.5-2.53,3.78-3.76c2.08-2,4.36-3.79,6.27-5.96c1.3-1.49,2.56-3.01,3.83-4.53c0.53-0.64,1.04-1.3,1.77-1.74 c0.46-0.28,0.9-0.47,1.4,0c0.48,0.46,0.38,0.93,0.14,1.41c-1.19,2.38-2.72,4.54-4.35,6.62c-1.56,1.99-3.1,4-4.73,5.93 c-1.78,2.1-3.67,4.11-5.51,6.17c-0.13,0.14-0.21,0.32-0.31,0.48c0,0,0,0,0,0c0.88-0.05,1.76-0.2,2.54-0.52 c0.53-0.22,1.02-0.51,1.43-0.92c0.14-0.14,0.28-0.3,0.4-0.47c1.88-2.6,4.91-3.43,7.38-5.08c0.92-0.61,1.73-1.52,2.82-1.83 c1.49-0.43,2.43-1.53,3.53-2.47c1.75-1.48,3.93-2.26,5.92-3.33c1.21-0.65,2.68-1.2,3.36-2.23c0.9-1.35,2.31-1.43,3.39-2.22 c0.93-0.68,2.07-0.46,3.1-0.65c1.47-0.27,2.36-1.54,3.73-1.92c1.55-0.43,2.77-1.4,3.95-2.45c0.3-0.27,0.55-0.7,1.05-0.67 c1.75,0.12,2.93-0.85,4.01-2.06c0.6-0.67,1.24-1.21,2.19-1.48c0.74-0.21,1.45-0.68,2.11-1.2c1.58-1.24,3.22-2.44,5.08-3.26 c1.02-0.45,1.7-1.12,2.28-2.07c0.6-0.98,1.4-1.85,2.47-2.41c1.79-0.93,3.68-1.68,5.3-2.91c0.78-0.59,1.47-1.34,2.32-1.78 c1.01-0.53,1.88-1.21,2.79-1.87c1.31-0.94,2.15-2.4,3.44-3.27c2.26-1.52,4.48-3.05,6.34-5.06c0.13-0.14,0.28-0.32,0.44-0.36 c1.22-0.33,1.9-1.3,2.71-2.15c0.83-0.87,1.53-2.07,2.88-2.17c0.93-0.07,1.79-0.31,2.67-0.55c1.51-0.41,3-0.85,4.58-0.97 c1.33-0.1,2.94,0,3.89-0.71c1.67-1.24,3.58-2.29,4.82-4.06c0.39-0.55,0.68-1.19,1.33-1.46c1.38-0.59,2.31-1.63,3.15-2.83 c1.24-1.79,2.89-3.25,4-5.15c0.58-1,1.02-2.14,1.97-2.86c1.56-1.18,2.03-3.21,3.53-4.43c0.07-0.06,0.08-0.22,0.09-0.34 c0.18-2.75,2.08-4.69,3.64-6.54c1.94-2.3,2.45-5.06,3.49-7.63c0.15-0.37,0.28-0.74,0.4-1.12 C287.44,156.06,287.72,154.87,288.16,153.75C288.16,153.75,288.16,153.75,288.16,153.75C288.16,153.75,288.16,153.75,288.16,153.75z M122.88,279.56c0,0-0.02,0.03-0.02,0.03C122.86,279.6,122.88,279.56,122.88,279.56z M134.18,184.1c-0.93,2.14-2.83,3.8-3.06,6.27 c-2.27,3.29-3.89,6.95-6.37,10.14c-1.87,2.42-4.23,4.23-6.36,6.33c-0.76,0.75-1.3-0.07-1.89-0.3c-0.58-0.23-0.6-0.74-0.42-1.31 c1.33-4.36,3.07-8.53,5.52-12.4c2.14-3.36,3.94-6.92,5.76-10.46c1.05-2.04,1.96-4.13,2.95-6.19c1.29-2.69,2.75-5.33,3.54-8.2 c0.87-3.19,2.16-6.29,2.61-9.57c0.28-2.04,0.76-4.05,0.61-6.19c-0.09-1.3-0.21-2.71,0-4.1c0.2-1.28-0.48-2.61-0.47-3.97 c0.01-0.99-0.08-1.98-0.16-2.96c-0.09-1.06,0.44-1.72,1.41-1.87c0.92-0.14,1.66,0.3,2.16,1.15c1.59,2.71,2.13,5.71,2.45,8.76 c0.24,2.86,0.16,5.72,0.16,8.58c0,1.01-0.41,2-0.61,2.99c-0.59,2.81-1.08,5.64-2.02,8.38c-0.78,2.27-1.7,4.49-2.43,6.79 C136.67,178.77,135.35,181.41,134.18,184.1z M209.69,188.32c-0.41,0.42-0.81,0.84-1.63,0.57c-1.53-0.51-3.17-0.27-4.47,0.55 c-1.1,0.68-2.3,0.74-3.42,1.06c-2.97,0.83-5.96,1.5-8.82,2.76c-2.2,0.97-4.46,1.86-6.78,2.6c-1.19,0.38-2.51,0.65-3.45,1.65 c-0.08,0.08-0.19,0.17-0.3,0.19c-3.19,0.62-5.86,2.44-8.63,3.95c-1.83,0.99-3.81,1.68-5.53,2.84c-2.28,1.54-4.85,2.68-6.96,4.4 c-1.5,1.22-3.28,1.93-4.72,3.25c-1.08,0.99-2.4,1.87-3.6,2.76c-2.58,1.92-5.46,3.46-7.71,5.83c-0.72,0.77-1.66,1.3-2.24,2.25 c-0.46,0.76-1.25,0.52-1.95,0.31c-0.46-0.14-0.57-0.5-0.49-1.2c0.22-0.88,0.72-1.93,1.3-2.9c1.8-3.06,4.3-5.59,6.51-8.34 c2.16-2.68,5-4.48,7.75-6.4c2.78-1.94,5.81-3.51,8.64-5.34c4-2.6,8.48-4.06,12.58-6.35c2.89-1.62,6.18-2.19,9.06-3.8 c0.73-0.41,1.55-0.51,2.4-0.55c0.99-0.04,1.89-0.51,2.8-0.89c2.82-1.2,5.88-1.42,8.82-2.15c2.89-0.72,5.73-0.23,8.57,0.23 c0.8,0.13,1.6,0.49,2.11,1.22C209.87,187.27,210.18,187.83,209.69,188.32z M276.79,129.35c-0.51,1.54-0.73,3.25-0.57,4.95 c0.06,0.62,0.15,1.35-0.76,1.5c-0.93,0.15-1.76,0.04-2.11-1.02c-0.4-1.21-0.67-2.46-0.79-3.73c-0.15-1.7-0.78-3.34-0.6-5.45 c-0.26-2.59-0.45-5.58-1.98-8.25c-0.87-1.52-2.2-2.6-3.99-2.69c-2.16-0.11-4.35-0.18-6.32,1.06c-0.81,0.51-1.83,0.39-2.71,0.85 c-3.85,2.04-7.54,4.33-11.17,6.74c-3.26,2.17-6.26,4.67-9.15,7.28c-1.47,1.32-3.24,2.47-4.29,4.08c-1.44,2.21-3.67,3.69-4.91,6.08 c-0.72,1.39-2.03,2.48-2.72,3.98c-0.4,0.86-1.14,1.85-0.61,2.62c0.49,0.72,1.64,0.58,2.57,0.33c1.37-0.37,2.76,0.4,4.13-0.06 c2.12-0.71,4.4-0.61,6.52-1.13c2.09-0.51,4.16-0.99,6.29-1.08c1.12-0.05,2.29-0.44,3.38-0.01c1.8,0.71,2.59,2.29,2.22,4.38 c-0.4,2.23-1.03,4.38-1.9,6.5c-1.17,2.85-2.27,5.73-2.74,8.84c-0.21,1.39-1.07,2.71-1.34,4.16c-0.64,3.49-1.29,6.96-1.52,10.53 c-0.19,2.9,0.39,5.48,1.67,8c0.79,1.55,2.07,2.58,3.61,3.29c0.44,0.2,0.87,0.4,1.18,0.78c0.46,0.55,0.43,1.21,0.19,1.81 c-0.22,0.55-0.76,0.37-1.24,0.38c-3.59,0.04-6.43-1.65-8.9-3.99c-1.56-1.48-2.39-3.49-2.62-5.61c-0.48-4.52,0.16-8.99,0.93-13.44 c0.93-5.42,2.73-10.58,4.63-15.71c0.37-1,0.64-2.05,0.94-3.08c0.14-0.49,0.01-0.83-0.59-0.62c-1.87,0.67-3.82,1.06-5.78,1.25 c-1.9,0.18-3.72,0.75-5.65,0.92c-1.82,0.16-3.68,0.55-5.5,0.47c-2.96-0.14-5.56-1.21-7.13-3.99c-0.54-0.95-0.61-1.99-0.48-3.02 c0.38-2.95,1.68-5.52,3.51-7.83c0.74-0.93,1.37-1.94,2.06-2.9c1.33-1.83,3.17-3.22,4.32-5.21c0.74-1.27,2.22-1.85,3.11-3.06 c1.77-2.39,4.34-3.91,6.57-5.8c2.65-2.24,5.48-4.26,8.2-6.4c0.61-0.48,1.32-0.73,2-1.04c2.6-1.21,4.93-2.87,7.4-4.31 c1.24-0.72,2.68-0.68,4-1.09c2.04-0.64,4-1.47,6.2-1.59c0.93-0.05,1.71,0.26,2.53,0.43c1.31,0.27,2.83,0.13,3.87,1 c1.49,1.26,3.15,2.26,4.24,4.12c1.13,1.93,1.63,4,1.92,6.02C277.39,122.8,277.87,126.07,276.79,129.35z M440.72,53.3 c0.06-0.09,0.22-0.18,0.2-0.25c-0.38-2.06,0.38-4.03,0.6-6.03c0.12-1.1-0.08-2.27,0.47-3.33c0.13-0.26,0.17-0.66-0.06-0.92 c-0.89-1.01-0.02-1.6,0.56-2.17c0.41-0.4,0.99-0.65,1.51-0.93c1.74-0.96,3.07-2.42,4.54-3.71c2.12-1.86,3.94-4.01,5.24-6.43 c1.06-1.99,1.91-4.24,1.59-6.7c-0.09-0.67,0.44-1.41,0.19-2.18c-0.23-0.79-0.42-1.25-0.72-1.49c-0.07-0.06-0.15-0.11-0.24-0.14 c-0.26-0.1-0.6-0.09-1.06-0.01c-0.19,0.26-0.33,0.54-0.42,0.83s-0.16,0.58-0.2,0.89c-0.09,0.6-0.11,1.22-0.23,1.81 c-0.69,3.34-2.57,5.94-4.87,8.3c-1.49,1.53-3,3.09-4.85,4.12c-2.35,1.31-4.8,2.51-7.52,2.96c-2.12,0.35-4.23,0.58-6.38,0.52 c-0.56-0.02-0.73-0.15-0.96-0.71c-0.45-1.12-0.36-2.25-0.47-3.39c-0.76,1.32-0.17,2.89-0.84,4.26c-0.98,2.02-2.04,3.84-4.44,4.43 c-0.52,0.13-1,0.49-1.43,0.83c-2.69,2.05-5.69,3.6-8.63,5.22c-2.09,1.15-4.27,2.24-6.61,2.65c-2.88,0.5-5.8,0.18-8.72-0.2 c-4.31-0.56-8.14-2.29-11.8-4.44c-2.03-1.2-3.84-2.8-5.22-4.76c-0.67-0.95-1.88-1.4-2.3-2.5c-0.54-1.42-1.71-2.42-2.18-3.96 c-0.4-1.28-0.57-2.88-1.78-3.88l0,0c-0.73,0.53-1.09,1.28-1.4,2.06c-0.31,0.78-0.57,1.58-1.09,2.24c0.78,0.87,0.64,1.86,0.22,2.78 c-0.96,2.08-1.17,4.32-1.63,6.52c-0.37,1.81-0.78,3.65-0.92,5.44c-0.14,1.81-0.49,3.77,0.31,5.58c0.75,1.69,2.15,2.72,3.68,3.6 c0.57,0.32,1.01,0.76,1.47,1.19c0.5,0.47,0.26,0.95,0.03,1.41c-0.23,0.46-0.66,0.84-1.15,0.62c-2.05-0.92-4.52-0.7-6.3-2.27 c-1.71-1.52-3-3.24-3.19-5.72c-0.27-3.51,0.65-6.73,1.74-9.97c0.78-2.34,1.94-4.51,2.83-6.8c-2.13,0.37-4.29,0.35-6.44,0.47 c-1.29,0.08-2.58,0.21-3.84,0.51c0.53,0.26,1.1,0.1,1.65,0.18c0.86,0.13,1.6,0.5,1.63,1.43c0.03,0.94-0.59,1.48-1.53,1.68 c-3.08,0.63-6.2,1.14-9.24,1.96c-3.76,1.02-7.62,1.43-11.39,2.3c-1.73,0.4-3.58,0.2-5.22,1.21c-1.05,0.65-2.45,0.39-3.68,0.61 c-1.49,0.26-3.05,0.47-4.49,0.85c-2.65,0.71-5.45,0.71-8.02,1.86c-1.12,0.5-2.58,0.2-3.78,0.59c-2.49,0.82-5.1,1.12-7.61,1.85 c-4.53,1.32-9.09,2.59-13.66,3.75c-0.87,0.22-1.77-0.33-1.84-1.51c-0.62-0.18-1.07,0.2-1.53,0.49c-1.01,0.64-2.15,1.16-3.26,1.24 c-1.56,0.12-2.94,0.56-4.27,1.26c-0.62,0.32-1.2,0.69-1.84,0.98c-0.98,0.44-2.03,0.24-3.05,0.78c-1.46,0.77-2.93,1.66-4.62,1.94 c-3.08,0.51-6.15,1-8.62,3.16c-0.18,0.16-0.53,0.13-0.79,0.19c0.01,0.14,0.02,0.28,0.02,0.42c0.01,0.28,0.01,0.56,0.02,0.84 c0.04,0.69,0.21,1.35,0.96,1.81c0.26-0.1,0.51-0.17,0.75-0.23c1.23-0.26,2.32,0.05,3.24,0.73c0.37,0.27,0.71,0.61,1.02,0.99 c1.14,1.39,2.05,2.91,2.02,4.97c-0.03,1.94-0.8,3.45-1.64,5.02c1.58-0.09,3.03-0.76,4.58-0.97c0.27-0.04,0.53-0.18,0.8-0.2 c3.71-0.3,7.4-0.04,11.02,0.79c1.03,0.24,2,0.96,2.88,1.62c2.81,2.12,4.42,4.85,4.27,8.51c-0.07,1.53-0.54,2.78-1.45,4.02 c-0.85,1.16-1.96,2.15-2.54,3.53c-0.19,0.44-0.18,0.68,0.08,1.05c0.67,0.93,1.29,1.89,1.94,2.85c0.66-0.02,1.21,0.1,1.63,0.47 c0.25,0.22,0.45,0.52,0.59,0.93c0.31,0.88,1.25,1.29,1.64,2.15c1.11,2.43,2.24,4.86,3.5,7.22c1.27,2.37,2.08,4.92,2.72,7.48 c0.76,3.04,1.92,5.98,2.25,9.13c0.26,2.47,0.73,4.92,0.83,7.4c0.04,1.1-0.39,2.23-0.15,3.38c1.24-1.38,2.37-2.88,3.63-4.24 c0.76-0.82,1.56-1.59,2.45-2.27c1.26-0.95,2.58-1.85,3.97-2.68c1.57-0.93,3.36-1.91,4.13-3.84c0.12-0.31,0.44-0.62,0.81-0.64 c2.55-0.16,3.7-2.61,5.8-3.52c0.16-0.07,0.23-0.32,0.36-0.46c1.3-1.39,2.58-2.8,3.92-4.16c0.28-0.28,0.68-0.46,1.14-0.56 c1.62-0.36,3.05-1,3.94-2.58c0.68-1.2,1.94-1.91,3.05-2.55c1-0.58,1.98-1.16,2.93-1.83c1.78-1.25,3.56-2.54,5.1-4.06 c1.54-1.53,3.87-2.09,4.97-4.14c0.11-0.2,0.45-0.34,0.71-0.39c1.25-0.26,2.18-0.99,2.97-1.94c0.56-0.67,1.18-1.33,2-1.6 c2.31-0.76,3.65-2.87,5.72-3.96c1.3-0.69,1.65-2.3,3.17-3.08c1.83-0.93,3.7-2.14,5.05-3.86c0.21-0.27,0.59-0.4,0.88-0.6 c1.99-1.39,4.18-2.44,6.2-3.78c0.62-0.41,1.02-0.32,1.54,0.02c1.01,0.65,2.1,1.17,3.31,1.03c0.9-0.1,1.69,0.19,2.32,0.65 c2.34,1.72,5.01,2.14,7.8,2.28c1.26,0.06,2.56,0.11,3.76,0.46c0.82,0.24,1.5,0.27,2.29,0.07c1.04-0.27,2.09-0.29,3.15,0.07 c0.84,0.28,1.63,0.19,2.5-0.22c1.19-0.56,2.39-1.48,3.74-1.32c-0.55-0.22-0.96-0.66-1.08-1.25c-0.17-0.81,0.52-1.79,1.5-1.99 c3.33-0.65,6.47-1.79,9.4-3.52c1.15-0.68,2.36-1.22,3.74-1.39c1.27-0.16,2.3-1,3.35-1.65c0.84-0.52,1.61-1.12,2.55-1.46 c0.32-0.12,0.61-0.37,0.88-0.59c2.67-2.2,5.13-4.62,7.34-7.28c0.43-0.51,0.97-0.63,1.57-0.65c0.63-0.99,1.23-2.02,1.87-2.99 c1.58-2.42,2.25-5.28,3.93-7.63C440.18,55.96,439.7,54.98,440.72,53.3z M326.81,115.33c-0.18,0.76-0.7,1.23-1.48,1.39 c-2.01,0.41-4.56-0.91-5.32-2.84c-0.31-0.8-0.78-1.59-0.55-2.5c0.39-1.31-0.16-1.31-1.27-1.22c-1.27,0.1-2.59-0.17-3.65-1.05 c-3.52-2.94-3.09-4.89-2.02-8.59c0.42-1.45,1.21-2.75,2.15-3.95c0.46-0.58,1.02-1.01,1.72-0.65c0.74,0.37,0.71,1.11,0.37,1.77 c-0.64,1.25-0.93,2.63-1.26,3.96c-0.7,2.79,0.21,4.26,3.43,3.85c0.75-0.1,1.48-0.27,2.23-0.39c1.81-0.29,3.25,0.85,3.29,2.69 c0.02,1.11-0.09,2.22-0.23,3.32c-0.18,1.4,0.5,2.27,1.64,2.88C326.41,114.3,327,114.58,326.81,115.33z M342.11,101.06 c-0.15,0.56-0.65,0.63-1.14,0.66c-2.99,0.21-5.51-2.22-5.5-5.49c0.35-0.86-0.12-2,0.31-3.06c0.22-0.55-0.13-0.54-0.55-0.57 c-1.39-0.12-2.76-0.5-3.96-1.14c-2.23-1.18-2.83-3.71-2.14-5.84c0.52-1.6,1.41-3.04,2.56-4.25c0.58-0.61,1.53-1.33,2.27-0.64 c0.54,0.51,0.23,1.61-0.26,2.28c-0.65,0.9-0.86,1.96-1.26,2.93c-0.31,0.74-0.03,1.48,0.79,1.89c0.76,0.37,1.52,0.67,2.4,0.53 c1.86-0.3,3.21,0.55,4.26,2c0.33,0.45,0.32,0.91,0.16,1.46c-0.35,1.25-0.63,2.51-0.82,3.81c-0.26,1.76,0.57,2.75,1.83,3.63 c0.23,0.16,0.45,0.32,0.66,0.5C342.15,100.11,342.25,100.58,342.11,101.06z M360.33,92.55c-3.3,0.82-6.65-0.72-7.21-4.33 c-0.18-1.15,0.19-2.4,0.65-3.53c0.31-0.75,0.3-1.12-0.71-1.17c-1.66-0.09-3.25-0.64-4.81-1.18c-1.92-0.67-2.69-3.81-1.56-5.81 c1.31-2.31,3.1-4.2,5.03-5.98c0.14-0.13,0.31-0.26,0.48-0.35c0.7-0.38,1.48-0.91,2.12-0.04c0.62,0.83-0.02,1.66-0.58,2.07 c-1.75,1.29-2.37,3.2-3.1,5.06c-0.41,1.04,0.3,1.93,1.47,1.88c1.73-0.05,3.44,0.04,5.15,0.45c0.68,0.16,1.05,0.47,1.18,1.13 c0.21,1.05,0.13,2.11-0.02,3.13c-0.15,1.05-0.59,2.05-0.89,3.08c-0.45,1.58,0.03,2.38,1.63,2.78c0.35,0.09,0.7,0.15,1.05,0.2 c0.69,0.1,1.22,0.36,1.27,1.16C361.56,91.95,360.98,92.39,360.33,92.55z M406.54,62.7c-0.31,4.23-1.22,7.61-3.35,10.72 c-1.68,2.46-3.72,4.48-6.19,5.97c-1.25,0.75-2.89,1.07-4.48,0.76c-1.97-0.38-3.5-1.46-4.6-3.11c-1.31-1.95-1.65-4.12-1-6.37 c0.84-2.91,1.98-5.69,3.95-8.06c0.99-1.19,2.04-2.32,3.32-3.23c1.14-0.8,2.01-1.89,2.86-2.97c1.16-1.48,3.5-2.46,5.14-1.93 c1.92,0.62,4.09,2.87,3.79,4.68C405.75,60.55,406.78,61.84,406.54,62.7z M411.78,86.73c-1.18,0.67-2.36,0.87-3.72,0.16 c-0.13-0.07-0.26-0.1-0.39-0.15c0.12,0.01,0.24,0.01,0.37,0C409.29,86.65,410.53,86.67,411.78,86.73z M413.13,86.8 c0.11-0.03,0.23-0.05,0.34-0.08c0.01,0.08-0.02,0.17-0.1,0.23C413.25,87.03,413.18,86.9,413.13,86.8z" fill="#FC6"/></g><g id="change3_1"><path d="M302.36,144.31c-1.82-0.39-2-1.79-2.25-3.31c-0.35-2.1-0.93-4.17-1.57-6.21c-0.48-1.51-0.81-3.06-1.22-4.58 c-0.8-2.97-1.05-6.08-2.26-8.94c-0.36-0.86-0.31-1.81-0.6-2.66c-0.82-2.39-1.77-4.74-2.22-7.24c-0.34-1.85-1.3-3.48-1.78-5.28 c-0.1-0.38-0.26-0.73-0.5-1.06c-0.83-1.15-0.49-2.25,0.83-2.84c-0.64-0.95-1.27-1.91-1.94-2.85c-0.26-0.36-0.26-0.6-0.08-1.05 c0.58-1.38,1.69-2.37,2.54-3.53c0.91-1.24,1.39-2.48,1.45-4.02c0.16-3.66-1.46-6.39-4.27-8.51c-0.88-0.66-1.85-1.39-2.88-1.62 c-3.62-0.83-7.3-1.09-11.02-0.79c-0.27,0.02-0.53,0.17-0.8,0.2c-1.55,0.21-3,0.88-4.58,0.97c-2.1,0.73-2.68,0.23-2.78-1.95 c-0.09-1.94-0.66-3.82-1.29-5.66c-0.18-0.53-0.64-0.82-1.13-1c-1.36-0.51-1.56-1.17-0.64-2.32c0.15-0.19,0.3-0.37,0.45-0.55 c-0.75-0.46-0.92-1.12-0.96-1.81c-0.02-0.28-0.02-0.56-0.02-0.84c0-0.14-0.01-0.28-0.02-0.42c-0.64-2.01-0.26-4.28-1.47-6.13 c-0.72-1.09-1.02-2.26-0.93-3.54c0.02-0.28-0.23-0.39-0.33-0.58c-1.31-2.35-3.65-3.83-5.14-6.02c-0.12-0.18-0.33-0.33-0.53-0.43 c-1.95-0.98-3.98-1.42-6.15-0.93c0.68,1.04,0.57,1.66-0.38,2.26c-2.34,1.46-4.46,3.12-6.12,5.4c-0.7,0.95-1.57,1.86-2.37,2.77 c-1.84,2.09-2.8,4.73-4.49,6.91c-0.52,0.67-1.11,1.26-1.56,2.02c-0.74,1.23-0.18,2.57-0.72,3.74c1.02,0.62,1.6,1.84,2.67,2.34 c0.15,0.07,0.32,0.13,0.49,0.17c1.28,0.28,2.16,1.13,3.17,1.78c0.25,0.16,0.46,0.24,0.72,0.29c0.53,0.16,1.07,0.29,1.59,0.5 c2.39,0.95,4.71,2.21,7.44,1.38c0.57-0.17,0.65,0.2,0.51,0.71c-0.3,1.11-0.49,2.26-0.34,3.4c0.42,3.21,2.95,6.05,6.15,6.56 c1.92,0.31,3.96,0.98,5.88-0.21c0.4-0.25,0.69-0.18,0.63,0.39c-0.3,2.75-0.07,5.45,0.56,8.15c0.39,1.7,0.68,3.46,1.36,5.02 c1.32,3.01,5.79,6.41,10.06,4.7c0.54-0.22,1.16-0.23,1.75-0.32c0.73-0.11,1.15,0.23,1.23,0.94c0.3,2.52,1.85,4.6,2.38,7.06 c0.34,1.59,0.92,3.15,1.38,4.72c0.53,1.8,0.91,3.67,1.14,5.57c0.21,1.74,1.06,3.39,1.5,5.11c0.87,3.38,1.69,6.79,1.67,10.32 c-0.02,3.26,1.12,6.38,1.05,9.67c-0.01,0.39,0.03,0.78,0.12,1.15c0.28,1.12,1.03,2.09,2.41,2.47c0,0,0,0,0,0 c0.55,0.05,1.05,0.02,1.55-0.09c0.5-0.11,0.99-0.31,1.51-0.58c0.76-0.41,1.58-0.87,2.4-1.24c1-0.45,2.08-0.74,2.89-1.63 c0.5-0.54,1.24-1.01,1.94-1.17c2.57-0.58,3.94-1.98,4.11-4.45C302.5,144.49,302.44,144.33,302.36,144.31z M250.22,57.07 c1.12-0.77,3.05,0.12,3.32,1.44c0.24,1.18,1.2,2.2,0.92,3.12c-0.16,1.33,0.21,2.43-1.05,2.93c-0.34,0.13-0.15,0.48-0.13,0.75 c0.04,0.46,0.31,0.91,0.08,1.4c-0.17,0.36,0.03,0.95-0.59,1.04c-0.61,0.08-1.12-0.18-1.4-0.71c-0.74-1.37-1.28-2.79-1.64-4.35 c-0.29-1.23-0.14-2.48-0.48-3.62C248.89,57.93,249.6,57.5,250.22,57.07z M247.31,71.23c-1.33-0.64-2.06-1.88-2.97-2.92 c-0.75-0.86-1.35-1.86-1.99-2.81c-0.31-0.45-0.42-0.96-0.16-1.47c0.17-0.33,0.47-0.54,0.97-0.51c0.43,0.1,0.83,0.43,1.22,0.76 c1.8,1.52,3.34,3.29,4.74,5.18c0.34,0.45,0.83,0.9,0.23,1.55C248.7,71.72,248.06,71.59,247.31,71.23z M260.7,70.37 c-0.94,1.12-2.36,1.34-3.55,1.79c-1.35,0.51-2.19,1.49-3.22,2.3c-1.04,0.82-2.15,1.6-2.46,3.06c-0.12,0.55-0.63,0.84-1.21,0.72 c-0.66-0.14-0.84-0.66-0.8-1.5c0.05-0.21,0.1-0.66,0.29-1.04c1.51-3.12,3.58-5.75,6.91-7.03c1.18-0.45,2.5-1.03,3.82-0.11 C261.29,69.13,261.32,69.63,260.7,70.37z M272.97,95.29c-0.25,0.55-0.76,0.65-1.15,0.71c-0.96,0.01-3.07-1.84-3.44-2.99 c-0.51-1.54-0.94-3.11-1.43-4.66c-0.23-0.72-0.05-1.41-0.04-2.12c0.01-0.6,0.32-1.08,0.85-1.12c0.56-0.05,0.93,0.45,1.02,1 c0.17,1.02,0.4,2.01,0.95,2.91c1.02,1.67,1.22,3.82,2.98,5.07C273.02,94.33,273.18,94.81,272.97,95.29z M273.88,85.49 c-0.57-0.2-1.14-0.5-1.75-0.63c-0.71-0.15-1.02-0.56-0.91-1.28c0.11-0.68,0.65-1.04,1.19-0.92c2.41,0.55,5,0.42,7.23,1.74 c0.54,0.32,1.19,0.52,1.11,1.36c-0.08,0.83-0.87,0.71-1.32,0.99c-0.3,0.19-0.77,0.12-1.18,0.18C276.68,86.84,275.32,86,273.88,85.49 z M283.57,102.43c-1.44,0.74-2.88,1.57-4.22,2.51c-0.34,0.24-0.68,0.4-1.16,0.38c-0.33-0.04-0.77-0.01-0.93-0.48 c-0.18-0.5,0-0.91,0.36-1.3c1.11-1.2,2.47-2.11,3.72-3.15c0.75-0.62,1.47-1.29,2.22-1.9c0.82-0.67,1.78-0.8,2.65-1.21 c0.67-0.32,1.49,0.42,1.48,1.23c0,0.46-0.15,0.95-0.51,1.16C285.86,100.46,284.97,101.71,283.57,102.43z M373.68,31.97 c-0.04-0.16-0.05-0.32-0.04-0.47c0.01-0.45,0.18-0.84,0.4-1.21c0.29-0.5,0.66-0.97,0.84-1.5c0.84-2.38,2.6-4.28,3.75-6.48 c0.57-1.08,1.44-1.95,1.9-3.18c0.39-1.03,1.2-2.36,2.45-3.01c0.09-0.05,0.2-0.14,0.22-0.23c0.39-1.65,1.69-2.78,2.57-4.11 c0.23-0.35,0.45-0.76,0.68-1.15c0.23-0.39,0.49-0.78,0.82-1.1c0.22-0.22,0.47-0.4,0.76-0.54c-0.9,2.34-1.21,4.76-0.79,7.24 c0.51,3.06,1.45,6,2.57,8.89c0.96,2.48,2.19,4.82,3.79,6.93c1.93,2.53,4.49,3.94,7.74,3.97c0.41,0,0.81-0.07,1.06,0.51 c0.68,1.59,1.28,1.78,2.83,0.97c2.25-1.17,4.22-2.76,6.25-4.26c2.16-1.6,3.58-3.88,5.49-5.7c0.76-0.72,0.82-1.96,1.6-2.42 c1.49-0.88,1.82-2.5,2.71-3.72c1.35-1.87,2.42-3.98,3.36-6.1c0.73-1.66,2.21-3.04,2.09-5.05c0-0.36-0.03-0.71,0-1.07 c0.15-1.7-0.3-3.1-1.84-4.06c-0.56-0.35-1.01-0.87-1.51-1.32c0.41,0.01,0.81,0.05,1.19,0.13c1.15,0.23,2.15,0.78,2.94,1.77 c0.06,0.18,0.14,0.35,0.23,0.51c0.28,0.47,0.68,0.83,1.15,1.14c-0.01,0.02-0.01,0.03-0.02,0.05c-0.11,0.2-0.17,0.4-0.19,0.6 c-0.01,0.11-0.01,0.22,0,0.33c0.04,0.55,0.25,1.1,0.14,1.65c-1.39,1.19-1.71,2.67-1.37,4.07c0.2,0.84,0.64,1.65,1.22,2.35 c-0.02,0.34-0.08,0.69-0.16,1.03c-0.23,1.03-0.6,2.06-0.45,3.01c0.38,2.49-0.05,4.94-0.06,7.39c-0.01,2.14-0.46,4.32-0.37,6.51 c-0.76,1.32-0.17,2.89-0.84,4.26c-0.98,2.02-2.04,3.84-4.44,4.43c-0.52,0.13-1,0.49-1.43,0.83c-2.69,2.05-5.69,3.6-8.63,5.22 c-2.09,1.15-4.27,2.24-6.61,2.65c-2.88,0.5-5.8,0.18-8.72-0.2c-4.31-0.56-8.14-2.29-11.8-4.44c-2.03-1.2-3.84-2.8-5.22-4.76 c-0.67-0.95-1.88-1.4-2.3-2.5c-0.54-1.42-1.71-2.42-2.18-3.96C375.06,34.57,374.89,32.97,373.68,31.97z M56.99,245.97 c-0.78-1.04-1.86-1.8-2.41-3.07c-0.18-0.41-0.34-0.82-0.49-1.23c-0.3-0.83-0.55-1.66-0.75-2.51c-0.5-2.11-0.72-4.27-0.81-6.47 c-0.91,0.89-1.55,2.01-2.32,3.03c-0.46,0.61-0.96,1.19-1.59,1.66c-0.08,0.06-0.15,0.14-0.21,0.24c-0.17,0.28-0.26,0.68-0.41,1 c1.06,0.04,1.47,0.05,1.53,0.46c0.04,0.24-0.05,0.63-0.2,1.25c-0.3,1.25,0.15,2.28,0.89,3.19c0.83,1.01,1.74,1.96,2.93,2.58 c0.62,0.33,0.79,0.97,0.71,1.53c-0.1,0.61-0.72,0.75-1.31,0.8c-2.01,0.15-4.12-1.19-4.95-3.07c-0.72-1.63-1.15-3.29-0.98-5.08 c-1.35,1.52-2.7,3.03-4.06,4.55c0.41,0.27,0.68,0.58,0.87,0.96c0.19,0.37,0.3,0.8,0.38,1.31c0.36,2.29,1.6,4.1,3.83,5.06 c0.62,0.27,1.24,0.53,1.85,0.83c0.31,0.15,0.68,0.28,0.55,0.78c-0.1,0.41-0.26,0.72-0.71,0.86c-1.5,0.49-2.81-0.02-4.05-0.79 c-2.77-1.72-3.88-4.28-3.7-7.47c0.01-0.2-0.04-0.39-0.07-0.59c0,0,0,0,0,0l0,0c-1.17,1.35-2.46,2.57-3.71,3.85 c-0.75,0.77-1.49,1.56-2.16,2.41c-0.97,1.23-1.62,1.35-2.86,0.44c-0.44-0.33-0.84,0.39-1.17-0.1c-0.83,1.24-1.67,2.47-2.5,3.71 c0.4,1.77,0.36,2.28-1.49,3.46c-2.46,1.56-4.68,3.49-6.84,5.5c-1.35,1.25-2.81,2.46-4.03,3.79c-1.41,1.54-3.41,2.46-4.44,4.35 c-0.21,0.39-0.82,0.38-0.91,1.07c1.36-0.28,2.39-1.07,3.46-1.72c2.57-1.56,5.3-2.77,8.02-4c1.52-0.69,2.75-1.87,4.34-2.45 c0.91-0.33,1.8-0.88,2.57,0.13c0.78,1.01,0.2,1.95-0.45,2.68c-0.89,1-2,1.8-3.03,2.66c-1.36,1.14-2.61,2.36-3.87,3.59 c-0.28,0.28-0.61,0.52-1.02,0.59c0,0,0,0,0,0c-0.27,0.56-0.61,1.05-0.99,1.52c-0.38,0.47-0.8,0.9-1.25,1.34 c-1.08,1.07-1.67,2.56-2.59,3.78c-1.61,2.15-3.1,4.38-4.42,6.71c-0.89,1.58-1.6,3.27-2.53,4.83c-0.75,1.27-0.91,2.66-0.34,3.84 c0.72,1.49,1.99,2.63,3.84,2.75c-0.38-0.69-0.2-1.29,0.29-1.85c2.19-2.48,3.82-5.31,5.43-8.2c1.47-2.64,3.35-5.07,5.19-7.49 c0.94-1.23,1.62-2.61,2.56-3.84c1.11-1.43,2.79-1.76,4.33-2.22c1.12-0.33,1.73,0.43,1.79,1.63c0.11,2.23-0.73,4.1-2.04,5.86 c-0.77,1.04-1.33,2.24-1.99,3.38c-0.09,1.45-0.89,2.69-1.27,4.06c-0.35,1.27-1.05,2.43-1.2,3.79c-0.08,0.71-0.32,1.46-0.67,2.08 c-0.92,1.6-1.01,3.07,0.29,4.5c0.15,0.17,0.33,0.34,0.39,0.55c0.4,1.2,1.46,1.61,2.44,2.12c1.83-4.58,3.57-9.18,6.2-13.42 c1.72-2.77,2.85-5.91,4.31-8.85c1.6-3.24,2.72-6.67,4.02-10.03c0.96-2.47,1.61-5.05,2.2-7.63c0.48-2.09,0.44-2.1,2.41-2.4 c0.04-0.19,0-0.39,0-0.59c0-0.1,0.01-0.2,0.03-0.29c0.03-0.09,0.07-0.18,0.16-0.25c1.13-1.08,1.31-2.92,2.92-3.64 c0.28-0.12,0.45-0.53,0.65-0.82c0.69-1.01,1.2-2.25,2.11-2.98c0.94-0.75,1.41-1.59,1.7-2.65c0.05-0.18,0.12-0.33,0.28-0.48 c0.27-0.25,0.52-0.52,0.75-0.8c0.68-0.84,1.17-1.82,1.63-2.81C57.71,246.8,57.32,246.41,56.99,245.97z M43.44,264.2 c-2.37,0.35-6.04-3.18-6.52-5.36c-0.16-0.73-0.16-1.61,0.56-1.89c0.78-0.3,1.3,0.46,1.6,1.12c0.94,2.1,2.41,3.6,4.69,4.16 c0.78,0.19,1.24,0.54,1.13,1.37C44.76,264.64,44.01,264.25,43.44,264.2z M71.86,340.04c-0.17,0.09-0.46,0.14-0.51,0.27 c-0.82,2.45-2.67,4.27-3.93,6.45c-0.44,0.77-1.29,1.1-1.85,1.82c-0.94,1.19-1.66,2.54-2.8,3.62c-0.77,0.73-1.26,1.8-2.12,2.52 c-0.05,0.04-0.1,0.09-0.16,0.13c-0.16,0.13-0.32,0.23-0.53,0.23c0.19-0.43,0.33-0.9,0.57-1.3c1.54-2.47,2.8-5.09,4.17-7.65 c0.77-1.45,1.07-3.08,1.91-4.47c1.33-2.21,2.17-4.64,3.07-7.02c0.83-2.19,1.93-4.26,2.94-6.33c0.91-1.87,1.81-3.84,3.14-5.52 c0.16-0.2,0.19-0.51,0.27-0.77c0.18-0.62,0.2-1.22-0.52-1.5c-0.71-0.27-1.47-0.8-2.13,0.13c-0.23,0.32-0.54,0.59-0.76,0.92 c-1.02,1.51-2.58,2.57-3.49,4.17c-0.52,0.03-0.93,0.37-1.14,0.75c-1.01,1.79-2.55,3.02-4.18,4.18c-1.07,0.76-1.84,1.84-2.62,2.87 c-0.71,0.94-1.29,1.91-2.33,2.63c-1.58,1.09-2.97,2.45-4.01,4.13c-0.34,0.55-1.08,0.83-1.58,1.31c-2.02,1.93-4.44,3.4-6.38,5.41 c-0.17,0.18-0.34,0.26-0.52,0.29c-0.17,0.03-0.35,0.02-0.54,0.02c0.08-0.77,0.37-1.44,0.88-2.04c1.19-1.41,2.44-2.78,3.52-4.28 c1.71-2.37,3.83-4.39,5.44-6.86c1.17-1.8,3.08-3.09,3.84-5.22c0.09-0.24,0.31-0.48,0.53-0.63c1.16-0.76,1.55-2.09,2.33-3.13 c0.39-0.52,0.4-1.28,0.07-1.82c-0.36-0.58-1.07-0.59-1.73-0.5c-1.07,0.15-1.84,0.9-2.77,1.32c-0.96-0.77-1.89-0.1-2.33,0.48 c-0.59,0.77-1.31,0.95-2.06,1.35c-2.16,1.16-4.55,1.73-6.69,2.95c-2.14,1.22-4.37,0.84-5.93-1.04c-0.08-0.1-0.15-0.2-0.19-0.29 c-0.14-0.29-0.14-0.56-0.12-0.88c1.27,1.43,2.62,1.48,3.94,0.15c0.22-0.22,0.47-0.46,0.76-0.57c2.68-1.1,4.41-3.51,6.86-4.99 c1.42-0.86,2.89-1.96,4.26-3.05c2.23-1.77,4.42-3.63,6.96-5c0.66-0.36,1.38-0.56,2-1.01c1.59-1.16,2.94-2.63,4.73-3.54 c0.8-0.4,1.48-1.06,2.31-1.45c0.39-0.18,0.63-0.43,0.75-0.85c0.4-1.33-0.16-1.94-2-2.15c0.33-0.99,1.44-1.03,2.09-1.78 c2.12-2.47,4.04-5.15,6.58-7.25c1.03-0.85,1.92-1.97,2.59-3.02c1.38-2.18,3.45-3.59,5.11-5.45c1.16-1.3,2.15-2.76,3.45-3.94 c2.7,2.24,5.68,3.94,9.12,4.8c2.03,0.51,4.08,0.83,6.15,1.14c0.07,0.01,0.13,0.04,0.2,0.08c0.19,0.12,0.37,0.33,0.56,0.48 c-2.76,2.35-5.83,4.23-9,5.96c-0.52-0.73-1.27-1.05-2.11-1.22c-0.54-0.11-1.23-0.07-1.6-0.39c-1.35-1.16-3.11-1.96-3.56-3.98 c-0.17-0.78-1.31-1.07-1.52-0.5c-0.25,0.68-0.66,1.43-0.36,2.18c0.72,1.8,1.88,3.25,3.42,4.44c0.48,0.37,0.99,0.58,1.52,0.71 c0.87,0.21,1.79,0.17,2.7,0.2c-0.36,0.45-0.75,0.88-1.16,1.28c-0.21,0.2-0.42,0.39-0.64,0.57c-0.22,0.18-0.45,0.36-0.7,0.52 c-0.65-0.24-1.31-0.33-1.99-0.16c-0.53,0.13-1.06-0.01-1.49-0.25c-0.92-0.5-1.79-1.11-2.69-1.66c-0.3-0.19-0.4-0.46-0.45-0.79 c-0.07-0.48-0.18-1.02-0.73-1.11c-0.56-0.09-0.97,0.35-1.29,0.73c-0.47,0.57-0.48,1.25-0.16,1.91c0.84,1.74,2.06,2.98,4.08,3.27 c0.29,0.04,0.57,0.12,0.86,0.21c0.28,0.09,0.57,0.19,0.85,0.27c-0.47,0.47-0.87,0.97-1.17,1.52c-0.31,0.55-0.52,1.16-0.62,1.87 c-0.1,0.75-0.19,1.67-0.8,2.31c-0.07-0.67-0.16-1.27-1.12-1.12c-2.63,0.4-4.26-0.57-5.43-3.1c-0.29-0.63-0.82-1.12-1.59-0.91 c-0.79,0.22-0.88,0.92-0.68,1.56c0.52,1.67,1.46,3.07,2.97,4c1.23,0.75,2.53,1.07,3.89,0.97c0.45-0.03,0.91-0.11,1.38-0.24 c-0.35,0.71-0.73,1.4-1.12,2.09c-1.17,2.06-2.47,4.05-3.46,6.21c-0.66,1.43-1.54,2.76-2.36,4.12c-1.33,2.2-2.85,4.29-3.99,6.58 c-1.67,3.33-3.09,6.78-4.57,10.2C72.03,338.33,71.43,339.09,71.86,340.04z M473.51,10.42c-0.96,0.43-1.89,1.04-2.66,1.69 c-0.9,0.77-1.99,1.17-2.89,2.01c-1.52,1.41-3.71,2.02-5.44,3.32c-0.49,0.37-1.12,0.9-1.74,1.03c-1.51,0.32-2.96,0.73-4.19,1.67 c-0.17,0.13-0.34,0.21-0.52,0.28s-0.35,0.14-0.52,0.23c0.25,0.76-0.28,1.5-0.19,2.18c0.32,2.46-0.53,4.71-1.59,6.7 c-1.29,2.42-3.12,4.57-5.24,6.43c-1.47,1.3-2.8,2.75-4.54,3.71c-0.52,0.29-1.1,0.53-1.51,0.93c-0.58,0.57-1.45,1.16-0.56,2.17 c0.23,0.26,0.2,0.66,0.06,0.92c-0.55,1.06-0.35,2.23-0.47,3.33c-0.22,2-0.98,3.96-0.6,6.03c0.01,0.07-0.15,0.16-0.2,0.25 c-1.02,1.68-0.54,2.66,1.42,2.91c0.35,0.04,0.35-0.37,0.63-0.46c1.6-0.54,2.97-1.5,4.37-2.44c0.81-0.55,1.48-1.29,2.47-1.61 c1.06-0.34,2.06-0.92,3.04-1.44c2.79-1.5,5.58-3.02,7.79-5.42c1.4-1.53,3.09-2.79,4.56-4.25c1.4-1.4,2.71-2.89,4.03-4.38 c0.7-0.79,1.39-1.6,1.96-2.49c0.78-1.2,1.45-2.47,2.14-3.72c0.58-1.05,1.5-1.95,1.78-3.14c0.27-1.13,0.95-2.04,1.41-3.05 c0.59-1.3,1.13-2.53,1.1-3.99c-0.03-1.65,0.63-3.21,0.64-4.9c0.01-0.87,0.16-1.7-0.17-2.55C477.27,10.78,475.05,9.73,473.51,10.42z M472.29,26.33c-0.28,0.81-0.6,1.65-1.21,2.37c-2.59,3.05-5.18,6.13-8.19,8.76c-2.13,1.86-4.19,3.81-6.46,5.54 c-2.01,1.54-4.23,2.74-6.25,4.25c-1.31,0.98-2.89,1.62-4.4,2.3c-0.64,0.29-1.34-0.15-1.67-0.65c-0.32-0.48,0.22-1.06,0.61-1.27 c2.71-1.45,4.74-3.84,7.47-5.27c0.61-0.32,1.22-0.92,1.61-1.48c1.27-1.8,3.22-2.79,4.77-4.25c1.74-1.65,3.68-3.09,5.46-4.71 c1.49-1.35,3.01-2.68,4.49-4.04c0.69-0.64,1.34-1.33,1.98-2.02c0.42-0.46,0.91-0.43,1.42-0.28 C472.24,25.7,472.35,25.96,472.29,26.33z M470.65,22.4c-0.63,0.71-1.21,1.47-1.84,2.14c-0.71,0.76-1.63,1.36-2.43,2.09 c-1.77,1.61-3.7,3.04-5.59,4.52c-1.49,1.17-3.03,2.29-4.51,3.49c-0.72,0.59-1.31,0.29-1.75-0.23c-0.5-0.6,0.15-0.91,0.48-1.33 c2.02-2.58,4.84-4.27,7.16-6.52c0.81-0.78,1.64-1.76,2.5-2.22c1.07-0.57,1.72-1.59,2.87-2.06c1.25-0.51,1.73-2,2.66-2.97 c0.54-0.55,1.02-0.84,1.76-0.49c0.3,0.14,0.4,0.35,0.42,0.75C472.01,20.56,471.41,21.54,470.65,22.4z M368.27,38.64 c0.36-0.54,0.6-1.24,1-1.75c0.39-0.51,0.94-0.83,1.92-0.62c0.78,0.87,0.64,1.86,0.22,2.78c-0.96,2.08-1.17,4.32-1.63,6.52 c-0.37,1.81-0.78,3.65-0.92,5.44c-0.14,1.81-0.49,3.77,0.31,5.58c0.75,1.69,2.15,2.72,3.68,3.6c0.57,0.32,1.01,0.76,1.47,1.19 c0.5,0.47,0.26,0.95,0.03,1.41c-0.23,0.46-0.66,0.84-1.15,0.62c-2.05-0.92-4.52-0.7-6.3-2.27c-1.71-1.52-3-3.24-3.19-5.72 c-0.27-3.51,0.65-6.73,1.74-9.97C366.22,43.1,367.38,40.93,368.27,38.64z M388.47,8.49c0.16-0.29,0.32-0.57,0.49-0.85 c0.46-0.75,1.02-1.42,1.88-1.81c-0.22,1.06-0.45,2.12-0.67,3.17C389.7,8.52,389.06,8.59,388.47,8.49z" fill="#EA522F"/></g><g id="change1_2"><path d="M177.95,97.29c-0.05-0.19-0.08-0.39-0.09-0.59c-0.08-1.33-0.05-2.67-0.06-4c0.53-0.73,0.62-1.69,1.33-2.36 c0.5-0.48,0.93-0.73,1.56-0.38c0.64,0.35,1.13,0.82,0.8,1.63c-0.64,1.6-0.09,2.95,1.07,3.96c0.74,0.64,1.76,1.01,2.72,1.34 c1.61,0.57,3.29,0.83,4.99,0.98c5.67,0.5,11.34,0.47,17-0.17c1.31-0.15,3.09,1.35,3.45,2.93c0.22,0.96-0.01,1.82-0.29,2.76 c-0.66,2.3-2.18,4.21-2.72,6.56c-0.23,0.99-1.04,1.83-1.39,2.86c-1.11,3.29-2.5,6.49-3.37,9.84c-0.6,2.29-1.16,4.68-0.83,7.14 c0.2,1.52,0.6,1.72,2.01,1.19c4.06-1.52,7.19-4.41,10.05-7.41c3.15-3.31,6.12-6.84,8.92-10.49c2.44-3.18,4.99-6.27,7.51-9.39 c0.4-0.49,0.86-0.93,1.34-1.35c1.78-1.53,2.62-3.67,3.57-5.71c0.66-1.41,1.69-2.61,2.15-4.11c0.73-2.37,1.17-4.76,0.92-7.26 c-0.14-1.43-0.99-2.28-2.2-2.88c-0.63-0.31-1.5-0.58-1.16-1.51c0.31-0.85,1.12-1.27,2.04-1.13c1.65,0.26,2.93,1.15,3.92,2.48 c0.97,1.29,1.59,2.73,1.66,4.35c0.04,0.86,0.58,1.57,0.61,2.41c0.06,1.78-0.35,3.45-1.04,5.09c-0.52,1.24-0.67,2.69-1.66,3.65 c-2.04,1.99-2.79,4.76-4.37,7.03c-1,1.44-1.72,3.11-2.6,4.67c-1.52,2.67-3.67,4.83-5.58,7.18c-0.75,0.92-1.57,1.83-2.06,2.89 c-0.95,2.06-2.7,3.41-4.04,5.12c-1.36,1.74-2.98,3.24-4.46,4.86c-0.45,0.49-1,0.93-1.58,1.25c-0.86,0.48-1.53,1.12-2.09,1.91 c-0.42,0.59-0.84,1.15-1.68,1.18c-0.21,0.01-0.53,0.16-0.61,0.33c-0.51,1.1-1.49,1.46-2.55,1.73c-1.19,0.3-2.08,1.13-3.09,1.75 c-0.64,0.39-1.29,0.51-2.04,0.45c-1.11-0.09-2.23-0.11-3.34-0.06c-1.25,0.06-2.1-0.45-2.72-1.52c-0.68-1.16-1.48-2.2-1.99-3.5 c-0.74-1.89-0.3-3.75-0.43-5.61c-0.21-2.98,1.05-5.65,1.41-8.5c0.2-1.54,0.85-3.07,1.54-4.49c1.1-2.26,1.7-4.68,2.65-6.98 c0.36-0.87,0.71-1.75,1.06-2.62c-0.89-0.02-1.79,0.06-2.66-0.07c-1.25-0.18-2.49,0-3.74-0.09c-3.28-0.24-6.67-0.22-9.74-1.2 c-2.37-0.75-5.17-1.56-6.49-4.25c-0.19-0.38-0.51-0.72-0.96-0.86C178.24,98.08,178.05,97.7,177.95,97.29z M390.84,5.84 c-0.22,1.06-0.45,2.11-0.67,3.17c0.21,0.36,0.29,0.74,0.18,1.14c-0.87,3.11-0.09,6.03,1.06,8.9c0.96,2.39,2.18,4.63,3.47,6.87 c1.45,2.52,3.33,4.55,5.54,6.35c0.75,0.61,1.69,0.66,2.56,0.84c0.73,0.15,1.27,0.33,1.39,1.37c1.45-1.7,2.67-3.27,4.04-4.68 c1.76-1.81,3.79-3.38,5.45-5.27c1.8-2.05,3.55-4.15,5.19-6.34c1.8-2.41,3.47-4.89,5.15-7.37c0.95-1.4,1.16-1.41,2.56-0.57 c0-0.36-0.03-0.71,0-1.07c0.15-1.7-0.3-3.1-1.84-4.06c-0.56-0.35-1.01-0.87-1.51-1.32c-2.38-0.3-4.65,0.53-7,0.6 c-0.01,0-0.03,0.01-0.04,0.03c-0.01,0.02-0.02,0.04-0.04,0.06c1.59-0.05,3.16,0.16,4.74,0.34c0.94,0.11,1.17,0.77,1.31,1.45 c0.15,0.69-0.46,0.95-1,1.11c-1.57,0.48-3.21,0.78-4.7,1.42c-1.65,0.71-3.45,0.98-5.03,1.98c-1.19,0.76-2.68,1.05-4.02,1.58 c-2.86,1.11-5.79,2.1-8.1,4.27c-0.74,0.7-1.92,0.96-2.33,0.37c-0.53-0.75-0.48-1.55,0.2-2.27c0.57-0.6,1.09-1.25,1.63-1.88 c-0.73-0.22-0.74-1-1.12-1.5c-0.77-1.01-1.76-2.1-1.92-3.27c-0.19-1.31-0.93-2.01-1.71-2.69c-0.15-0.13-0.31-0.25-0.47-0.35 C392.69,4.33,391.47,4.42,390.84,5.84z M64.12,204.35c0.87-0.18,1.3-0.82,1.45-1.69c0.07-0.42,0.23-0.86,0.44-1.23 c1.85-3.26,3.78-6.48,5.56-9.78c1.91-3.53,4.24-6.83,6.84-9.96c1.93-2.33,3.76-4.76,5.66-7.13c1.7-2.12,3.39-4.26,5.18-6.32 c1.9-2.18,4.06-4.09,6-6.22c1.02-1.12,2.14-2.2,3.24-3.27c1.5-1.46,2.71-3.28,4.37-4.5c2.4-1.76,4.33-4.04,6.75-5.77 c2.31-1.65,4.09-3.95,6.38-5.66c0.34-0.26,0.87-0.57,0.6-1.16c-0.24-0.52-0.65-0.84-1.25-1c-0.71-0.2-1.43,0.17-2.11-0.15 c-0.82,0.31-1.61,0.69-2.45,0.9c-3.16,0.81-5.52,3.01-8.03,4.85c-1.56,1.14-2.94,2.69-4.49,3.88c-1.82,1.4-3.52,2.83-4.92,4.63 c-1.19,1.54-2.73,2.77-3.96,4.24c-2.83,3.37-5.49,6.89-8.19,10.36c-2.18,2.81-4.4,5.6-6.38,8.57c-1.59,2.38-3.29,4.69-4.94,7.03 c-1.33,1.9-2.33,4.01-3.33,6.07c-1.07,2.22-2.14,4.5-2.75,6.92c-0.11,0.43-0.24,0.86-0.38,1.29c-0.41,1.28-0.86,2.56-0.82,3.95 C63.05,203.67,63.26,204.52,64.12,204.35z M162.86,252.19c1.84-2.05,3.72-4.07,5.51-6.17c1.64-1.93,3.17-3.94,4.73-5.93 c1.63-2.09,3.16-4.24,4.35-6.62c0.24-0.48,0.35-0.95-0.14-1.41c-0.5-0.48-0.94-0.28-1.4,0c-0.73,0.44-1.24,1.1-1.77,1.74 c-1.27,1.52-2.53,3.05-3.83,4.53c-1.91,2.18-4.2,3.96-6.27,5.96c-1.28,1.24-2.42,2.63-3.78,3.76c-3.35,2.77-6.31,6-10.06,8.32 c-1.8,1.12-3.26,2.78-5,4.02c-3.2,2.29-6.55,4.39-9.73,6.7c-2.65,1.93-5.66,3.37-8.04,5.67c-1.92,1.86-4.09,3.59-4.29,6.58 c1.16,0.34,2.31,0.51,3.32-0.38c0.34-0.3,0.76-0.33,1.11-0.51c0.72-0.36,1.66-0.17,2.2-0.86c1.08-1.37,2.87-1.69,4.11-2.88 c0.77-0.74,2.03-0.99,2.76-1.76c1.05-1.1,2.42-1.67,3.64-2.43c1.43-0.89,2.84-1.74,4.14-2.84c1.04-0.88,2.15-1.77,3.33-2.43 c1.38-0.77,2.57-1.77,3.65-2.82c1.16-1.13,2.41-2.13,3.65-3.14c0.65-0.53,1.29-1.06,1.93-1.6c1.92-1.61,3.79-3.27,5.57-5.03 C162.65,252.51,162.73,252.33,162.86,252.19z M427.76,6.2c0.28,0.47,0.68,0.83,1.15,1.14c1.58-1.13,3.2-2.19,5.12-2.68 c0.55-0.36,0.89-1.16,1.76-0.87c0.03-0.05,0.06-0.1,0.09-0.14c-0.01-0.01-0.02,0-0.03-0.02c0,0,0.09-0.07,0.09-0.07 c0.01,0.03,0.01,0.04,0.01,0.06c0.55-0.08,1.08-0.08,1.62-0.04c0.21,0.02,0.41,0.04,0.62,0.06c0.26,0.03,0.51,0.08,0.77,0.13 c0.28,0.05,0.56,0.11,0.83,0.18c0.43,0.1,0.86,0.21,1.3,0.31c1.59,0.37,2.39,1.89,3.87,2.33c1.36-1.06,1.15-0.99,0.62-2.46 c-0.32-0.9-1.11-1.12-1.49-1.77c-0.71-1.22-1.82-1.89-3.11-1.98c-1.13-0.08-2.24-0.26-3.36-0.35c-1.95-0.16-3.58,0.73-5.32,1.64 c-0.49,0.26-0.95,0.54-1.38,0.83c-1.3,0.9-2.37,1.97-3.38,3.19c0,0,0,0,0,0C427.59,5.87,427.67,6.04,427.76,6.2z M275.01,113.58 c-1.09-1.86-2.75-2.86-4.24-4.12c-1.04-0.87-2.56-0.73-3.87-1c-0.82-0.17-1.6-0.48-2.53-0.43c-2.2,0.11-4.17,0.95-6.2,1.59 c-1.32,0.41-2.75,0.37-4,1.09c-2.47,1.43-4.8,3.1-7.4,4.31c-0.68,0.32-1.39,0.56-2,1.04c-2.72,2.15-5.56,4.17-8.2,6.4 c-2.23,1.89-4.8,3.41-6.57,5.8c-0.89,1.2-2.37,1.78-3.11,3.06c-1.15,1.98-2.99,3.37-4.32,5.21c-0.69,0.96-1.33,1.96-2.06,2.9 c-1.82,2.31-3.13,4.87-3.51,7.83c-0.13,1.03-0.06,2.07,0.48,3.02c1.57,2.77,4.17,3.85,7.13,3.99c1.82,0.09,3.68-0.3,5.5-0.47 c1.93-0.17,3.74-0.74,5.65-0.92c1.96-0.19,3.91-0.58,5.78-1.25c0.6-0.21,0.73,0.13,0.59,0.62c-0.29,1.03-0.56,2.08-0.94,3.08 c-1.9,5.13-3.69,10.29-4.63,15.71c-0.77,4.46-1.41,8.92-0.93,13.44c0.23,2.13,1.06,4.13,2.62,5.61c2.47,2.34,5.31,4.02,8.9,3.99 c0.49-0.01,1.02,0.17,1.24-0.38c0.24-0.6,0.27-1.25-0.19-1.81c-0.31-0.38-0.74-0.57-1.18-0.78c-1.54-0.72-2.82-1.74-3.61-3.29 c-1.28-2.51-1.86-5.09-1.67-8c0.23-3.57,0.87-7.04,1.52-10.53c0.27-1.45,1.13-2.77,1.34-4.16c0.46-3.11,1.56-5.99,2.74-8.84 c0.87-2.12,1.5-4.27,1.9-6.5c0.38-2.09-0.42-3.67-2.22-4.38c-1.08-0.43-2.26-0.04-3.38,0.01c-2.12,0.09-4.2,0.58-6.29,1.08 c-2.12,0.51-4.4,0.42-6.52,1.13c-1.38,0.46-2.77-0.3-4.13,0.06c-0.93,0.25-2.08,0.39-2.57-0.33c-0.53-0.78,0.21-1.76,0.61-2.62 c0.69-1.5,2-2.59,2.72-3.98c1.24-2.39,3.47-3.87,4.91-6.08c1.04-1.61,2.82-2.76,4.29-4.08c2.89-2.61,5.9-5.11,9.15-7.28 c3.62-2.41,7.32-4.71,11.17-6.74c0.87-0.46,1.9-0.34,2.71-0.85c1.97-1.25,4.16-1.17,6.32-1.06c1.79,0.09,3.12,1.17,3.99,2.69 c1.52,2.66,1.72,5.66,1.98,8.25c-0.18,2.12,0.45,3.75,0.6,5.45c0.11,1.27,0.39,2.52,0.79,3.73c0.35,1.06,1.19,1.17,2.11,1.02 c0.9-0.15,0.81-0.88,0.76-1.5c-0.15-1.69,0.07-3.41,0.57-4.95c1.07-3.28,0.59-6.55,0.14-9.75 C276.64,117.58,276.14,115.51,275.01,113.58z M405.98,59.16c0.3-1.81-1.87-4.07-3.79-4.68c-1.64-0.53-3.98,0.45-5.14,1.93 c-0.84,1.08-1.72,2.17-2.86,2.97c-1.28,0.9-2.33,2.03-3.32,3.23c-1.97,2.37-3.11,5.15-3.95,8.06c-0.65,2.25-0.31,4.42,1,6.37 c1.1,1.64,2.62,2.73,4.6,3.11c1.59,0.31,3.23-0.01,4.48-0.76c2.48-1.49,4.51-3.51,6.19-5.97c2.13-3.11,3.04-6.48,3.35-10.72 C406.78,61.84,405.75,60.55,405.98,59.16z M360.24,89.94c-0.35-0.05-0.71-0.11-1.05-0.2c-1.6-0.4-2.08-1.2-1.63-2.78 c0.29-1.03,0.73-2.04,0.89-3.08c0.15-1.02,0.23-2.09,0.02-3.13c-0.13-0.66-0.5-0.97-1.18-1.13c-1.7-0.41-3.42-0.5-5.15-0.45 c-1.17,0.05-1.87-0.84-1.47-1.88c0.73-1.86,1.35-3.77,3.1-5.06c0.57-0.42,1.2-1.24,0.58-2.07c-0.65-0.87-1.42-0.34-2.12,0.04 c-0.17,0.09-0.33,0.22-0.48,0.35c-1.93,1.78-3.72,3.67-5.03,5.98c-1.13,2-0.36,5.14,1.56,5.81c1.56,0.54,3.14,1.09,4.81,1.18 c1.01,0.05,1.02,0.42,0.71,1.17c-0.47,1.13-0.83,2.38-0.65,3.53c0.56,3.6,3.9,5.15,7.21,4.33c0.64-0.16,1.23-0.59,1.17-1.45 C361.45,90.29,360.93,90.04,360.24,89.94z M325.87,114.01c-1.14-0.62-1.82-1.48-1.64-2.88c0.14-1.1,0.25-2.22,0.23-3.32 c-0.04-1.84-1.48-2.97-3.29-2.69c-0.74,0.12-1.48,0.29-2.23,0.39c-3.22,0.41-4.12-1.06-3.43-3.85c0.33-1.33,0.62-2.71,1.26-3.96 c0.34-0.66,0.37-1.4-0.37-1.77c-0.7-0.35-1.27,0.07-1.72,0.65c-0.94,1.2-1.73,2.5-2.15,3.95c-1.07,3.7-1.5,5.65,2.02,8.59 c1.06,0.88,2.38,1.15,3.65,1.05c1.11-0.09,1.66-0.09,1.27,1.22c-0.22,0.9,0.24,1.7,0.55,2.5c0.75,1.92,3.3,3.25,5.32,2.84 c0.78-0.16,1.3-0.63,1.48-1.39C327,114.58,326.41,114.3,325.87,114.01z M341.08,99.26c-1.26-0.88-2.09-1.87-1.83-3.63 c0.19-1.3,0.47-2.56,0.82-3.81c0.15-0.55,0.17-1.01-0.16-1.46c-1.05-1.44-2.4-2.3-4.26-2c-0.88,0.14-1.64-0.16-2.4-0.53 c-0.83-0.41-1.1-1.15-0.79-1.89c0.4-0.98,0.61-2.04,1.26-2.93c0.49-0.67,0.8-1.78,0.26-2.28c-0.74-0.69-1.69,0.03-2.27,0.64 c-1.16,1.21-2.04,2.64-2.56,4.25c-0.69,2.13-0.1,4.67,2.14,5.84c1.21,0.64,2.57,1.02,3.96,1.14c0.42,0.04,0.77,0.03,0.55,0.57 c-0.43,1.06,0.05,2.2-0.31,3.06c-0.01,3.28,2.51,5.7,5.5,5.49c0.5-0.03,0.99-0.11,1.14-0.66c0.13-0.48,0.04-0.95-0.37-1.3 C341.53,99.58,341.3,99.42,341.08,99.26z M260.48,68.56c-1.32-0.92-2.64-0.34-3.82,0.11c-3.33,1.27-5.4,3.91-6.91,7.03 c-0.19,0.38-0.23,0.84-0.29,1.04c-0.03,0.84,0.14,1.36,0.8,1.5c0.58,0.12,1.09-0.17,1.21-0.72c0.31-1.46,1.42-2.24,2.46-3.06 c1.02-0.81,1.86-1.79,3.22-2.3c1.19-0.45,2.61-0.68,3.55-1.79C261.32,69.63,261.29,69.13,260.48,68.56z M249.72,62.7 c0.37,1.56,0.9,2.97,1.64,4.35c0.28,0.53,0.79,0.79,1.4,0.71c0.62-0.09,0.42-0.68,0.59-1.04c0.23-0.49-0.04-0.93-0.08-1.4 c-0.02-0.27-0.21-0.62,0.13-0.75c1.26-0.49,0.89-1.59,1.05-2.93c0.28-0.92-0.68-1.93-0.92-3.12c-0.27-1.32-2.2-2.21-3.32-1.44 c-0.62,0.43-1.33,0.86-0.98,2C249.58,60.22,249.43,61.46,249.72,62.7z M287.67,98.53c0.01-0.81-0.81-1.55-1.48-1.23 c-0.87,0.41-1.83,0.54-2.65,1.21c-0.75,0.61-1.47,1.28-2.22,1.9c-1.25,1.03-2.6,1.94-3.72,3.15c-0.36,0.39-0.54,0.8-0.36,1.3 c0.16,0.47,0.61,0.44,0.93,0.48c0.48,0.01,0.82-0.14,1.16-0.38c1.34-0.94,2.78-1.77,4.22-2.51c1.4-0.72,2.29-1.97,3.6-2.74 C287.52,99.48,287.67,98.99,287.67,98.53z M269.71,89.02c-0.55-0.9-0.78-1.89-0.95-2.91c-0.09-0.54-0.46-1.04-1.02-1 c-0.53,0.05-0.84,0.52-0.85,1.12c-0.01,0.71-0.19,1.4,0.04,2.12c0.5,1.55,0.93,3.11,1.43,4.66c0.38,1.15,2.48,3,3.44,2.99 c0.4-0.06,0.9-0.16,1.15-0.71c0.22-0.47,0.06-0.95-0.28-1.19C270.93,92.83,270.73,90.69,269.71,89.02z M249.12,69.47 c-1.4-1.89-2.94-3.66-4.74-5.18c-0.39-0.33-0.79-0.66-1.22-0.76c-0.5-0.03-0.8,0.18-0.97,0.51c-0.26,0.5-0.15,1.01,0.16,1.47 c0.65,0.95,1.24,1.95,1.99,2.81c0.91,1.04,1.64,2.28,2.97,2.92c0.74,0.36,1.39,0.49,2.04-0.21 C249.95,70.37,249.46,69.92,249.12,69.47z M279.43,86.77c0.46-0.29,1.25-0.16,1.32-0.99c0.08-0.84-0.57-1.04-1.11-1.36 c-2.23-1.33-4.81-1.19-7.23-1.74c-0.55-0.13-1.08,0.24-1.19,0.92c-0.12,0.72,0.19,1.12,0.91,1.28c0.61,0.13,1.18,0.43,1.75,0.63 c1.44,0.51,2.79,1.34,4.37,1.45C278.66,86.89,279.12,86.96,279.43,86.77z M46.6,240.28c-0.17,1.79,0.26,3.45,0.98,5.08 c0.83,1.88,2.94,3.22,4.95,3.07c0.59-0.05,1.21-0.19,1.31-0.8c0.09-0.56-0.09-1.21-0.71-1.53c-1.19-0.62-2.1-1.57-2.93-2.58 c-0.74-0.91-1.19-1.94-0.89-3.19c0.15-0.62,0.24-1,0.2-1.25c-0.06-0.41-0.47-0.42-1.53-0.46C47.5,239.15,46.6,239.33,46.6,240.28z M42.55,244.83c-0.18,0.14-0.37,0.29-0.55,0.43c-0.07,0.08-0.15,0.16-0.22,0.23c0,0-0.02,0.01-0.02,0.01 c-0.08,0.07-0.15,0.15-0.23,0.22c0,0-0.02,0.05-0.02,0.05c0.02,0.2,0.08,0.4,0.07,0.59c-0.18,3.19,0.93,5.75,3.7,7.47 c1.24,0.77,2.54,1.28,4.05,0.79c0.45-0.15,0.61-0.45,0.71-0.86c0.13-0.5-0.25-0.63-0.55-0.78c-0.61-0.29-1.23-0.56-1.85-0.83 c-2.23-0.96-3.47-2.77-3.83-5.06c-0.08-0.5-0.19-0.93-0.38-1.31C43.23,245.42,42.96,245.1,42.55,244.83z M43.76,262.24 c-2.27-0.56-3.74-2.05-4.69-4.16c-0.3-0.66-0.82-1.42-1.6-1.12c-0.72,0.27-0.72,1.16-0.56,1.89c0.48,2.18,4.15,5.72,6.52,5.36 c0.57,0.04,1.32,0.43,1.45-0.6C45,262.77,44.54,262.43,43.76,262.24z M95.94,294.06c-0.54-0.11-1.23-0.07-1.6-0.39 c-1.35-1.16-3.11-1.96-3.56-3.98c-0.17-0.78-1.31-1.07-1.52-0.5c-0.25,0.68-0.66,1.43-0.36,2.18c0.72,1.8,1.88,3.25,3.42,4.44 c0.48,0.37,0.99,0.58,1.52,0.71c0.87,0.21,1.79,0.17,2.7,0.2c0.5-0.48,1-0.96,1.5-1.44C97.53,294.55,96.78,294.23,95.94,294.06z M87.34,306.08c-2.63,0.4-4.26-0.57-5.43-3.1c-0.29-0.63-0.82-1.12-1.59-0.91c-0.79,0.22-0.88,0.92-0.68,1.56 c0.52,1.67,1.46,3.07,2.97,4c1.23,0.75,2.53,1.07,3.89,0.97c0.45-0.03,0.91-0.11,1.38-0.24h0c0.2-0.39,0.39-0.77,0.59-1.16 C88.39,306.53,88.3,305.93,87.34,306.08z M92.06,298.93c-0.53,0.13-1.06-0.01-1.49-0.25c-0.92-0.5-1.79-1.11-2.69-1.66 c-0.3-0.19-0.4-0.46-0.45-0.79c-0.07-0.48-0.18-1.02-0.73-1.11c-0.56-0.09-0.97,0.35-1.29,0.73c-0.47,0.57-0.48,1.25-0.16,1.91 c0.84,1.74,2.06,2.98,4.08,3.27c0.29,0.04,0.57,0.12,0.86,0.21s0.57,0.19,0.85,0.27c1.41-0.3,2.1-1.49,3-2.41 C93.4,298.85,92.74,298.76,92.06,298.93z M471.94,25.61c-0.51-0.16-1-0.18-1.42,0.28c-0.64,0.7-1.29,1.39-1.98,2.02 c-1.48,1.36-3.01,2.69-4.49,4.04c-1.79,1.62-3.72,3.06-5.46,4.71c-1.55,1.46-3.5,2.44-4.77,4.25c-0.4,0.56-1.01,1.17-1.61,1.48 c-2.73,1.43-4.76,3.82-7.47,5.27c-0.39,0.21-0.93,0.78-0.61,1.27c0.33,0.49,1.03,0.93,1.67,0.65c1.51-0.68,3.09-1.32,4.4-2.3 c2.02-1.52,4.23-2.72,6.25-4.25c2.27-1.73,4.33-3.68,6.46-5.54c3.01-2.63,5.6-5.71,8.19-8.76c0.61-0.72,0.93-1.56,1.21-2.37 C472.35,25.96,472.24,25.7,471.94,25.61z M471.98,18.82c-0.74-0.35-1.23-0.06-1.76,0.49c-0.93,0.97-1.41,2.46-2.66,2.97 c-1.15,0.47-1.8,1.49-2.87,2.06c-0.86,0.46-1.69,1.44-2.5,2.22c-2.32,2.24-5.14,3.94-7.16,6.52c-0.34,0.43-0.98,0.74-0.48,1.33 c0.44,0.52,1.02,0.82,1.75,0.23c1.47-1.2,3.01-2.31,4.51-3.49c1.88-1.48,3.82-2.91,5.59-4.52c0.8-0.73,1.72-1.33,2.43-2.09 c0.63-0.68,1.21-1.43,1.84-2.14c0.76-0.86,1.36-1.84,1.74-2.84C472.38,19.17,472.27,18.95,471.98,18.82z" fill="#FB825C"/></g><g id="change4_1"><path d="M21.42,275.72c-1.36,1.16-2.85,2.11-4.38,3c-1.53,0.89-3.1,1.71-4.61,2.64c-1.4,0.86-2.89,1.87-4.74,1.84 c-0.69-0.01-1.39,0.19-2.07,0.47c-1.16,0.48-4.57-0.57-4.96-1.56c-0.7-1.82-1.06-3.65,0.01-5.55c1.32-2.35,3.59-3.75,5.3-5.7 c1.09-1.25,2.4-2.39,3.77-3.15c2.16-1.21,3.97-2.86,6.1-4.08c1.04-0.59,1.88-1.52,2.86-2.23c1.29-0.94,2.55-1.94,3.95-2.69 c1.67-0.88,3.03-2.28,4.9-2.82c0.6-0.17,1.06-0.16,1.55,0.18c0.4,1.77,0.36,2.28-1.49,3.46c-2.46,1.56-4.68,3.49-6.84,5.5 c-1.35,1.25-2.81,2.46-4.03,3.79c-1.41,1.54-3.41,2.46-4.44,4.35c-0.21,0.39-0.82,0.38-0.91,1.07c1.36-0.28,2.39-1.07,3.46-1.72 c2.57-1.56,5.3-2.77,8.02-4c1.52-0.69,2.75-1.87,4.34-2.45c0.91-0.33,1.8-0.88,2.57,0.13c0.78,1.01,0.2,1.95-0.45,2.68 c-0.89,1-2,1.8-3.03,2.66c-1.36,1.14-2.61,2.36-3.87,3.59C22.16,275.41,21.83,275.65,21.42,275.72z M292.64,57.91 c4.58-1.16,9.13-2.43,13.66-3.75c2.51-0.73,5.11-1.03,7.61-1.85c1.2-0.39,2.66-0.09,3.78-0.59c2.57-1.15,5.37-1.16,8.02-1.86 c1.44-0.38,3-0.59,4.49-0.85c1.23-0.22,2.63,0.04,3.68-0.61c1.64-1.02,3.5-0.82,5.22-1.21c3.77-0.86,7.64-1.28,11.39-2.3 c3.03-0.82,6.15-1.33,9.24-1.96c0.95-0.19,1.56-0.74,1.53-1.68c-0.03-0.93-0.77-1.3-1.63-1.43c-0.55-0.08-1.12,0.08-1.65-0.18 c-2.19,0.07-4.39,0.07-6.58,0.21c-3.11,0.19-6.24,0.35-9.32,0.78c-1.38,0.19-2.79,0.5-4.17,0.7c-1.55,0.23-2.94,0.85-4.43,1.19 c-2.18,0.5-4.44,0.55-6.56,1.44c-1.46,0.62-3.16,0.66-4.68,1.17c-1.59,0.53-3.2,1-4.78,1.56c-2.17,0.76-4.44,1.34-6.67,1.93 c-3.77,1-7.4,2.37-11.06,3.66c-2.24,0.79-4.51,1.53-6.7,2.5c-0.92,0.41-1.86,0.56-2.22,1.64C290.87,57.58,291.77,58.13,292.64,57.91 z M108.44,289.25c-0.23-0.01-0.47-0.03-0.7-0.02c-0.01,0-0.02,0-0.03,0c-0.22,0.01-0.44,0.03-0.66,0.09c-2.76,2.35-5.83,4.23-9,5.96 c-0.5,0.48-1,0.96-1.5,1.44c-0.36,0.45-0.75,0.88-1.16,1.28c-0.21,0.2-0.42,0.39-0.64,0.57c-0.22,0.18-0.45,0.36-0.7,0.52 c-0.9,0.92-1.59,2.11-3,2.41c-0.47,0.47-0.87,0.97-1.17,1.52c-0.31,0.55-0.52,1.16-0.62,1.87c-0.1,0.75-0.19,1.67-0.8,2.31 c-0.2,0.39-0.39,0.77-0.59,1.16c-0.35,0.71-0.73,1.4-1.12,2.09c-1.17,2.06-2.47,4.05-3.46,6.21c-0.66,1.43-1.54,2.76-2.36,4.12 c-1.33,2.2-2.85,4.29-3.99,6.58c-1.67,3.33-3.09,6.78-4.57,10.2c-0.33,0.77-0.93,1.53-0.5,2.48c1.11,1.15,2.42,1.07,3.21-0.39 c0.89-1.66,1.93-3.27,3.09-4.76c1.53-1.97,3.24-3.81,4.34-6.05c0.62-1.25,1.87-1.95,2.45-3.14c0.98-2,2.31-3.79,3.33-5.76 c0.92-1.79,1.91-3.55,2.93-5.29c1.47-2.51,2.62-5.21,3.84-7.87c0.39-0.84,1.33-0.97,1.79-1.64c0.83-1.21,2.12-1.94,3.14-2.94 c1.67-1.63,3.15-3.43,4.76-5.09c1.43-1.48,2.52-3.22,3.75-4.86c0.69-0.92,1.64-1.74,1.33-3.1 C109.37,289.29,108.9,289.27,108.44,289.25z M387.25,16.23c0.51,3.06,1.45,6,2.57,8.89c0.96,2.48,2.19,4.82,3.79,6.93 c1.93,2.53,4.49,3.94,7.74,3.97c0.41,0,0.81-0.07,1.06,0.51c0.68,1.59,1.28,1.78,2.83,0.97c2.25-1.17,4.22-2.76,6.25-4.26 c2.16-1.6,3.58-3.88,5.49-5.7c0.76-0.72,0.82-1.96,1.6-2.42c1.49-0.88,1.82-2.5,2.71-3.72c1.35-1.87,2.42-3.98,3.36-6.1 c0.73-1.66,2.21-3.04,2.09-5.05c-1.39-0.84-1.61-0.83-2.56,0.57c-1.68,2.48-3.35,4.97-5.15,7.37c-1.64,2.19-3.39,4.3-5.19,6.34 c-1.66,1.89-3.69,3.46-5.45,5.27c-1.37,1.41-2.59,2.98-4.04,4.68c-0.12-1.03-0.66-1.22-1.39-1.37c-0.87-0.18-1.81-0.23-2.56-0.84 c-2.21-1.8-4.09-3.83-5.54-6.35c-1.29-2.24-2.51-4.48-3.47-6.87c-1.15-2.87-1.93-5.79-1.06-8.9c0.11-0.41,0.03-0.79-0.18-1.14 c-0.47-0.49-1.11-0.42-1.7-0.52c-0.03,0.03-0.05,0.07-0.08,0.1c-0.11,0.14-0.23,0.27-0.34,0.41 C387.15,11.34,386.84,13.75,387.25,16.23z M45.43,264.93c-0.59,2.58-1.25,5.16-2.2,7.63c-1.3,3.36-2.42,6.79-4.02,10.03 c-1.46,2.94-2.59,6.08-4.31,8.85c-2.63,4.24-4.37,8.84-6.2,13.42c0.88,2.18,1.7,1.96,3.39,1.16c0.75-0.35,1-1.06,1.53-1.56 c0.76-0.72,1.67-1.39,2.15-2.28c0.54-1,1.13-1.88,2-2.58c0.22-0.18,0.34-0.4,0.48-0.65c1.43-2.63,2.53-5.41,4.04-8 c0.8-1.38,1.55-2.91,1.94-4.45c0.37-1.46,1.05-2.8,1.37-4.28c0.2-0.94-0.05-2.02,0.41-2.78c1.32-2.15,1.05-4.65,1.73-6.94 c0.47-1.61,0.64-3.35,0.9-5.03c0.03-0.21,0.07-0.43,0.1-0.64c0.06-0.43,0.11-0.85,0.12-1.28c0.03-1.06-0.18-2.09-1.01-3.01 C45.87,262.83,45.9,262.84,45.43,264.93z M303.95,136.93c-0.1-2.47-0.57-4.93-0.83-7.4c-0.33-3.15-1.5-6.09-2.25-9.13 c-0.64-2.56-1.45-5.1-2.72-7.48c-1.26-2.36-2.39-4.79-3.5-7.22c-0.4-0.87-1.34-1.27-1.64-2.15c-0.14-0.41-0.34-0.71-0.59-0.93 c-0.41-0.36-0.97-0.49-1.63-0.47c-1.32,0.6-1.66,1.69-0.83,2.84c0.24,0.34,0.4,0.68,0.5,1.06c0.48,1.8,1.45,3.43,1.78,5.28 c0.45,2.5,1.4,4.85,2.22,7.24c0.29,0.86,0.24,1.8,0.6,2.66c1.2,2.87,1.46,5.97,2.26,8.94c0.41,1.53,0.74,3.08,1.22,4.58 c0.64,2.04,1.22,4.11,1.57,6.21c0.25,1.53,0.43,2.92,2.25,3.31c0.09,0.02,0.14,0.18,0.21,0.28c0.17-0.14,0.32-0.29,0.44-0.45 c0.25-0.31,0.4-0.65,0.51-1.01c0.05-0.18,0.09-0.36,0.12-0.54c0.11-0.74,0.08-1.52,0.17-2.27 C303.56,139.16,303.99,138.03,303.95,136.93z M44.56,326.89c0.22-0.22,0.47-0.46,0.76-0.57c2.68-1.1,4.41-3.51,6.86-4.99 c1.42-0.86,2.89-1.96,4.26-3.05c2.23-1.77,4.42-3.63,6.96-5c0.66-0.36,1.38-0.56,2-1.01c1.59-1.16,2.94-2.63,4.73-3.54 c0.8-0.4,1.48-1.06,2.31-1.45c0.39-0.18,0.63-0.43,0.75-0.85c0.4-1.33-0.16-1.94-2-2.15c-1.21,0.16-2.46,0.18-3.62,0.51 c-3.05,0.87-5.9,2.24-8.45,4.14c-4,2.98-8.5,5.27-12.08,8.82c-1.44,1.42-3.16,2.56-4.28,4.3c-0.35,0.55-0.76,1.07-1.13,1.61 c-0.25,0.36-0.48,0.73-0.65,1.12c-0.06,0.13-0.1,0.26-0.15,0.39c-0.03,0.07-0.06,0.14-0.08,0.21c-0.02,0.06-0.02,0.12-0.04,0.18 c-0.04,0.17-0.08,0.35-0.1,0.54c-0.02,0.21-0.03,0.42-0.01,0.64C41.89,328.17,43.25,328.21,44.56,326.89z M60.53,353.77 c1.54-2.47,2.8-5.09,4.17-7.65c0.77-1.45,1.07-3.08,1.91-4.47c1.33-2.21,2.17-4.64,3.07-7.02c0.83-2.19,1.93-4.26,2.94-6.33 c0.91-1.87,1.81-3.84,3.14-5.52c0.16-0.2,0.19-0.51,0.27-0.77c0.18-0.62,0.2-1.22-0.52-1.5c-0.71-0.27-1.47-0.8-2.13,0.13 c-0.23,0.32-0.54,0.59-0.76,0.92c-1.02,1.51-2.58,2.57-3.49,4.17c0.44,0.37,0.06,0.61-0.13,0.9c-2.07,3.13-3.94,6.39-5.69,9.71 c-1.37,2.6-2.84,5.16-4.01,7.85c-1.15,2.62-2.08,5.34-2.9,8.09c-0.35,1.17-0.83,2.29-1.25,3.44c-0.34,0.93-0.02,1.81,0.59,2.41 c0.55,0.54,1.27,0.19,1.93-0.22c0.28-0.17,0.52-0.37,0.73-0.59c0.64-0.66,1.06-1.48,1.56-2.25 C60.14,354.63,60.28,354.17,60.53,353.77z M427.42,74.75c-0.27,0.23-0.56,0.48-0.88,0.59c-0.94,0.34-1.72,0.94-2.55,1.46 c-1.05,0.65-2.08,1.49-3.35,1.65c-1.38,0.17-2.59,0.71-3.74,1.39c-2.93,1.72-6.07,2.86-9.4,3.52c-0.98,0.19-1.67,1.18-1.5,1.99 c0.12,0.59,0.53,1.04,1.08,1.25c0.18,0.07,0.38,0.12,0.59,0.14c0.12,0.01,0.24,0.01,0.37,0c1.25-0.1,2.5-0.07,3.74-0.01 c0.45,0.02,0.9,0.04,1.35,0.07c0.11-0.03,0.23-0.05,0.34-0.08c0.3-0.08,0.61-0.15,0.92-0.21c2.94-0.57,6-0.74,8.59-2.53 c0.54-0.37,1.2-0.72,1.84-0.79c3.11-0.31,4.67-3.02,7.06-4.43c0.43-1.72,2.1-2.59,2.79-4.25c0.68-1.61,1.71-3.16,2.41-4.79 c0.88-2.05,0.93-2.02-0.74-2.89c-0.6,0.02-1.14,0.14-1.57,0.65C432.55,70.13,430.09,72.55,427.42,74.75z M30.7,284.39 c1.3-1.76,2.14-3.63,2.04-5.86c-0.06-1.21-0.67-1.97-1.79-1.63c-1.54,0.46-3.22,0.79-4.33,2.22c-0.94,1.22-1.63,2.6-2.56,3.84 c-1.83,2.42-3.72,4.85-5.19,7.49c-1.61,2.89-3.23,5.72-5.43,8.2c-0.49,0.56-0.68,1.16-0.29,1.85c0.64,0.8,1.38,1.01,2.39,0.62 c0.69-0.27,1.2-0.72,1.69-1.21c1.87-1.84,3.69-3.73,5.65-5.48c1.9-1.69,4.03-3.19,4.96-5.75c0.1-0.26,0.28-0.57,0.56-0.76 c0.09-0.07,0.2-0.12,0.32-0.15C29.37,286.63,29.93,285.43,30.7,284.39z M46.71,345.29c1.19-1.41,2.44-2.78,3.52-4.28 c1.71-2.37,3.83-4.39,5.44-6.86c1.17-1.8,3.08-3.09,3.84-5.22c0.09-0.24,0.31-0.48,0.53-0.63c1.16-0.76,1.55-2.09,2.33-3.13 c0.39-0.52,0.4-1.28,0.07-1.82c-0.36-0.58-1.07-0.59-1.73-0.5c-1.07,0.15-1.84,0.9-2.77,1.32c-1.55,0.83-2.67,2.16-3.87,3.39 c-1.49,1.52-2.53,3.39-3.81,5.06c-3.1,4.03-5.67,8.34-7.58,13.04c-0.32,0.8-0.22,1.59,0.55,2.24c0.78,0.67,1.39,0.19,2.05-0.15 c0.2-0.11,0.37-0.28,0.56-0.43C45.91,346.56,46.2,345.89,46.71,345.29z M233.35,68.14c0.45-0.76,1.04-1.35,1.56-2.02 c1.69-2.18,2.65-4.82,4.49-6.91c0.8-0.91,1.67-1.81,2.37-2.77c1.66-2.28,3.78-3.94,6.12-5.4c0.95-0.6,1.06-1.22,0.38-2.26 c-1.4-0.78-2.67-0.27-3.9,0.43c-3.17,1.82-6.22,3.83-8.67,6.59c-1.78,2.01-4.08,3.61-5.06,6.27c-0.2,0.55-0.41,1.11-0.7,1.62 c-1.14,2.02-1.28,4.21-1.02,6.43c0.13,1.13,1.01,1.87,1.96,2.36c0.17,0.09,0.33,0.13,0.49,0.13c0.48,0.01,0.91-0.32,1.25-0.74 C233.17,70.71,232.61,69.37,233.35,68.14z M32.78,252.46c1.23,0.91,1.89,0.79,2.86-0.44c0.67-0.85,1.41-1.63,2.16-2.41 c1.25-1.28,2.54-2.5,3.71-3.85l0,0l0.02-0.05c0.08-0.07,0.15-0.15,0.23-0.22l0.02-0.01c0.07-0.08,0.15-0.16,0.22-0.23 c0.18-0.14,0.37-0.28,0.55-0.43c1.35-1.52,2.7-3.03,4.06-4.55c-0.01-0.95,0.9-1.13,1.4-1.66c0.15-0.32,0.24-0.72,0.41-1 c0.06-0.09,0.13-0.18,0.21-0.24c0.63-0.47,1.13-1.05,1.59-1.66c0.76-1.02,1.41-2.14,2.32-3.03c0.01-0.3,0.18-0.46,0.41-0.64 c1.19-0.93,1.24-1.38,0.3-2.53c-0.05-0.06-0.09-0.11-0.12-0.17c-0.11-0.17-0.16-0.35-0.1-0.57l0,0c-0.2,0.08-0.41,0.14-0.61,0.21 s-0.41,0.15-0.6,0.25c-1.46,0.75-3.07,1.37-4.13,2.61c-2.33,2.72-5.15,4.95-7.23,7.94c-1.44,2.07-2.89,4.18-4.59,6.07 c-1.26,1.4-1.94,3.26-3.45,4.45c-0.18,0.14-0.33,0.29-0.45,0.44c-0.24,0.31-0.37,0.64-0.39,1.02c-0.01,0.19,0,0.39,0.04,0.6 c0,0,0,0,0,0C31.95,252.86,32.34,252.13,32.78,252.46z M397.2,17c0.41,0.59,1.59,0.33,2.33-0.37c2.3-2.17,5.23-3.16,8.1-4.27 c1.35-0.52,2.83-0.82,4.02-1.58c1.57-1,3.37-1.27,5.03-1.98c1.5-0.64,3.13-0.95,4.7-1.42c0.54-0.17,1.15-0.42,1-1.11 c-0.15-0.67-0.37-1.34-1.31-1.45c-1.58-0.18-3.15-0.39-4.74-0.34c-0.09,0.03-0.19,0.08-0.28,0.11c-0.09,0.04-0.19,0.07-0.28,0.07 c-3.83,0.11-7.24,1.62-10.52,3.37c-2.31,1.23-4.29,3.02-6.21,4.81c-0.54,0.63-1.07,1.28-1.63,1.88 C396.72,15.45,396.67,16.25,397.2,17z M441,13.13c-1.72,0.32-3.27,0.87-4.46,2.22c-0.32,0.36-0.32,0.74-0.17,1.1 c0.15,0.36,0.55,0.18,0.85,0.21c0.24,0.02,0.51,0.07,0.71-0.01c1.75-0.75,3.64-0.31,5.46-0.61c0.8-0.14,1.71-0.11,2.64,0.3 c1.57,0.68,2.84-0.43,2.57-1.96c-0.59-0.19-1.16-0.44-1.71-0.72c-0.55-0.28-1.08-0.59-1.61-0.91 C443.86,12.97,442.42,12.86,441,13.13z M207.44,185.59c-2.84-0.46-5.68-0.94-8.57-0.23c-2.94,0.73-6,0.95-8.82,2.15 c-0.91,0.39-1.82,0.85-2.8,0.89c-0.85,0.04-1.68,0.14-2.4,0.55c-2.88,1.61-6.17,2.18-9.06,3.8c-4.09,2.29-8.58,3.76-12.58,6.35 c-2.82,1.83-5.86,3.4-8.64,5.34c-2.75,1.92-5.59,3.72-7.75,6.4c-2.22,2.75-4.71,5.28-6.51,8.34c-0.58,0.98-1.08,2.02-1.3,2.9 c-0.08,0.69,0.03,1.06,0.49,1.2c0.7,0.21,1.48,0.46,1.95-0.31c0.57-0.95,1.51-1.48,2.24-2.25c2.24-2.37,5.13-3.91,7.71-5.83 c1.2-0.89,2.52-1.77,3.6-2.76c1.44-1.32,3.22-2.03,4.72-3.25c2.11-1.72,4.68-2.86,6.96-4.4c1.72-1.16,3.71-1.84,5.53-2.84 c2.77-1.51,5.44-3.33,8.63-3.95c0.11-0.02,0.22-0.1,0.3-0.19c0.93-1,2.25-1.27,3.45-1.65c2.31-0.74,4.57-1.63,6.78-2.6 c2.86-1.26,5.85-1.93,8.82-2.76c1.12-0.31,2.32-0.37,3.42-1.06c1.31-0.82,2.94-1.05,4.47-0.55c0.81,0.27,1.21-0.15,1.63-0.57 c0.49-0.49,0.18-1.05-0.14-1.51C209.04,186.07,208.24,185.71,207.44,185.59z M142.01,160.8c0.21-0.99,0.61-1.98,0.61-2.99 c0-2.86,0.08-5.72-0.16-8.58c-0.33-3.06-0.86-6.05-2.45-8.76c-0.5-0.85-1.23-1.29-2.16-1.15c-0.97,0.15-1.5,0.81-1.41,1.87 c0.08,0.99,0.17,1.98,0.16,2.96c-0.02,1.36,0.66,2.69,0.47,3.97c-0.21,1.39-0.09,2.8,0,4.1c0.15,2.15-0.33,4.16-0.61,6.19 c-0.45,3.28-1.74,6.38-2.61,9.57c-0.79,2.88-2.24,5.51-3.54,8.2c-0.99,2.06-1.9,4.15-2.95,6.19c-1.82,3.55-3.62,7.1-5.76,10.46 c-2.46,3.86-4.2,8.03-5.52,12.4c-0.17,0.57-0.16,1.08,0.42,1.31c0.59,0.24,1.13,1.06,1.89,0.3c2.13-2.1,4.49-3.91,6.36-6.33 c2.47-3.19,4.1-6.86,6.37-10.14c0.23-2.47,2.13-4.13,3.06-6.27c1.17-2.69,2.49-5.33,3.38-8.13c0.73-2.29,1.65-4.51,2.43-6.79 C140.93,166.44,141.42,163.61,142.01,160.8z M263.38,70.05c-0.91,1.16-0.72,1.81,0.64,2.32c0.49,0.18,0.95,0.48,1.13,1 c0.63,1.84,1.2,3.73,1.29,5.66c0.1,2.17,0.68,2.68,2.78,1.95c0.85-1.57,1.61-3.08,1.64-5.02c0.03-2.07-0.88-3.58-2.02-4.97 c-0.31-0.38-0.65-0.72-1.02-0.99c-0.92-0.69-2.01-0.99-3.24-0.73c-0.25,0.05-0.5,0.13-0.75,0.23c0,0,0,0,0,0 C263.68,69.68,263.52,69.86,263.38,70.05z M435.89,13.93c0.65-0.54,1.29-1.47,0.8-2.41c-0.4-0.77-1.31-0.38-2.09-0.48 c0.14-0.22,0.37-0.32,0.53-0.48c0.54-0.55,1.31-1.24,0.95-1.93c-0.44-0.84-1.57-0.75-2.38-0.5c-1.66,0.5-3.42,0.75-4.86,1.84 c-1.39,1.19-1.71,2.67-1.37,4.07c0.2,0.84,0.64,1.65,1.22,2.35C431.62,17.14,433.82,15.64,435.89,13.93z M432.19,24.7 c-0.76,1.86,0.99,3.27,0.72,5.01c-0.02,0.11,0.14,0.29,0.27,0.36c1.14,0.62,4.99,0.87,6.32-0.5c0.41-0.43,0.93-0.7,1.42-1.02 c1.43-0.93,2.67-2.11,3.51-3.63c0.37-0.66,0.33-1.37-0.23-1.84c-0.57-0.47-1.22-0.33-1.82,0.19c-1.68,1.45-3.67,2.28-5.83,2.74 c-0.09,0.22-0.23,0.26-0.43,0.15c0.08-0.11,0.15-0.22,0.23-0.33c1.6-1.4,3.14-2.89,5.31-3.38c0.62-0.14,1.13-0.41,1.11-1.15 c-0.02-0.82-0.68-1-1.28-1.17c-0.34-0.1-0.71-0.11-1.06-0.1c-2.68,0.12-4.91,1.37-7.04,2.85C432.77,23.31,432.49,23.98,432.19,24.7z" fill="#413026"/></g><g id="change5_1"><path d="M439.78,3.93c-0.28-0.06-0.56-0.12-0.83-0.18c-0.26-0.05-0.51-0.09-0.77-0.13 c-0.21-0.03-0.41-0.05-0.62-0.06c-0.53-0.04-1.07-0.03-1.62,0.04c0.01,0.05-0.01,0.06-0.06,0.03c-0.03,0.05-0.06,0.1-0.09,0.14 c-0.43,0.61-1.2,0.53-1.76,0.87c-1.92,0.49-3.54,1.55-5.12,2.68c-0.01,0.02-0.01,0.03-0.02,0.05c-0.11,0.2-0.17,0.4-0.19,0.6 c-0.01,0.11-0.01,0.22,0,0.33c0.04,0.55,0.25,1.1,0.14,1.65c1.44-1.09,3.2-1.34,4.86-1.84c0.81-0.25,1.94-0.34,2.38,0.5 c0.36,0.69-0.41,1.39-0.95,1.93c-0.16,0.16-0.39,0.26-0.53,0.48c0.78,0.1,1.69-0.29,2.09,0.48c0.49,0.94-0.15,1.87-0.8,2.41 c-2.06,1.71-4.27,3.21-7.21,2.46c-0.02,0.34-0.08,0.69-0.16,1.03c-0.23,1.03-0.6,2.06-0.45,3.01c0.38,2.49-0.05,4.94-0.06,7.39 c-0.01,2.14-0.46,4.32-0.37,6.51c0.11,1.13,0.02,2.27,0.47,3.39c0.23,0.56,0.39,0.7,0.96,0.71c2.15,0.06,4.27-0.17,6.38-0.52 c2.72-0.45,5.17-1.65,7.52-2.96c1.85-1.03,3.36-2.59,4.85-4.12c2.3-2.37,4.18-4.96,4.87-8.3c0.12-0.59,0.14-1.21,0.23-1.81 c0.04-0.3,0.1-0.6,0.2-0.89c0.1-0.29,0.23-0.57,0.42-0.83c-0.01-0.18-0.06-0.33-0.12-0.48c-0.07-0.15-0.15-0.29-0.25-0.45 c-1.13-1.75-2.75-2.84-4.57-3.72c0.27,1.53-1.01,2.64-2.57,1.96c-0.93-0.4-1.84-0.43-2.64-0.3c-1.81,0.31-3.7-0.13-5.46,0.61 c-0.2,0.09-0.47,0.03-0.71,0.01c-0.3-0.03-0.7,0.15-0.85-0.21c-0.15-0.36-0.15-0.74,0.17-1.1c1.19-1.35,2.74-1.9,4.46-2.22 c1.42-0.27,2.87-0.16,4.28-0.4v0c0.06-0.12,0.08-0.25,0.1-0.38c0.03-0.4-0.07-0.82,0.09-1.09c1.04-1.73-0.16-3.15-0.51-4.69 c-1.48-0.45-2.28-1.96-3.87-2.33C440.64,4.14,440.21,4.03,439.78,3.93z M440.45,20.02c0.35-0.02,0.73,0,1.06,0.1 c0.6,0.18,1.27,0.35,1.28,1.17c0.01,0.74-0.5,1.01-1.11,1.15c-2.17,0.5-3.71,1.98-5.31,3.38c0.07,0.06,0.13,0.12,0.2,0.18 c2.16-0.46,4.15-1.29,5.83-2.74c0.6-0.52,1.25-0.65,1.82-0.19c0.56,0.46,0.6,1.18,0.23,1.84c-0.85,1.52-2.08,2.7-3.51,3.63 c-0.5,0.32-1.01,0.6-1.42,1.02c-1.32,1.37-5.18,1.12-6.32,0.5c-0.12-0.07-0.28-0.25-0.27-0.36c0.27-1.73-1.48-3.15-0.72-5.01 c0.3-0.73,0.58-1.39,1.21-1.83C435.53,21.39,437.76,20.14,440.45,20.02z M434.03,4.65c0.55-0.36,0.89-1.16,1.76-0.87 C435.36,4.39,434.59,4.31,434.03,4.65z M435.88,3.64c-0.01-0.01-0.02,0-0.03-0.02c0,0,0.09-0.07,0.09-0.07 c0.01,0.03,0.01,0.04,0.01,0.06C435.95,3.66,435.93,3.67,435.88,3.64z M436.14,26.15c0.08-0.11,0.15-0.22,0.23-0.33 c0.07,0.06,0.13,0.12,0.2,0.18C436.48,26.22,436.33,26.26,436.14,26.15z" fill="#F1EED6"/></g></svg>