<?xml version="1.0" encoding="UTF-8"?><svg xmlns="http://www.w3.org/2000/svg" xmlns:xlink="http://www.w3.org/1999/xlink" height="293.9" preserveAspectRatio="xMidYMid meet" version="1.0" viewBox="-0.0 -0.0 246.7 293.9" width="246.7" zoomAndPan="magnify"><g id="change1_1"><path d="m476.36 382.07c-3.3633 0.30087-8.9037 4.0512-13 8.9688-1.8474 2.2179-4.4881 5.1882-5.875 6.5938s-6.2026 6.8509-10.688 12.094c-13.543 15.832-14.17 16.244-31.188 21.781-4.3215 1.4062-9.1589 3.4014-10.781 4.4375-3.1985 2.0426-11.28 10.049-12.906 12.781-6.022 10.117-12.619 19.968-14.594 21.781-1.3409 1.2312-3.0086 3.6698-3.6875 5.4375-0.79717 2.0757-3.2755 4.9137-7.0312 8-3.1984 2.6283-6.8843 6.0324-8.1875 7.5625-1.3355 1.5681-9.4486 7.2843-18.562 13.094-8.8931 5.6686-16.602 10.907-17.156 11.656-2.3194 3.1354 5.9901 9.3002 16 11.844 1.9682 0.50013 3.6952 1.5217 3.8438 2.2812s-1.74 3.9575-4.2188 7.0938c-5.0215 6.3535-7.0328 13.044-4.75 15.812 1.7977 2.1803-0.99663 6.695-6.625 10.719-5.4228 3.8767-10.071 8.9936-12.25 13.438-0.97952 1.9978-2.37 4.005-3.0938 4.4688s-1.7016 2.7078-2.1562 5-1.5821 5.7205-2.5 7.625c-2.0845 4.3251-7.8432 11.932-10.156 13.406-0.95733 0.6102-1.8814 1.6558-2.0625 2.3438s-22.664 20.491-24.621 23.049l-0.375 42.593h172.09l0.78125-3.1736c5.3259-4.2124 11.065-8.9394 12.219-11.375 2.16-4.57 16.209-10.17 15.719-15h-1.7812l0.40625-0.375c-1.4007-2.1973-10.182-32.671-9.625-38.594 0.23143-2.4591 0.05109-5.922-0.40625-7.7188-1.3306-5.2274-0.73263-11.891 1.4375-15.969 1.4962-2.8115 1.7216-4.7731 0.84375-7.6562-0.69806-2.2925-0.66009-4.5405 0.09375-5.5 1.1439-1.4559 13.037-5.9293 15.875-5.9688 0.62625-0.00871 0.61797-0.81174 0-1.7812s-0.68178-2.3208-0.15625-3.0312 0.53756-1.9557 0.03125-2.75-0.58614-2.7784-0.15625-4.4062 1.2584-6.7879 1.8438-11.469 1.4866-8.7665 2-9.0938c1.0135-0.64603 3.2035-13.34 3.2188-18.688 0.00518-1.8185 0.79528-4.1447 1.7812-5.1875 1.1326-1.1978 1.5709-3.1951 1.1875-5.4062-0.86196-4.9706 1.9756-14.685 5.375-18.406 1.6213-1.7746 3.6804-5.943 4.7188-9.5938 1.01-3.5512 1.9806-6.5443 2.1562-6.6562s2.7677-2.514 5.75-5.3438c9.8518-9.3477 11.248-12.896 9.4688-23.75-0.444-2.7078-1.2033-4.9134-1.7188-4.9062s-2.7831 0.80135-5.0312 1.7812-5.8512 1.9461-8 2.1562-5.4929 1.046-7.4375 1.8438-3.9389 1.2569-4.4062 1.0312c-1.7333-0.83672-1.9217-6.048-0.53125-14.312 1.9982-11.877 2.2004-17.245 0.84375-21.562-0.64397-2.0494-1.4457-5.8303-1.8125-8.4062-0.84764-5.9528-5.5066-13.585-8.8438-14.5-0.37999-0.10425-0.83203-0.13673-1.3125-0.09375z" fill="inherit" transform="translate(-269.74 -382.05)"/></g></svg>