<?xml version="1.0" encoding="UTF-8"?><svg xmlns="http://www.w3.org/2000/svg" xmlns:xlink="http://www.w3.org/1999/xlink" height="284.1" preserveAspectRatio="xMidYMid meet" version="1.0" viewBox="149.3 53.5 314.6 284.1" width="314.6" zoomAndPan="magnify"><g id="change1_1"><path d="m400.25 331.68c0.20346-3.2802 0.077026-8.4551-0.28082-11.5-0.61218-5.2085-0.77011-5.4978-2.6698-4.8917-1.1104 0.35434-3.1726 0.61584-4.5825 0.58112-1.4098-0.034729-2.5634 0.19055-2.5634 0.50064 0 0.31003-1.2437 0.48529-2.7638 0.38937-1.9998-0.12616-2.9191 0.27121-3.3254 1.4376-0.6496 1.8646-3.2324 2.1947-3.2324 0.41315 0-1.25-1.5078-1.3449-3.4848-0.21948-0.77878 0.4433-0.98233 0.24841-0.62552-0.59885 0.39612-0.94052-0.016357-1.1626-1.6419-0.884-1.1941 0.20462-1.6466 0.14493-1.0058-0.13275 1.6032-0.69455 1.4782-2.118-0.13632-1.5535-0.71844 0.25119-1.9712-0.41614-2.7964-1.4896l-1.4949-1.9445v1.8875c0 1.0381-0.41943 1.8875-0.93216 1.8875s-0.93213-0.32916-0.93213-0.73151c0-0.40228-1.0487-0.54883-2.3304-0.32562-1.3603 0.23694-2.3304 0.011139-2.3304-0.54242 0-0.52158 0.78751-0.94827 1.7502-0.94827 0.96252 0 2.2499-0.54868 2.8608-1.2193 0.61093-0.67059 2.3353-1.4644 3.832-1.7639 4.3766-0.87579 3.9367-1.8015-0.86865-1.8277-2.4442-0.013336-5.5763-0.2832-6.9605-0.5997-1.4091-0.3222-3.4112-0.13907-4.55 0.4162-1.5268 0.74445-2.1227 0.74823-2.3909 0.015289-0.1965-0.53702-0.7337-0.76437-1.1938-0.50525-1.2279 0.69134-7.4598-0.5249-6.9021-1.347 0.26114-0.3851 1.8305-0.50018 3.4874-0.25568 2.6611 0.39273 3.1306 0.15854 4.026-2.0088 0.89267-2.1606 0.80093-2.4679-0.76956-2.5757-1.3811-0.094788-1.5518 0.13171-0.7568 1.0044 0.77695 0.85303 0.62857 1.2659-0.6109 1.6992-0.90042 0.31485-1.785 0.1684-1.9658-0.32544-0.1806-0.49384-0.82327-0.89789-1.428-0.89789-0.60477 0-1.5136-0.85989-2.0197-1.9109-0.57703-1.1983-1.7891-1.9452-3.2505-2.003-4.9836-0.1969-5.1441-0.28888-2.9498-1.6892 1.865-1.1901 1.9492-1.4767 0.68616-2.3355-0.79187-0.53836-1.7076-2.221-2.0349-3.7391-0.73892-3.4267 1.1049-3.7342 4.2281-0.70523 3.0927 2.9993 6.8948 4.2584 9.3074 3.082 2.0193-0.98468 2.6493-2.5891 1.0167-2.5891-0.51273 0-0.82724-0.47772-0.69913-1.0616 0.12814-0.58389-0.29129-0.96606-0.93213-0.84927-0.64087 0.11676-1.1652-0.13406-1.1652-0.55746 0-0.42337-0.85681-0.56561-1.904-0.31613-1.0472 0.24954-1.797 0.1182-1.6662-0.29178 0.13062-0.41003-0.29028-1.6133-0.93567-2.674-1.525-2.5065-0.82327-3.4006 3.2099-4.09 2.1253-0.36325 2.9786-0.85632 2.3979-1.3855-0.58102-0.52918-1.579-0.49127-2.8049 0.10644-2.3725 1.1569-3.89 1.1875-3.89 0.078674 0-0.4671 0.81415-0.84927 1.8094-0.84927 3.1126 0 3.1167-1.6789 0.006927-2.8702l-2.9759-1.14 2.6772-0.6137 2.6771-0.6137-2.5634-2.0114c-1.4098-1.1063-2.5634-2.2113-2.5634-2.4556 0-0.48529 5.2153 0.21393 7.4572 0.99976 0.76895 0.26953 1.6779 0.52313 2.0197 0.56345 0.3417 0.040344 0.93591 0.36002 1.3204 0.7103 1.447 1.3184 9.7099 0.33069 9.7099-1.1606 0-0.4126-0.94376-0.7568-2.0973-0.76489-1.1536-0.008087-3.0641-0.94351-4.2455-2.0787-1.3345-1.2822-2.72-1.8642-3.6574-1.5365-1.1843 0.41403-1.3622 0.17584-0.82611-1.106 0.52866-1.2641 0.43115-1.4059-0.43079-0.62668-1.3237 1.1967-3.042-0.026245-4.0329-2.8702-0.41919-1.2033-1.1776-1.6516-2.3299-1.377-1.2629 0.3009-1.8287-0.16498-2.1688-1.7858-0.4563-2.1747 0.50464-2.9757 1.6118-1.3436 0.88287 1.3015 4.186 1.0087 4.7898-0.42462 0.29504-0.70068 1.1208-1.2739 1.835-1.2739 0.71399 0 1.2984-0.38217 1.2984-0.84927s-0.62924-0.84927-1.3982-0.84927c-0.76898 0-1.3982-0.3822-1.3982-0.84927 0-0.4671-0.68057-0.84927-1.5124-0.84927-1.1595 0-1.2701-0.26593-0.47415-1.1397 1.3255-1.4551 0.21643-2.5366-1.3706-1.3366-0.91269 0.69003-1.1649 0.49982-1.0576-0.79779 0.077515-0.9372 0.57816-1.511 1.1126-1.2752 0.53433 0.23587 0.23758-0.11935-0.65964-0.7894-0.89722-0.67001-1.6313-1.4627-1.6313-1.7615 0-1.155 2.1572-0.44132 6.059 2.0045 2.2355 1.4013 4.3036 2.5478 4.5956 2.5478 1.4167 0 0.23715-2.4993-2.2913-4.8557-1.9595-1.826-2.4584-2.774-1.6313-3.1 0.65518-0.25827 0.037659-0.25226-1.3722 0.013336-1.9537 0.36813-2.5634 0.15811-2.5634-0.88296 0-0.8305 0.82211-1.3923 2.0973-1.433 1.1536-0.036896 1.573-0.25983 0.93216-0.49542-0.64087-0.2356-1.1652-1.0334-1.1652-1.773 0-0.73959 0.28116-1.0886 0.6247-0.77551 0.34363 0.31302 1.5993-0.012665 2.7905-0.72378 1.2805-0.76444 3.7465-1.1995 6.0329-1.0646 2.4948 0.14731 4.0165-0.15781 4.288-0.8598 0.23144-0.59845 0.066925-1.0309-0.3656-0.96103-0.43262 0.069916-1.4157 0.076019-2.1847 0.01358-1.2428-0.10098-1.2428-0.20508 0-0.93689 1.1981-0.70544 1.1672-0.82513-0.21527-0.83627-1.6843-0.01358-3.203-3.5048-2.1803-5.0125 0.33954-0.50058 2.5092 0.24506 5.281 1.8148 3.9081 2.2135 4.8487 2.457 5.556 1.4384 1.2339-1.7768 1.0716-3.0144-0.23852-1.8207-0.61523 0.56058-1.7153 1.0192-2.4445 1.0192-1.0619 0-1.0991-0.24908-0.18707-1.2502 0.91406-1.0035 0.81986-1.5407-0.47675-2.7223-1.0402-0.9476-1.2392-1.5863-0.55872-1.793 0.58133-0.17656 1.057-0.6971 1.057-1.1567 0-0.46567-0.87729-0.58208-1.981-0.26291-1.3331 0.38548-1.7725 0.26535-1.3431-0.3674 0.36206-0.5339 0.009796-0.94025-0.81552-0.94025-0.79922 0-1.4532-0.35959-1.4532-0.79918 0-1.6845 1.8701-1.7205 4.8083-0.092514 2.7417 1.5192 3.2697 1.5657 5.134 0.45277 1.1429-0.68225 2.6867-1.0276 3.4308-0.7675 0.74396 0.2601 1.6297 0.064728 1.9681-0.43425 0.33853-0.49889 0.17114-0.90715-0.37186-0.90715-0.54288 0-1.0004-0.66881-1.0168-1.4862-0.026733-1.3448-0.15976-1.3294-1.3982 0.16234-1.6296 1.9632-1.8009 1.1142-0.30072-1.4921 1.063-1.8467 1.0587-1.8477-0.95184-0.22092-2.0161 1.6313-2.0217 1.6294-3.1344-1.0565-0.6702-1.618-1.6843-2.608-2.5437-2.4834-0.88242 0.12799-1.5489-0.56584-1.7427-1.8141-0.27582-1.777-0.031281-1.9568 2.0232-1.487 3.3068 0.7561 5.6473-0.16257 4.269-1.6757-0.58304-0.64011-0.8129-1.7509-0.51077-2.4683 0.44443-1.0552 0.20902-1.1384-1.2327-0.43546-2.9131 1.4204-3.8552 1.0534-3.2195-1.2543 0.37378-1.3566 0.19196-2.1232-0.5033-2.1232-0.59851 0-0.81766-0.39894-0.48688-0.88644 0.33078-0.48761 0.043457-1.5386-0.63846-2.3355-0.68182-0.79697 0.64529 0.091492 2.9492 1.9743 2.3039 1.8829 5.5469 3.9336 7.2066 4.5573 1.6597 0.62363 2.7884 1.4717 2.5084 1.8846-0.28012 0.41289-0.16998 0.77652 0.24487 0.80803 0.41464 0.031525 2.1174 0.21939 3.7836 0.41748 1.8193 0.21631 3.0295-0.012543 3.0295-0.57283 0-0.51311 0.54343-0.74297 1.2076-0.51079 0.72415 0.25324 0.9747 0.61005 1.0606-0.42853 0.10776-1.3044 0.26547-0.16928-0.54117-0.57971-1.6262-0.82752-4.5235 0.2316-4.5235-0.9308 0-0.46706-0.74567-0.84926-1.6569-0.84926-0.91132 0-2.5341-0.55975-3.6062-1.2439-1.0721-0.68416-2.2141-1.0026-2.5378-0.70775-0.32373 0.29494-0.58853-0.10077-0.58853-0.87924v-2.0524c0-1.4292 6.3192-0.6082 10.021 1.3018l3.9616 0.6345v-0.87358c0-1.5692-0.58316-2.4223-1.8643-2.7276-1.9089-0.45479-2.6169-1.9446-0.92416-1.9446 0.5853 0 0.53696-0.58797-0.12836-1.5584-1.125-1.6415-5.5821-1.5825-5.2054 0.06897 0.10947 0.47977-0.95456 1.1692-2.3644 1.5321-1.613 0.4151-2.5634 0.3335-2.5634-0.22008 0-0.55269-0.48908-0.51004-1.3153 0.11473-0.89493 0.67673-1.5074 0.71109-1.9169 0.10756-0.33078-0.48775 0.36584-1.2445 1.5483-1.6815 8.356-3.0883 10.058-3.8974 10.523-5.0015 0.4083-0.96933 0.24237-1.0322-0.74768-0.28351-0.6998 0.52907-1.545 0.71352-1.8784 0.40982-0.33328-0.30371-2.7871-0.48187-5.4528-0.3959-4.7174 0.15213-5.8818-0.42316-1.9601-0.96843 3.0751-0.42757 4.9654-2.3101 4.5277-4.5092-0.34921-1.7552-0.19162-1.8731 1.3402-1.0016 0.9548 0.54327 1.5943 1.1979 1.4211 1.4547-0.17331 0.25685 1.1381 0.56419 2.9141 0.68294 1.7761 0.11877 3.015-0.099747 2.7533-0.48554-0.2616-0.3858 0.092377-1.6992 0.78671-2.9187 1.0756-1.8888 1.0686-2.1494-0.047668-1.7591-0.87015 0.3042-1.3103-0.14302-1.3103-1.3313 0-0.98421-0.58032-1.7894-1.2896-1.7894-0.70911 0-1.4916-0.70441-1.7387-1.5654-0.42215-1.4705-0.23566-1.4587 3.0769 0.19441 1.9394 0.96791 3.3919 1.9589 3.2278 2.2024-0.16418 0.24339 1.1611 0.54016 2.945 0.65947 2.9532 0.19751 3.1118 0.097183 1.7735-1.1223-0.80844-0.73654-1.4699-1.6008-1.4699-1.9205 0-0.31975-1.2608-1.0898-2.8018-1.7112-1.5633-0.63046-2.5304-1.5298-2.1879-2.0347 0.33762-0.49765 0.025391-1.3246-0.69376-1.8376-0.71927-0.513-1.786-2.1519-2.3708-3.642-1.002-2.5533-0.96118-2.6512 0.71014-1.7003 0.97528 0.55496 1.6126 1.392 1.4162 1.86-0.1965 0.46805 0.84714 0.93114 2.3192 1.0291 1.7893 0.11908 2.6765-0.224 2.6765-1.035 0-0.79718 0.54834-1.0214 1.5994-0.6539 1.294 0.45241 1.2297 0.19766-0.33704-1.3345-2.3386-2.287-2.4052-5.6986-0.10809-5.5339 0.87195 0.0625 1.838-0.61186 2.1469-1.4986 0.30893-0.88675 0.92191-1.4093 1.3622-1.1614 0.44037 0.24797 1.0454 0.089951 1.3446-0.35115 0.29916-0.44112-0.30096-1.0463-1.3338-1.345-1.0329-0.29866-1.8778-1.167-1.8778-1.9296 0-1.0784 0.24863-1.1601 1.1185-0.3674 1.5225 1.387 2.61 1.2809 2.61-0.25479 0-0.70064 0.4581-1.2739 1.0182-1.2739 0.55994 0 2.1229-0.79178 3.4732-1.7595 1.3502-0.96771 2.5963-1.3738 2.7687-0.90237 0.43445 1.1874-3.3967 4.5366-4.487 3.9227-0.49045-0.27615-0.63904 0.089996-0.3324 0.81825 0.30542 0.72493 0.09082 1.318-0.47665 1.318-0.56769 0-1.0319 0.77211-1.0319 1.7158 0 1.706 0.022522 1.7055 3.9616-0.098969 2.1789-0.99811 4.654-2.3684 5.5004-3.0451 1.1027-0.88176 1.7235-0.95781 2.1911-0.26851 0.38361 0.56549-0.14166 1.151-1.2749 1.421-1.0599 0.25252-2.181 1.1878-2.4912 2.0783-0.31021 0.89055-0.9093 1.4247-1.3313 1.1871-0.87891-0.49484-2.0075 1.6062-2.4303 4.5242-0.15897 1.0965-1.0466 2.4984-1.9726 3.1154-2.4912 1.6595-1.0788 2.2394 1.9581 0.80391 1.445-0.68303 3.1764-1.2419 3.8475-1.2419 0.67102 0 2.5107-0.98938 4.0882-2.1987 2.7037-2.0728 2.8679-2.1004 2.8679-0.48189 0 0.96509-0.80814 1.9505-1.8454 2.2505-1.0149 0.29347-1.7489 0.97067-1.6313 1.5049 0.11777 0.53415-0.4093 0.98859-1.1713 1.0098-1.412 0.039322-2.646 3.0154-1.2462 3.0058 0.42203-0.002899 1.9833-0.58298 3.4695-1.2891 1.486-0.70612 2.9193-1.0859 3.1848-0.84402 0.26556 0.24191-0.11151 0.44568-0.83771 0.45282-0.96127 0.00946-1.0169 0.1889-0.20471 0.65939 1.7784 1.03-0.15463 2.937-2.9773 2.937-2.3637 0-2.5041 0.19835-2.0289 2.8663 0.45242 2.54 0.27319 2.8663-1.5748 2.8663-1.1468 0-2.5324-0.40744-3.0791-0.9054-0.70355-0.64102-1.1491-0.36383-1.5261 0.9493-0.50159 1.7475-0.30679 1.8225 3.3707 1.2986 2.1468-0.30588 5.4578-1.2502 7.3582-2.0984 2.9861-1.333 3.3361-1.3575 2.5791-0.18083-1.458 2.2661-4.4187 5.1831-5.261 5.1831-1.5747 0-6.0483 4.451-5.2263 5.2 1.2907 1.1759 8.8524-1.5432 12.323-4.4312 2.1943-1.8261 3.3899-2.315 4.0933-1.6741 0.70355 0.64096 0.65097 0.90532-0.1799 0.90532-0.64551 0-0.90109 0.40181-0.5679 0.89284 0.33304 0.49104-0.448 1.7824-1.7357 2.8697-1.7954 1.516-2.0868 2.213-1.2497 2.9896 0.60043 0.55698 0.67212 0.90967 0.15939 0.78374-2.0873-0.51259-5.1268 1.1428-5.1268 2.7922 0 1.0066-0.77374 1.9052-1.8643 2.165-1.0254 0.24432-1.8643 0.76976-1.8643 1.1677 0 0.39795-0.698 0.47955-1.5511 0.18127-1.0671-0.37303-1.3335-0.22138-0.85385 0.48581 1.2286 1.811 4.9325 0.033386 11.273-5.4105 1.0883-0.93419 2.7624-2.2718 3.7206-2.9725 1.5798-1.1552 1.6852-1.1354 1.1308 0.21231-0.33624 0.81744-0.20926 1.4862 0.28244 1.4862 0.49155 0 0.18683 0.75229-0.67728 1.6717-2.3112 2.4594-2.6269 5.9652-0.53992 5.9976 1.4856 0.023041 1.4641 0.13092-0.20117 1.0103-1.0254 0.54143-1.961 0.81647-2.0794 0.61116-0.11835-0.20538-0.87619 0.48653-1.6841 1.5375-0.84189 1.0951-2.4414 1.9109-3.7466 1.9109-2.9394 0-2.9156 1.1612 0.049042 2.3918 1.5626 0.64868 3.0933 0.70033 4.6607 0.15738 1.4238-0.49318 2.3341-0.50052 2.3341-0.01889 0 0.43428 1.0296-0.14838 2.2879-1.2949 1.2584-1.1465 2.8875-2.0846 3.6199-2.0846 0.73257 0 1.5513-0.76431 1.8193-1.6986 0.62027-2.1608 1.7611-2.1608 3.2423 0 0.99814 1.4562 0.93042 1.7004-0.47485 1.7116-1.3739 0.010895-1.4171 0.14098-0.26706 0.80362 1.1692 0.67363 1.1267 0.87633-0.28662 1.3705-0.91235 0.31894-1.4427 1.0928-1.1787 1.7196 0.2641 0.62686-0.13452 1.6997-0.88574 2.3841-0.9021 0.82202-1.0316 1.4325-0.3812 1.7988 1.2498 0.70372-0.64084 2.951-2.4826 2.951-0.70627 0-1.2841 0.40561-1.2841 0.90129 0 0.59125 1.5233 0.69989 4.4277 0.31586 2.4353-0.32204 4.101-0.27068 3.7016 0.11409-0.71072 0.68475-1.5398 0.89665-6.265 1.6013-1.2817 0.1911-2.5401 0.4162-2.7964 0.50006-0.25635 0.083878-1.5147 0.13477-2.7964 0.11316-1.8001-0.030411-1.9213 0.065628-0.53195 0.42218 2.9776 0.7643 4.1789 2.2812 2.7618 3.4874-0.67044 0.57063-1.9172 1.0374-2.7706 1.0374-1.1924 0-1.3114 0.26388-0.51352 1.1397 0.57098 0.62688 0.77206 1.3822 0.44675 1.6786-0.32532 0.29637 0.095459 0.77893 0.93488 1.0724 0.83951 0.29353 1.2942 0.87576 1.0105 1.294-1.4469 2.1331 11.662-1.1519 13.577-3.4021 0.81222-0.9547 5.7401-3.6301 6.0933-3.3082 0.1864 0.16972-0.18787 1.2512-0.83166 2.4034-0.76056 1.3612-1.8051 1.9973-2.9831 1.8165-1.762-0.27043-1.7605-0.24156 0.051788 1.0346 1.5622 1.1 1.616 1.3172 0.33282 1.3398-1.649 0.029068-3.0022 2.2374-2.1451 3.5008 0.28821 0.42494-0.3317 0.77261-1.3774 0.77261-1.2579 0-2.1024 0.7287-2.4947 2.1528-0.32611 1.1841-1.7878 2.7158-3.2482 3.4038-1.7189 0.80988-2.4669 1.6978-2.1215 2.5182 0.29358 0.69699 0.71802 1.2672 0.94318 1.2672 1.5727 0 14.184-6.0912 15.615-7.5421 1.8233-1.8483 5.2153-2.4666 5.2153-0.95064 0 0.46706-0.94376 0.85512-2.0974 0.86226-1.5321 0.009491-1.7564 0.20978-0.83234 0.74329 1.3955 0.8056 0.64905 4.3394-0.91669 4.3394-0.50839 0-0.66507 0.3822-0.3483 0.84929s0.10709 0.84926-0.46606 0.84926-0.80142 0.35489-0.50726 0.78857c0.29413 0.43372-0.4151 0.91144-1.5763 1.0616-1.1611 0.15016-2.1111 0.84625-2.1111 1.547 0 0.75838-1.0373 1.3827-2.5634 1.5426-1.4098 0.14787-2.5634 0.77002-2.5634 1.3827 0 0.61264-0.94376 1.7137-2.0974 2.4468-1.821 1.1574-1.8752 1.3388-0.4111 1.3775 0.92749 0.024475 1.4512 0.39105 1.1639 0.81462-0.81122 1.1958 3.391 9e-4 6.1492-1.7486 1.3608-0.86316 2.7521-1.5694 3.0916-1.5694 0.33966 0 2.0198-0.97456 3.734-2.1657 3.0703-2.1336 4.749-1.7859 3.6761 0.76154-0.30051 0.71333-1.0708 1.1135-1.712 0.8894-0.64108-0.22421-1.1657 0.18213-1.1657 0.90288s0.66415 1.3406 1.476 1.3775c0.88025 0.039993 1.0267 0.23346 0.36298 0.47949-0.61194 0.22687-0.86307 1.0055-0.55777 1.7303 0.46719 1.1092 0.23758 1.163-1.4506 0.33986-2.0273-0.98854-2.9457 0.1507-1.0032 1.2445 1.4799 0.83344-2.4535 3.8734-4.2151 3.2575-0.79639-0.27846-1.4481-0.071213-1.4481 0.46057 0 0.53172 0.60275 1.1775 1.3394 1.435 0.73654 0.25757 1.1122 1.0077 0.8345 1.667-0.27774 0.65929-0.88049 0.98729-1.3395 0.72884-0.45889-0.25844-0.83441 0.12599-0.83441 0.85414 0 2.3848 2.3224 1.3968 7.0262-2.9889 4.9528-4.618 9.3283-7.1908 10.155-5.9714 0.27982 0.41244-0.11594 1.2222-0.87924 1.7994-1.8135 1.3713-1.7745 4.9896 0.073975 6.8506 1.2352 1.2435 1.2716 1.7493 0.23486 3.2617-0.67477 0.98447-1.7521 1.6064-2.394 1.3819-0.642-0.22434-1.1671-0.049774-1.1671 0.38794 0 0.43784-0.62924 0.57605-1.3982 0.30716-1.6987-0.59387-1.8304 0.63513-0.23303 2.1748 0.95923 0.92459 0.81607 0.95987-0.8096 0.19968-2.2645-1.0588-3.152-0.55246-3.152 1.7983 0 1.3643-0.44263 1.5554-2.5634 1.1066-1.7027-0.36038-2.1322-0.28064-1.2789 0.23761 1.6282 0.98871 0.51898 2.7569-1.3251 2.1122-0.95477-0.33383-1.2107-0.082825-0.832 0.81632 0.48883 1.1606 0.91031 1.1628 3.9722 0.020111 1.884-0.70303 5.1756-2.824 7.3148-4.7132l3.8895-3.435-0.5338 3.7217c-0.29346 2.0469-0.89905 3.8518-1.3457 4.0107-1.4872 0.52945-3.6168 5.1042-2.6336 5.6578 0.5109 0.28763 0.92874 0.83801 0.92874 1.2231 0 1.046-4.9905 1.7374-6.0123 0.83286-1.2728-1.1268-2.377-0.96539-2.377 0.34744 0 0.62225 1.5102 1.5537 3.356 2.0698 3.7487 1.0482 7.521 0.1998 9.4611-2.1279 1.0551-1.2659 1.1652-1.2373 1.1652 0.3027 0 0.93539-0.85526 2.5371-1.9006 3.5594-1.0454 1.0222-1.5697 1.8674-1.1652 1.878 0.40451 0.01062-0.62195 0.62906-2.281 1.3743-1.659 0.74515-2.7861 1.6946-2.5044 2.1098 0.79096 1.166-2.2729 1.8982-3.6344 0.86877-0.8971-0.67828-1.6251-0.46973-2.8277 0.80988-0.89075 0.94784-2.5441 1.656-3.6737 1.5738-3.2556-0.23715-4.0754 0.099915-2.0542 0.84476 1.1237 0.41406 3.0458 0.24731 4.8384-0.41986 2.5107-0.93451 3.1484-0.91553 4.0932 0.1217 0.61557 0.67578 1.7941 1.044 2.6189 0.81818 0.82474-0.22574 2.6568-0.5918 4.071-0.81351s3.4634-0.66101 4.5535-0.97623c1.8444-0.53332 1.8066-0.36365-0.54242 2.4423-1.4774 1.7648-3.0581 2.829-3.8111 2.5657-1.7327-0.60584-4.6357 1.4677-4.6357 3.311 0 0.81747-0.27924 1.3907-0.62073 1.2739-0.34137-0.11676-1.4726 0.68268-2.5139 1.7766-1.0413 1.0938-2.3059 1.7564-2.8104 1.4724-1.5702-0.88406-2.345 1.4128-0.81949 2.4291 1.1265 0.75052 0.13461 0.94449-4.5184 0.88379-5.1221-0.066925-5.9618 0.13464-5.9618 1.4307 0 0.99204-0.4787 1.3412-1.3982 1.0197-0.76895-0.26886-2.1323-0.20004-3.0294 0.15292-0.89722 0.353-2.575 0.55759-3.7286 0.45471-3.3917-0.30246-2.4018 1.3843 1.3982 2.3829l3.4955 0.9186-4.4277-0.3934c-2.5662-0.22794-4.4277-0.043121-4.4277 0.43976 0 0.45813 0.94376 0.85983 2.0974 0.8927 1.9926 0.056702 2.0042 0.094299 0.23303 0.75293-1.3758 0.5115-2.4884 0.16208-4.2456-1.3336-2.4125-2.0533-4.2668-2.7332-3.2116-1.1776 0.31677 0.46707 0.1319 0.8493-0.4111 0.8493-2.2719 0-0.75088 1.5306 2.0424 2.0552 2.6539 0.49854 2.8202 0.67847 1.3417 1.4511-0.92841 0.48514-2.3965 0.59836-3.2625 0.25159-0.86603-0.34677-1.8586-0.57916-2.2058-0.51642-0.34705 0.062805-1.1835-1.023-1.8588-2.413-1.5306-3.1504-2.4266-3.2116-2.808-0.19162-0.19754 1.5642-0.75668 2.2372-1.6932 2.0381-5.177-1.1011-5.5937-0.89554-5.5744 2.7497 0.018066 3.4124 1.319 13.059 2.3895 17.718 0.51215 2.2291 0.37253 2.3355-3.0635 2.3355h-3.6001l0.3699-5.9638zm-14.757-17.818c0.89838-0.085114 1.0004-0.27988 0.2854-0.54492-0.61197-0.22681-0.85376-1.0274-0.5372-1.7789 0.45309-1.076 0.19434-1.2274-1.2176-0.71234-2.9843 1.0887-4.5315 1.1632-5.7547 0.27698-0.78049-0.56555-1.1652-0.55008-1.1652 0.046783 0 0.49008-0.73404 1.0518-1.6313 1.2485-1.4082 0.30868-1.3521 0.46231 0.41019 1.1239 1.7916 0.67246 4.9278 0.78345 9.6104 0.34zm-23.304-13.81c0-0.41116-0.62924-0.17435-1.3982 0.52634-0.76898 0.70059-1.3849 1.7789-1.3686 2.3962 0.032776 1.2398 2.7668-1.6481 2.7668-2.9225zm13.05-4.0767c0-0.4378-0.46426-0.79599-1.032-0.79599-0.5777 0-0.78171-0.65411-0.46368-1.4862 0.52603-1.3762 0.47198-1.3738-0.72903 0.033539-1.0646 1.2472-1.5246 1.3234-2.5658 0.42465-1.476-1.2742-8.2596-1.7753-8.2596-0.61011 0 0.43387-0.62924 0.78888-1.3982 0.78888-1.9447 0-1.7579 1.5067 0.23303 1.8792 3.6448 0.68173 14.215 0.50784 14.215-0.23389zm9.3215 0.0533c0-1.0988-1.585-1.0988-2.3304 0-0.31677 0.4671 0.07785 0.84927 0.8772 0.84927 0.79913 0 1.4532-0.38217 1.4532-0.84927zm13.51-1.6888c0.32657-0.48148-0.047546-0.62381-0.87717-0.33377-1.6149 0.56458-1.9103 1.1733-0.5694 1.1733 0.48233 0 1.1333-0.37778 1.4466-0.83951zm39.623-1.7083c0-0.4671-0.62924-0.84927-1.3982-0.84927-0.76898 0-1.3982 0.38217-1.3982 0.84927s0.62924 0.84927 1.3982 0.84927c0.76898 0 1.3982-0.38217 1.3982-0.84927zm-76.436-1.1749c0-0.17908-0.83954-0.5256-1.8656-0.77005-1.026-0.24448-1.6306-0.097992-1.3433 0.32556 0.5018 0.73966 3.2088 1.1146 3.2088 0.44449zm76.902-1.373c-0.73813-1.0883-1.3982-1.0883-1.3982 0 0 0.46707 0.44421 0.84927 0.98712 0.84927 0.54297 0 0.72788-0.3822 0.4111-0.84927zm-72.708-3.3971c0.32123-0.47357-0.37607-0.84354-1.5763-0.83627-1.7315 0.010468-1.879 0.17395-0.75406 0.83627 1.7345 1.0212 1.6376 1.0212 2.3304 0zm4.1947-0.8994c0-0.49466-0.41943-0.66318-0.93216-0.37451-1.1944 0.67258-1.1944 1.2739 0 1.2739 0.51273 0 0.93216-0.40476 0.93216-0.89941zm-15.14-0.933c0.7847-0.71494 1.4145-0.72958 2.3081-0.053925 0.9053 0.68454 2.0577 0.56348 4.3767-0.45978 1.7313-0.76395 2.6501-1.5402 2.0418-1.7249-0.6084-0.18478-1.7531 0.15335-2.544 0.75137-1.1561 0.87405-1.5807 0.87695-2.1655 0.014771-0.57349-0.84543-1.5791-0.86359-4.7498-0.085693-2.9626 0.72681-3.6732 1.1882-2.697 1.7511 1.7375 1.002 2.1432 0.97919 3.4297-0.19287zm95.62-3.2109c0.89334-0.81381-0.91385-0.85715-6.1412-0.14731-0.38449 0.052185-0.69913 0.50006-0.69913 0.99521 0 1.1082 5.4326 0.43484 6.8404-0.8479zm-91.206-3.4398c0.32657-0.48144-0.047577-0.62378-0.8772-0.33377-1.6149 0.56461-1.9103 1.1733-0.5694 1.1733 0.48236 0 1.1333-0.37778 1.4466-0.83954zm4.6673-11.9c-0.73813-1.0883-1.3982-1.0883-1.3982 0 0 0.46707 0.44424 0.84927 0.98712 0.84927 0.54297 0 0.72788-0.3822 0.4111-0.84927zm1.2845-4.1644c1.6682-0.96265 0.36468-2.8993-1.5102-2.2437-0.78934 0.27594-2.4643-0.11255-3.7221-0.8634-1.432-0.85492-3.1661-1.1641-4.6393-0.82721-2.8437 0.65027-2.2897 1.261 2.8231 3.113 4.6875 1.6979 5.3882 1.7795 7.0486 0.82135zm93.328-4.389c0-1.4732-2.8907-3.714-3.5802-2.7753-0.33783 0.46018-1.3485 1.0834-2.2457 1.385-2.9218 0.98218-1.72 2.3002 2.0974 2.3002 2.0507 0 3.7286-0.40945 3.7286-0.90991zm-88.379-3.0673c-0.67294-0.24533-1.4768-0.21518-1.7867 0.067017-0.30972 0.28226 0.24088 0.48294 1.2234 0.44611 1.086-0.040741 1.3068-0.24204 0.56323-0.51312zm4.486-10.46c-1.1597-0.68289-1.0804-0.8277 0.46606-0.84927 1.5099-0.021057 1.6044-0.17572 0.49725-0.81372-0.85318-0.49167-1.7853-0.47128-2.4804 0.054291-0.69009 0.52188-1.3202 0.5372-1.6571 0.040375-0.29904-0.44083 0.082947-1.0207 0.84909-1.2885 0.76611-0.26785 1.3864-0.97668 1.3786-1.5752-0.009552-0.72504-0.2428-0.78412-0.6991-0.17703-1.0316 1.3726-3.8122 2.0984-4.4481 1.161-0.30814-0.45428-0.95084-0.60617-1.428-0.3374-0.47723 0.26874-0.86774 0.088379-0.86774-0.40079s-0.94376-0.79831-2.0974-0.68707c-1.499 0.14462-2.0604-0.22165-1.9678-1.2839 0.075226-0.86331-0.5108-1.4808-1.3982-1.4732-6.8859 0.058624-2.1949 5.6546 6.1 7.2769 7.0142 1.3718 9.6894 1.4939 7.7527 0.35358zm54.065-10.191c0-0.46707-0.41943-0.84927-0.93216-0.84927s-0.93216 0.3822-0.93216 0.84927c0 0.4671 0.41943 0.84927 0.93216 0.84927s0.93216-0.38217 0.93216-0.84927zm-57.793-0.8493c1.1307-0.66571 0.99689-0.82574-0.69913-0.83627-1.1536-0.007141-2.0973 0.36917-2.0973 0.83627 0 1.0641 0.98914 1.0641 2.7964 0zm10.77-11.115c0.96048-1.4161-1.2-3.04-2.4859-1.8684-1.0756 0.98001-0.40234 2.7917 1.0374 2.7917 0.45218 0 1.104-0.41547 1.4485-0.92325zm4.6104-1.6246c-0.73816-1.0882-1.3982-1.0882-1.3982 0 0 0.4671 0.44421 0.84927 0.98709 0.84927 0.543 0 0.7279-0.38217 0.41113-0.84927zm37.752-5.0956c0-0.4671-0.44421-0.8493-0.98709-0.8493-0.543 0-0.7279 0.3822-0.4111 0.8493 0.73813 1.0882 1.3982 1.0882 1.3982 0zm-36.82-3.3971c0.3168-0.46707 0.15659-0.84927-0.35602-0.84927-0.51273 0-1.1915 0.3822-1.5083 0.84927-0.31677 0.4671-0.15656 0.84927 0.35605 0.84927 0.51273 0 1.1915-0.38217 1.5082-0.84927zm-5.3598-1.0616c-0.43991-1.2023-1.9388-1.0702-2.408 0.21231-0.17102 0.4671 0.38824 0.84927 1.2428 0.84927 0.85455 0 1.3789-0.47772 1.1652-1.0616zm-3.4955-1.5352c0-1.3521-2.0815-1.8546-2.8865-0.69684-1.2711 1.8286-0.9971 2.3222 1.0222 1.8411 1.0254-0.24429 1.8643-0.75919 1.8643-1.1443zm41.993-5.4932c3.4623-1.6313 3.4555-1.9015-0.036774-1.4345-1.5328 0.20496-2.5752 0.68469-2.3166 1.0661 0.25876 0.38138-0.47961 0.8598-1.6408 1.0632-1.4786 0.25891-1.6084 0.4043-0.43353 0.48532 0.9227 0.063599 2.9151-0.46741 4.4277-1.1801zm-11.232-9.3703c0-0.20599-0.65405-0.37451-1.4532-0.37451-0.79935 0-1.1899 0.3884-0.86774 0.8631 0.53207 0.78439 2.3209 0.40781 2.3209-0.48859zm-12.118-12.542c0-0.79294-0.8978-1-3.0295-0.69891-2.9334 0.41437-2.9555 0.44751-0.69913 1.0422 3.4577 0.91128 3.7286 0.88635 3.7286-0.34329zm-37.034 132.25c0.30984-0.2822 1.1138-0.31235 1.7867-0.067017 0.74359 0.27109 0.52274 0.47238-0.56326 0.51312-0.98254 0.036835-1.5332-0.16385-1.2234-0.44611zm16.573-136.99c-1.1618-1.9778-1.2288-2.6274-0.27094-2.6274 1.2191 0 3.0446 3.2834 2.1161 3.8062-0.47644 0.26828-1.3068-0.26212-1.8452-1.1787zm13.935-25.676c0-0.40231 0.38519-0.73151 0.85593-0.73151 0.47073 0 1.5194-0.23196 2.3304-0.5155 0.81097-0.28351 1.4745-0.13699 1.4745 0.32562 0 0.46265-1.0487 1.0238-2.3304 1.247-1.2817 0.22324-2.3304 0.076721-2.3304-0.32562zm8.2704-6.4108c-1.1349-1.2712-1.0688-1.3668 0.58496-0.84723 1.7898 0.56235 1.7954 0.53696 0.13632-0.63602-1.5895-1.1238-1.459-1.2091 1.627-1.0637 1.8453 0.086914 3.357 0.25363 3.3592 0.37039 0.006714 0.3385-3.6874 3.6094-4.0763 3.6094-0.19357 0-0.92761-0.64484-1.6313-1.4329zm-0.2813-5.9619c-1.5541-1.9408-1.5858-2.1715-0.23306-1.6985 0.86093 0.301 1.5654 0.17709 1.5654-0.27533 0-0.45245 0.47082-0.82263 1.0463-0.82263 0.746 0 0.76123 0.31296 0.053253 1.0901-1.2336 1.3543-0.2937 2.825 2.163 3.3842 1.5356 0.34952 1.4535 0.43701-0.4661 0.49616-1.5043 0.046387-2.9679-0.72427-4.1288-2.174zm0.5495-5.5481c-1.4578-1.3282-1.3637-2.3441 0.21698-2.3441 1.4772 0 2.7335 2.2768 1.6066 2.9114-0.40826 0.22986-1.2289-0.025421-1.8236-0.56729zm0.5027-6.8798c-0.26364-0.62627-0.10526-1.6772 0.35205-2.3355 0.60522-0.87108 0.83554-0.56113 0.84601 1.1386 0.015472 2.5361-0.44162 2.9928-1.1981 1.1969z" fill="#6f9108"/></g><g id="change2_1"><path d="m302.92 329.73c0.23966-4.3525 0.090729-11.219-0.33081-15.26-0.7211-6.9112-0.90714-7.2952-3.1448-6.4909-1.308 0.47022-3.7372 0.8172-5.3978 0.77112-1.6607-0.046051-3.0195 0.25284-3.0195 0.66431 0 0.41141-1.465 0.64392-3.2556 0.51669-2.3556-0.16739-3.4385 0.35986-3.917 1.9075-0.7652 2.4742-3.8075 2.9122-3.8075 0.54819 0-1.6586-1.7761-1.7846-4.105-0.2912-0.91736 0.58823-1.1571 0.32956-0.73676-0.79465 0.46655-1.248-0.019348-1.5427-1.9341-1.173-1.4066 0.27154-1.9396 0.19232-1.1847-0.17618 1.8884-0.9216 1.7412-2.8104-0.16058-2.0613-0.84628 0.33334-2.322-0.55216-3.294-1.9765l-1.7609-2.5803v2.5047c0 1.3775-0.49405 2.5046-1.098 2.5046-0.60394 0-1.098-0.4368-1.098-0.97067 0-0.53378-1.2352-0.72827-2.745-0.4321-1.6024 0.31442-2.745 0.014801-2.745-0.71973 0-0.69205 0.92761-1.2583 2.0615-1.2583 1.1338 0 2.6503-0.72809 3.3699-1.618 0.71964-0.88986 2.7508-1.9431 4.5139-2.3406 5.1553-1.1621 4.6372-2.3904-1.0232-2.4252-2.8791-0.0177-6.5685-0.37579-8.199-0.79575-1.6599-0.42755-4.0182-0.18457-5.3596 0.55222-1.7985 0.98788-2.5004 0.99289-2.8164 0.020325-0.23148-0.71258-0.86426-1.0142-1.4063-0.67047-1.4464 0.91739-8.7871-0.69644-8.1302-1.7874 0.3076-0.51102 2.1562-0.6637 4.1079-0.33926 3.1347 0.52112 3.6877 0.21033 4.7424-2.6655 1.0515-2.867 0.94345-3.2748-0.90646-3.4178-1.6269-0.12576-1.828 0.1748-0.89148 1.3328 0.91519 1.1318 0.74042 1.6797-0.7196 2.2546-1.0606 0.41782-2.1026 0.22348-2.3156-0.43179-0.21274-0.6553-0.96976-1.1914-1.682-1.1914-0.71239 0-1.7829-1.141-2.3791-2.5356-0.67969-1.59-2.1074-2.5811-3.8288-2.6577-5.8703-0.26135-6.0594-0.38336-3.4747-2.2414 2.1968-1.5792 2.296-1.9595 0.80821-3.0991-0.93274-0.71432-2.0114-2.947-2.3969-4.9614-0.87039-4.547 1.3015-4.955 4.9805-0.93579 3.643 3.9799 8.1215 5.6505 10.964 4.0896 2.3785-1.3066 3.1207-3.4355 1.1976-3.4355-0.60394 0-0.97443-0.63391-0.82349-1.4087 0.15091-0.77475-0.34314-1.2819-1.098-1.1269-0.75487 0.15497-1.3725-0.17789-1.3725-0.73968 0-0.5618-1.0093-0.75058-2.2428-0.41952-1.2335 0.33115-2.1168 0.15683-1.9627-0.38718 0.15388-0.54404-0.3419-2.1407-1.1022-3.5481-1.7963-3.3259-0.96973-4.5124 3.7811-5.4271 2.5035-0.48196 3.5086-1.1362 2.8245-1.8384-0.68437-0.70218-1.86-0.65192-3.3039 0.14117-2.7946 1.5351-4.5821 1.5758-4.5821 0.10443 0-0.61981 0.95903-1.1269 2.1313-1.1269 3.6665 0 3.6713-2.2277 0.008179-3.8085l-3.5054-1.5128 3.1535-0.8144 3.1534-0.8144-3.0195-2.669c-1.6607-1.468-3.0195-2.9342-3.0195-3.2584 0-0.64392 6.1433 0.28386 8.7841 1.3266 0.90579 0.35768 1.9765 0.69417 2.3791 0.74768 0.40253 0.053513 1.1024 0.47768 1.5554 0.94249 1.7045 1.7493 11.438 0.43877 11.438-1.5401 0-0.54748-1.1117-1.0042-2.4706-1.0149-1.3588-0.010742-3.6093-1.252-5.001-2.7583-1.572-1.7014-3.204-2.4737-4.3081-2.0388-1.395 0.54933-1.6045 0.23328-0.97308-1.4676 0.62271-1.6774 0.50784-1.8655-0.50745-0.83156-1.5592 1.588-3.5833-0.034821-4.7504-3.8086-0.49379-1.5967-1.3871-2.1915-2.7445-1.8272-1.4877 0.39931-2.1541-0.2189-2.5547-2.3696-0.53749-2.8856 0.59442-3.9485 1.8986-1.7829 1.04 1.7271 4.9309 1.3384 5.642-0.56345 0.34753-0.92973 1.3202-1.6904 2.1616-1.6904 0.84106 0 1.5295-0.5071 1.5295-1.1269 0-0.61984-0.74121-1.1269-1.647-1.1269-0.90576 0-1.647-0.50716-1.647-1.127 0-0.6198-0.80167-1.1269-1.7814-1.1269-1.3658 0-1.4961-0.35289-0.55852-1.5123 1.5614-1.9309 0.25493-3.3658-1.6144-1.7735-1.0751 0.91562-1.3721 0.66321-1.2457-1.0586 0.091278-1.2436 0.68103-2.0049 1.3106-1.692 0.62942 0.31294 0.27988-0.15842-0.77698-1.0475-1.0568-0.88908-1.9215-1.9409-1.9215-2.3374 0-1.5326 2.541-0.58562 7.137 2.6598 2.6332 1.8594 5.0693 3.3808 5.4134 3.3808 1.6688 0 0.27936-3.3164-2.699-6.4432-2.3082-2.4229-2.8958-3.6808-1.9215-4.1134 0.77179-0.34276 0.044373-0.33479-1.6163 0.017654-2.3014 0.48852-3.0195 0.20979-3.0195-1.1716 0-1.102 0.9684-1.8474 2.4705-1.9015 1.3588-0.048996 1.8529-0.34477 1.098-0.65739-0.75487-0.31262-1.3725-1.3713-1.3725-2.3527s0.33119-1.4445 0.73584-1.0291c0.40478 0.41539 1.8838-0.016785 3.287-0.96042 1.5083-1.0143 4.4131-1.5917 7.1064-1.4125 2.9387 0.19546 4.7311-0.20941 5.0509-1.1409 0.27261-0.79411 0.078827-1.368-0.43066-1.2752-0.50958 0.092804-1.6676 0.10088-2.5735 0.01799-1.4639-0.13394-1.4639-0.27208 0-1.2431 1.4112-0.93607 1.3749-1.0949-0.25357-1.1097-1.984-0.018036-3.7729-4.6507-2.5682-6.6513 0.39993-0.6642 2.9557 0.3252 6.2207 2.4082 4.6035 2.9372 5.7115 3.2602 6.5446 1.9086 1.4535-2.3576 1.2623-3.9999-0.28094-2.4159-0.72473 0.74382-2.0205 1.3523-2.8795 1.3523-1.2508 0-1.2946-0.33049-0.22034-1.659 1.0767-1.3316 0.9657-2.0445-0.56158-3.6122-1.2252-1.2574-1.4597-2.105-0.65814-2.3792 0.68481-0.23431 1.2451-0.92499 1.2451-1.5349 0-0.61794-1.0334-0.77237-2.3336-0.34886-1.5703 0.51152-2.0878 0.35208-1.5821-0.48753 0.42648-0.70845 0.011536-1.2476-0.9606-1.2476-0.94147 0-1.7118-0.47713-1.7118-1.0604 0-2.2353 2.2029-2.283 5.6639-0.12277 3.2296 2.0158 3.8515 2.0776 6.0475 0.60077 1.3462-0.90527 3.1648-1.3636 4.0412-1.0184 0.87631 0.34515 1.9196 0.085938 2.3183-0.57614 0.39874-0.66208 0.2016-1.2038-0.43805-1.2038-0.63946 0-1.1784-0.88745-1.1977-1.9721-0.031494-1.7844-0.1882-1.7639-1.647 0.21541-1.9196 2.6051-2.1213 1.4784-0.35425-1.9799 1.2521-2.4504 1.2471-2.4517-1.1212-0.29311-2.3748 2.1646-2.3814 2.1621-3.6921-1.4019-0.78946-2.147-1.984-3.4606-2.9963-3.2953-1.0394 0.16982-1.8245-0.75085-2.0527-2.4072-0.32489-2.358-0.036865-2.5965 2.3831-1.9732 3.8951 1.0033 6.6521-0.21568 5.0286-2.2234-0.68677-0.84938-0.95755-2.3233-0.60168-3.2752 0.52356-1.4002 0.24622-1.5106-1.452-0.57784-3.4315 1.8848-4.5412 1.3978-3.7924-1.6643 0.44031-1.8001 0.2261-2.8173-0.5928-2.8173-0.70502 0-0.9632-0.52936-0.57355-1.1763 0.38965-0.64703 0.051178-2.0416-0.75208-3.099-0.80316-1.0575 0.7601 0.12141 3.474 2.6198 2.7138 2.4984 6.5339 5.2197 8.4889 6.0472 1.955 0.82752 3.2845 1.9528 2.9548 2.5007-0.33002 0.54782-0.20026 1.0304 0.28842 1.0722 0.48843 0.041824 2.4941 0.29109 4.4568 0.554 2.1431 0.287 3.5685-0.016647 3.5685-0.76012 0-0.68089 0.64014-0.98587 1.4225-0.6778 0.853 0.336 1.1481 0.80951 1.2493-0.56862 0.12692-1.7308 0.31271-0.22464-0.63745-0.76926-1.9156-1.098-5.3284 0.30733-5.3284-1.235 0-0.61983-0.87833-1.127-1.9517-1.127-1.0735 0-2.9849-0.7428-4.2478-1.6506-1.2629-0.90787-2.608-1.3305-2.9894-0.93913-0.38132 0.39136-0.69324-0.13373-0.69324-1.1667v-2.7234c0-1.8964 7.4436-0.80701 11.804 1.7275l4.6665 0.8419v-1.1592c0-2.0822-0.68695-3.2143-2.196-3.6193-2.2486-0.6035-3.0826-2.5804-1.0886-2.5804 0.68948 0 0.63251-0.78017-0.15122-2.0679-1.3252-2.1782-6.5753-2.0998-6.1316 0.091537 0.12894 0.63658-1.1244 1.5514-2.7851 2.0329-1.8999 0.55081-3.0195 0.44255-3.0195-0.29196 0-0.73343-0.57605-0.67682-1.5493 0.15219-1.0541 0.89795-1.7757 0.94354-2.2579 0.14273-0.38965-0.64725 0.43088-1.6513 1.8238-2.2312 9.8428-4.098 11.848-5.1716 12.396-6.6366 0.4809-1.2862 0.28546-1.3697-0.88074-0.37619-0.82434 0.70209-1.82 0.94681-2.2126 0.54381-0.39258-0.40298-3.283-0.63942-6.4231-0.52536-5.5568 0.20187-6.9284-0.56148-2.3089-1.285 3.6222-0.56737 5.849-3.0653 5.3334-5.9834-0.41138-2.3291-0.22571-2.4855 1.5786-1.329 1.1247 0.7209 1.878 1.5895 1.674 1.9303-0.20413 0.34079 1.3406 0.74861 3.4326 0.90619 2.0921 0.15761 3.5515-0.13234 3.2432-0.64427-0.30814-0.51198 0.10886-2.2547 0.92673-3.8728 1.267-2.5063 1.2587-2.852-0.056152-2.3342-1.025 0.40365-1.5434-0.18982-1.5434-1.7666 0-1.3059-0.68356-2.3744-1.519-2.3744-0.8353 0-1.757-0.93466-2.048-2.0771-0.49728-1.9513-0.27759-1.9356 3.6244 0.25801 2.2845 1.2843 3.9954 2.5994 3.8022 2.9223-0.19342 0.32298 1.3677 0.71676 3.4689 0.87509 3.4787 0.2621 3.6656 0.12892 2.089-1.4892-0.9523-0.97737-1.7314-2.1241-1.7314-2.5483 0-0.42427-1.4851-1.446-3.3003-2.2706-1.8415-0.83659-2.9807-2.03-2.5772-2.6999 0.39768-0.66034 0.029877-1.7576-0.81723-2.4383-0.8472-0.68074-2.1038-2.8554-2.7926-4.8327-1.1803-3.3881-1.1322-3.518 0.83652-2.2562 1.1488 0.73641 1.8995 1.847 1.6682 2.4681-0.23144 0.62106 0.99792 1.2356 2.7319 1.3656 2.1077 0.15803 3.1527-0.2972 3.1527-1.3733 0-1.0578 0.64594-1.3553 1.884-0.86768 1.5242 0.60028 1.4485 0.26228-0.397-1.7708-2.7547-3.0347-2.8332-7.5616-0.12732-7.3431 1.0271 0.082909 2.165-0.8119 2.5289-1.9885 0.36389-1.1766 1.086-1.8701 1.6047-1.541 0.51871 0.32902 1.2314 0.11933 1.5839-0.46596 0.35239-0.58532-0.35452-1.3884-1.5711-1.7847-1.2166-0.39626-2.212-1.5484-2.212-2.5604 0-1.431 0.29288-1.5393 1.3176-0.48752 1.7934 1.8405 3.0745 1.6996 3.0745-0.33809 0-0.9297 0.53961-1.6904 1.1993-1.6904 0.65955 0 2.5007-1.0506 4.0912-2.3347 1.5904-1.2841 3.0583-1.8229 3.2613-1.1974 0.51175 1.5756-4.0011 6.0197-5.2854 5.2051-0.5777-0.3664-0.75275 0.11945-0.39154 1.0858 0.35974 0.96192 0.107 1.7489-0.56146 1.7489-0.6687 0-1.2156 1.0246-1.2156 2.2768 0 2.2638 0.02652 2.2631 4.6665-0.13129 2.5666-1.3244 5.4821-3.1426 6.4791-4.0405 1.299-1.17 2.0302-1.271 2.581-0.35632 0.45184 0.75038-0.16684 1.5272-1.5017 1.8855-1.2485 0.33511-2.569 1.5762-2.9346 2.7578-0.36539 1.1817-1.0711 1.8905-1.5682 1.5752-1.0352-0.65659-2.3648 2.1314-2.8627 6.0034-0.18722 1.455-1.2328 3.3152-2.3236 4.1338-2.9344 2.2021-1.2708 2.9715 2.3065 1.0668 1.7021-0.90637 3.7416-1.6479 4.5321-1.6479 0.7904 0 2.9575-1.3128 4.8156-2.9175 3.1848-2.7504 3.3782-2.787 3.3782-0.63942 0 1.2806-0.95194 2.5882-2.1738 2.9862-1.1954 0.38946-2.0601 1.288-1.9215 1.9969 0.13873 0.7088-0.48212 1.3118-1.3798 1.34-1.6632 0.0522-3.1168 4.0011-1.468 3.9885 0.49713-0.003807 2.3362-0.77356 4.0868-1.7106 1.7505-0.93699 3.4388-1.441 3.7515-1.12 0.3128 0.32101-0.13138 0.59137-0.98679 0.60088-1.1323 0.012558-1.1979 0.25063-0.24115 0.87495 2.0949 1.3668-0.1821 3.8972-3.507 3.8972-2.7843 0-2.9497 0.26318-2.39 3.8034 0.53293 3.3704 0.32181 3.8034-1.855 3.8034-1.351 0-2.9831-0.54061-3.627-1.2014-0.82874-0.85059-1.3536-0.48276-1.7977 1.2596-0.59085 2.3188-0.36136 2.4184 3.9705 1.7231 2.5288-0.40591 6.429-1.6589 8.6674-2.7844 3.5175-1.7688 3.9298-1.8013 3.038-0.23998-1.7174 3.007-5.205 6.8777-6.1971 6.8777-1.8549 0-7.1245 5.9062-6.1562 6.8999 1.5203 1.5603 10.428-2.0477 14.516-5.8798 2.5847-2.4231 3.993-3.0719 4.8217-2.2214 0.8287 0.85048 0.76675 1.2013-0.21198 1.2013-0.76032 0-1.0614 0.53315-0.66894 1.1847 0.39233 0.6516-0.52768 2.3651-2.0445 3.8079-2.1148 2.0117-2.4581 2.9364-1.4721 3.9669 0.70728 0.73909 0.79172 1.2071 0.18778 1.04-2.4587-0.68019-6.039 1.5164-6.039 3.705 0 1.3357-0.9115 2.5281-2.196 2.8728-1.2078 0.32419-2.196 1.0214-2.196 1.5495 0 0.52806-0.82214 0.63629-1.827 0.24054-1.257-0.49504-1.5707-0.29378-1.0058 0.64462 1.4472 2.4031 5.8102 0.044281 13.279-7.1794 1.2819-1.2396 3.2539-3.0145 4.3826-3.9442 1.861-1.5329 1.9851-1.5066 1.3321 0.28171-0.39606 1.0847-0.24652 1.9722 0.33267 1.9722 0.57904 0 0.22006 0.99823-0.79782 2.2182-2.7225 3.2635-3.0943 7.9154-0.63596 7.9584 1.75 0.030579 1.7246 0.17374-0.23697 1.3406-1.2078 0.71843-2.3099 1.0834-2.4493 0.81096-0.13944-0.27252-1.0321 0.64554-1.9837 2.0402-0.99173 1.4531-2.8758 2.5356-4.4132 2.5356-3.4624 0-3.4344 1.5407 0.05777 3.1737 1.8407 0.86072 3.6437 0.92931 5.49 0.20882 1.6772-0.65439 2.7494-0.66417 2.7494-0.02504 0 0.57628 1.2128-0.19693 2.6951-1.7182 1.4823-1.5214 3.4012-2.7661 4.264-2.7661 0.86292 0 1.8273-1.0142 2.1431-2.2538 0.73059-2.8672 2.0744-2.8672 3.8192 0 1.1758 1.9323 1.096 2.2563-0.55933 2.2711-1.6184 0.01445-1.6693 0.18706-0.31458 1.0663 1.3772 0.89389 1.3272 1.1628-0.33762 1.8185-1.0747 0.4232-1.6994 1.45-1.3885 2.2818 0.3111 0.83179-0.15845 2.2554-1.0433 3.1635-1.0626 1.0907-1.2152 1.9008-0.44904 2.3868 1.4721 0.93379-0.75485 3.9158-2.9244 3.9158-0.83191 0-1.5125 0.53824-1.5125 1.196 0 0.78455 1.7943 0.9287 5.2155 0.4191 2.8686-0.42735 4.8308-0.35919 4.3604 0.15137-0.83722 0.90863-1.8138 1.1898-7.3798 2.1248-1.5098 0.2536-2.9921 0.55226-3.2941 0.66354-0.30194 0.11127-1.7842 0.17885-3.294 0.15012-2.1204-0.040359-2.2631 0.087082-0.62659 0.56024 3.5074 1.0141 4.9224 3.027 3.2531 4.6275-0.78976 0.75716-2.2584 1.3766-3.2636 1.3766-1.4045 0-1.5447 0.35019-0.60486 1.5124 0.67258 0.83182 0.90939 1.8341 0.52618 2.2273-0.38318 0.39328 0.11249 1.0336 1.1012 1.423 0.98889 0.38945 1.5245 1.1621 1.1904 1.717-1.7044 2.8305 13.737-1.5284 15.992-4.5144 0.95676-1.2668 6.7615-4.8168 7.1775-4.3896 0.21954 0.22516-0.22128 1.6603-0.97964 3.1891-0.89587 1.8062-2.1263 2.6502-3.5138 2.4104-2.0755-0.35883-2.0738-0.32053 0.061035 1.3728 1.8402 1.4596 1.9035 1.7478 0.39206 1.7778-1.9425 0.038589-3.5364 2.9688-2.5269 4.6453 0.33948 0.56386-0.39072 1.0252-1.6225 1.0252-1.4818 0-2.4764 0.96695-2.9386 2.8566-0.38416 1.5712-2.106 3.6037-3.8262 4.5166-2.0247 1.0746-2.9058 2.2528-2.4989 3.3414 0.34582 0.92485 0.84573 1.6815 1.111 1.6815 1.8525 0 16.708-8.0825 18.394-10.008 2.1477-2.4525 6.1433-3.2729 6.1433-1.2615 0 0.61984-1.1117 1.1347-2.4705 1.1442-1.8048 0.012589-2.069 0.27835-0.98047 0.98624 1.6438 1.069 0.7645 5.758-1.0798 5.758-0.59888 0-0.78345 0.50711-0.41028 1.127 0.37314 0.6198 0.12607 1.1269-0.54904 1.1269-0.67514 0-0.944 0.47084-0.5975 1.0464 0.34647 0.57547-0.48898 1.2094-1.8568 1.4086-1.3677 0.19928-2.4867 1.123-2.4867 2.0527 0 1.0064-1.2219 1.8347-3.0195 2.0469-1.6607 0.19617-3.0195 1.0218-3.0195 1.8347 0 0.81296-1.1117 2.274-2.4705 3.2468-2.1451 1.5358-2.2089 1.7766-0.48425 1.8279 1.0925 0.032471 1.7094 0.51892 1.371 1.081-0.95557 1.5868 3.9943 0.00119 7.2433-2.3202 1.603-1.1454 3.2417-2.0824 3.6417-2.0824 0.40008 0 2.3792-1.2932 4.3984-2.8738 3.6166-2.8312 5.594-2.3698 4.3302 1.0105-0.35397 0.94655-1.2614 1.4776-2.0166 1.1801-0.75516-0.29747-1.3732 0.24173-1.3732 1.1981 0 0.95645 0.78235 1.779 1.7387 1.8279 1.0369 0.05307 1.2094 0.30983 0.42755 0.63625-0.7208 0.30107-1.0166 1.3342-0.65698 2.296 0.55029 1.4719 0.27985 1.5433-1.7087 0.45102-2.3881-1.3118-3.4699 0.19995-1.1818 1.6513 1.7432 1.1058-2.8901 5.1397-4.9651 4.3225-0.93808-0.36954-1.7057-0.094498-1.7057 0.6111 0 0.70558 0.70996 1.5624 1.5777 1.9042 0.86762 0.34175 1.3101 1.3372 0.98303 2.212-0.32718 0.87483-1.0371 1.3101-1.5778 0.96713-0.54056-0.34291-0.98285 0.16719-0.98285 1.1334 0 3.1644 2.7356 1.8534 8.2763-3.9661 5.8341-6.1278 10.988-9.5417 11.962-7.9236 0.32953 0.54724-0.1366 1.6217-1.0357 2.3876-2.1363 1.8196-2.0903 6.6208 0.087097 9.0902 1.455 1.65 1.4979 2.3212 0.27664 4.3281-0.79483 1.3063-2.0638 2.1314-2.82 1.8336-0.7562-0.29773-1.3748-0.066101-1.3748 0.51477 0 0.58089-0.74121 0.76433-1.647 0.40752-2.001-0.78801-2.1561 0.8428-0.27454 2.8858 1.1299 1.2269 0.96133 1.2737-0.95361 0.26503-2.6675-1.405-3.7129-0.73306-3.7129 2.3862 0 1.8103-0.52139 2.0639-3.0196 1.4684-2.0057-0.47818-2.5115-0.37239-1.5064 0.31528 1.9179 1.312 0.61133 3.6583-1.5608 2.8028-1.1247-0.44292-1.4261-0.10991-0.98004 1.0832 0.57578 1.5401 1.0722 1.543 4.679 0.026672 2.2192-0.93289 6.0966-3.7472 8.6164-6.2541l4.5816-4.558-0.6288 4.9385c-0.34561 2.7162-1.059 5.1111-1.585 5.3219-1.7518 0.70253-4.2604 6.7729-3.1023 7.5075 0.60181 0.38165 1.094 1.1119 1.094 1.623 0 1.3881-5.8784 2.3053-7.0821 1.1051-1.4993-1.4951-2.8-1.2809-2.8 0.46103 0 0.82571 1.7789 2.0616 3.9531 2.7466 4.4158 1.3909 8.8593 0.26508 11.145-2.8236 1.2429-1.6797 1.3725-1.6417 1.3725 0.40173 0 1.2412-1.0074 3.3666-2.2388 4.7231-1.2314 1.3564-1.849 2.4778-1.3725 2.4919 0.4765 0.014069-0.73264 0.83472-2.6868 1.8235-1.9542 0.9888-3.2818 2.2487-2.95 2.7996 0.93167 1.5471-2.6773 2.5189-4.2811 1.1528-1.0567-0.89999-1.9143-0.62329-3.3309 1.0747-1.0493 1.2577-2.9967 2.1974-4.3274 2.0883-3.8349-0.3147-4.8006 0.13257-2.4197 1.121 1.3236 0.54938 3.5877 0.32812 5.6992-0.55719 2.9575-1.24 3.7086-1.2148 4.8215 0.1615 0.72513 0.89673 2.1134 1.3853 3.085 1.0857 0.97147-0.29956 3.1296-0.78528 4.7953-1.0794 1.666-0.29419 4.0796-0.87711 5.3638-1.2954 2.1726-0.7077 2.128-0.48254-0.63895 3.2408-1.7403 2.3418-3.6023 3.7538-4.4892 3.4045-2.0411-0.80386-5.4605 1.9475-5.4605 4.3935 0 1.0847-0.32895 1.8453-0.73117 1.6904-0.40216-0.155-1.7347 0.90579-2.9612 2.3574-1.2266 1.4514-2.7162 2.3306-3.3105 1.9536-1.8496-1.173-2.7623 1.8747-0.96536 3.2233 1.327 0.99588 0.15863 1.2533-5.3223 1.1727-6.0336-0.088837-7.0226 0.17862-7.0226 1.8984 0 1.3164-0.56393 1.7797-1.647 1.3531-0.90582-0.35675-2.5117-0.26544-3.5685 0.20288-1.0569 0.46841-3.0332 0.73987-4.3921 0.60342-3.9952-0.40137-2.8292 1.8368 1.647 3.162l4.1176 1.2189-5.2155-0.522c-3.0229-0.30249-5.2156-0.05722-5.2156 0.5835 0 0.60785 1.1117 1.1409 2.4705 1.1845 2.3472 0.075256 2.3608 0.12512 0.27454 0.99905-1.6207 0.67874-2.9312 0.21509-5.0011-1.7696-2.8418-2.7246-5.0261-3.6268-3.783-1.5625 0.37311 0.61978 0.1553 1.1269-0.48428 1.1269-2.6762 0-0.88449 2.031 2.4057 2.7272 3.1261 0.66147 3.3221 0.90021 1.5804 1.9256-1.0936 0.64371-2.8229 0.79394-3.843 0.33377-1.0201-0.46011-2.1893-0.76849-2.5983-0.68518-0.40875 0.083313-1.394-1.3575-2.1896-3.2019-1.8029-4.1804-2.8584-4.2616-3.3077-0.25427-0.2327 2.0755-0.89133 2.9687-1.9944 2.7044-6.0981-1.4611-6.589-1.1884-6.5663 3.6486 0.021332 4.528 1.5537 17.328 2.8147 23.51 0.60327 2.9579 0.43884 3.0991-3.6086 3.0991h-4.2407l0.4357-7.9136zm-17.383-23.642c1.0582-0.11295 1.1784-0.37137 0.33618-0.72305-0.72086-0.30096-1.0057-1.3632-0.63281-2.3605 0.53375-1.4277 0.22894-1.6286-1.4343-0.94516-3.5153 1.4446-5.3378 1.5434-6.7787 0.36749-0.91931-0.7504-1.3725-0.72992-1.3725 0.062134 0 0.65024-0.86462 1.3957-1.9215 1.6566-1.6588 0.40964-1.5927 0.61346 0.48318 1.4913 2.1104 0.8923 5.8047 1.0396 11.32 0.45114zm-27.45-18.324c0-0.54556-0.74124-0.23129-1.647 0.69842-0.90582 0.92969-1.6314 2.3605-1.6122 3.1796 0.038635 1.645 3.2592-2.1869 3.2592-3.878zm15.372-5.4094c0-0.58093-0.54688-1.0562-1.2156-1.0562-0.68048 0-0.92084-0.86801-0.5462-1.9721 0.61966-1.8262 0.55597-1.8229-0.85876 0.044464-1.254 1.655-1.7959 1.756-3.0223 0.56348-1.7387-1.6908-9.7292-2.3557-9.7292-0.80957 0 0.57571-0.74124 1.0468-1.647 1.0468-2.2908 0-2.0707 1.9993 0.27448 2.4935 4.2933 0.9046 16.745 0.67383 16.745-0.31033zm10.98 0.0707c0-1.4581-1.867-1.4581-2.745 0-0.37317 0.61978 0.091675 1.127 1.0333 1.127 0.94134 0 1.7118-0.50717 1.7118-1.127zm15.913-2.2409c0.38467-0.63879-0.05603-0.82773-1.0333-0.44284-1.9022 0.74915-2.2502 1.5569-0.67072 1.5569 0.56815 0 1.335-0.50134 1.704-1.114zm46.673-2.2668c0-0.61978-0.74124-1.1269-1.647-1.1269-0.90582 0-1.647 0.50714-1.647 1.1269 0 0.61981 0.74118 1.1269 1.647 1.1269 0.90579 0 1.647-0.50708 1.647-1.1269zm-90.037-1.559c0-0.23761-0.98889-0.69742-2.1975-1.0218-1.2086-0.32437-1.9207-0.13-1.5823 0.43201 0.59112 0.98148 3.7798 1.479 3.7798 0.58981zm90.586-1.8218c-0.86951-1.444-1.647-1.444-1.647 0 0 0.61978 0.52322 1.127 1.1627 1.127 0.63962 0 0.85739-0.50717 0.48428-1.127zm-85.645-4.5077c0.37836-0.62836-0.44299-1.1193-1.8568-1.1096-2.0396 0.013916-2.2133 0.23084-0.88821 1.1096 2.043 1.3551 1.929 1.3551 2.745 0zm4.941-1.1935c0-0.65634-0.49405-0.87997-1.098-0.49695-1.407 0.89246-1.407 1.6904 0 1.6904 0.60397 0 1.098-0.53702 1.098-1.1934zm-17.834-1.238c0.92432-0.94867 1.6662-0.96811 2.7188-0.071564 1.0664 0.90832 2.4239 0.74771 5.1555-0.61008 2.0393-1.0137 3.1216-2.0437 2.4051-2.2889-0.71668-0.24518-2.0651 0.20349-2.9966 0.99704-1.3618 1.1598-1.862 1.1636-2.5508 0.019562-0.67554-1.1218-1.8601-1.1459-5.595-0.11368-3.4897 0.96439-4.3268 1.5766-3.1769 2.3235 2.0467 1.3296 2.5245 1.2993 4.0399-0.25592zm112.63-4.2606c1.0523-1.0799-1.0765-1.1374-7.234-0.19553-0.45291 0.069305-0.82349 0.66354-0.82349 1.3206 0 1.4705 6.3991 0.577 8.0575-1.125zm-107.44-4.5643c0.3847-0.63882-0.05603-0.8277-1.0333-0.44287-1.9022 0.74915-2.2502 1.5569-0.67072 1.5569 0.56818 0 1.335-0.50134 1.704-1.114zm5.4978-15.79c-0.86948-1.444-1.647-1.444-1.647 0 0 0.61978 0.52325 1.1269 1.1627 1.1269 0.63965 0 0.85742-0.50716 0.48428-1.1269zm1.5131-5.5258c1.9651-1.2773 0.4296-3.8471-1.7789-2.9773-0.92981 0.36618-2.9028-0.14932-4.3844-1.1456-1.6868-1.1344-3.7295-1.5447-5.4648-1.0976-3.3497 0.86282-2.6972 1.6733 3.3254 4.1308 5.5216 2.2529 6.3469 2.3612 8.3027 1.0898zm109.93-5.8239c0-1.9548-3.405-4.9281-4.2173-3.6826-0.39795 0.61058-1.5884 1.4376-2.6453 1.8378-3.4417 1.3033-2.0261 3.0522 2.4705 3.0522 2.4156 0 4.3921-0.54334 4.3921-1.2074zm-104.1-4.0701c-0.79269-0.32553-1.7396-0.28548-2.1046 0.088928-0.36484 0.37453 0.28375 0.64088 1.4412 0.59195 1.2792-0.054062 1.5394-0.32112 0.66345-0.68088zm5.2842-13.88c-1.3661-0.90614-1.2726-1.0983 0.54898-1.1269 1.7785-0.027908 1.8899-0.23318 0.58572-1.0797-1.0049-0.65242-2.103-0.6254-2.9217 0.071991-0.8129 0.69254-1.5551 0.71286-1.9519 0.053619-0.35223-0.58498 0.097717-1.3543 1.0002-1.7097 0.90247-0.35541 1.6331-1.296 1.624-2.0902-0.011261-0.96205-0.28604-1.0405-0.82352-0.23491-1.2152 1.8213-4.4905 2.7844-5.2395 1.5406-0.36298-0.60284-1.12-0.80435-1.6822-0.44771-0.56213 0.35655-1.0221 0.11728-1.0221-0.53183s-1.1117-1.0593-2.4705-0.91171c-1.7658 0.19192-2.4271-0.29408-2.318-1.7037 0.088593-1.1455-0.60168-1.9649-1.647-1.9548-8.1111 0.07782-2.5854 7.5033 7.1854 9.6559 8.2623 1.8204 11.413 1.9822 9.1322 0.46918zm63.684-13.523c0-0.61984-0.49402-1.127-1.098-1.127-0.60397 0-1.098 0.50711-1.098 1.127 0 0.61978 0.49408 1.1269 1.098 1.1269 0.60397 0 1.098-0.50711 1.098-1.1269zm-68.076-1.127c1.3318-0.88336 1.1743-1.0957-0.82355-1.1097-1.3588-0.009491-2.4705 0.48988-2.4705 1.1097 0 1.4119 1.1652 1.4119 3.2941 0zm12.686-14.748c1.1314-1.8791-1.4135-4.0339-2.9283-2.4793-1.267 1.3004-0.47394 3.7043 1.222 3.7043 0.53265 0 1.3004-0.55128 1.7063-1.225zm5.4308-2.1558c-0.86948-1.444-1.647-1.444-1.647 0 0 0.61984 0.52325 1.127 1.1628 1.127 0.63962 0 0.85742-0.50711 0.48425-1.127zm44.469-6.7615c0-0.6198-0.52325-1.127-1.1628-1.127-0.63962 0-0.85745 0.50716-0.48428 1.127 0.86954 1.444 1.647 1.444 1.647 0zm-43.371-4.5077c0.37317-0.61978 0.18445-1.1269-0.4194-1.1269-0.60397 0-1.4035 0.50714-1.7766 1.1269-0.37311 0.6198-0.18439 1.127 0.4194 1.127 0.60397 0 1.4035-0.50716 1.7766-1.127zm-6.3136-1.4086c-0.51816-1.5953-2.2838-1.42-2.8364 0.28171-0.20145 0.6198 0.45734 1.1269 1.4639 1.1269s1.6242-0.63386 1.3725-1.4086zm-4.1175-2.037c0-1.7942-2.4519-2.461-3.4001-0.92465-1.4973 2.4264-1.1745 3.0814 1.204 2.443 1.2078-0.32417 2.196-1.0074 2.196-1.5184zm49.465-7.289c4.0784-2.1646 4.0703-2.5231-0.043274-1.9035-1.8056 0.27197-3.0335 0.90855-2.7288 1.4146 0.30475 0.50604-0.56497 1.1409-1.9328 1.4107-1.7416 0.34358-1.8946 0.5365-0.51065 0.64401 1.0868 0.084412 3.4338-0.62019 5.2156-1.5659zm-13.231-12.434c0-0.27336-0.77045-0.49696-1.7118-0.49696-0.94159 0-1.4016 0.51538-1.0222 1.1453 0.62677 1.0408 2.734 0.54114 2.734-0.64832zm-14.274-16.642c0-1.0522-1.0575-1.3269-3.5685-0.92737-3.4553 0.54984-3.4814 0.59381-0.82352 1.3829 4.0729 1.2092 4.392 1.1761 4.392-0.45557zm-43.623 175.49c0.36499-0.37445 1.3119-0.41446 2.1046-0.088928 0.87592 0.35977 0.61578 0.62683-0.66345 0.68088-1.1574 0.048889-1.806-0.21741-1.4412-0.59195zm19.522-181.78c-1.3685-2.6245-1.4474-3.4864-0.31915-3.4864 1.4361 0 3.5864 4.3568 2.4926 5.0505-0.56119 0.356-1.5393-0.34782-2.1735-1.564zm16.415-34.07c0-0.53386 0.45374-0.97067 1.0082-0.97067 0.55447 0 1.7898-0.30778 2.745-0.68404 0.95526-0.37621 1.7368-0.18176 1.7368 0.4321 0 0.61388-1.2353 1.3585-2.7451 1.6547-1.5097 0.29619-2.745 0.10179-2.745-0.43209zm9.742-8.5067c-1.3368-1.6867-1.259-1.8136 0.68909-1.1242 2.1082 0.74618 2.1148 0.71249 0.16058-0.84394-1.8723-1.4911-1.7186-1.6044 1.9165-1.4114 2.1736 0.11536 3.9543 0.33657 3.9569 0.49152 0.007935 0.44912-4.3435 4.7894-4.8016 4.7894-0.22797 0-1.0926-0.85563-1.9215-1.9014zm-0.3313-7.911c-1.8307-2.5753-1.8679-2.8814-0.27454-2.2538 1.0141 0.39936 1.8439 0.23497 1.8439-0.3654 0-0.60036 0.55463-1.0915 1.2324-1.0915 0.87875 0 0.8967 0.41524 0.062744 1.4464-1.4531 1.7971-0.34595 3.7485 2.5478 4.4906 1.8088 0.4638 1.7122 0.5799-0.54901 0.65836-1.7719 0.061554-3.496-0.96104-4.8634-2.8847zm0.6472-7.3618c-1.7173-1.7624-1.6064-3.1104 0.25558-3.1104 1.74 0 3.2199 3.0211 1.8925 3.8632-0.48093 0.30499-1.4476-0.033745-2.148-0.75275zm0.5921-9.129c-0.31055-0.83101-0.12396-2.2256 0.41473-3.0991 0.71292-1.1558 0.98419-0.74454 0.99652 1.5108 0.01825 3.3652-0.52017 3.9712-1.4112 1.5882z" fill="#565e21"/></g><g id="change1_2"><path d="m205.86 332.1c0.192-3.05 0.072998-7.863-0.265-10.694-0.577-4.844-0.726-5.113-2.518-4.549-1.048 0.33002-2.993 0.573-4.323 0.54001-1.331-0.032013-2.419 0.17801-2.419 0.466s-1.173 0.45099-2.607 0.362c-1.887-0.117-2.754 0.25198-3.137 1.337-0.61299 1.734-3.049 2.041-3.049 0.384 0-1.162-1.423-1.251-3.288-0.20401-0.73498 0.41199-0.92699 0.23099-0.59-0.55701 0.37401-0.875-0.015991-1.081-1.549-0.82199-1.127 0.19-1.554 0.13498-0.949-0.12302 1.512-0.646 1.395-1.97-0.129-1.445-0.677 0.23398-1.859-0.38702-2.638-1.385l-1.41-1.809v1.756c0 0.965-0.396 1.755-0.879 1.755-0.48399 0-0.87999-0.306-0.87999-0.67999s-0.98901-0.51102-2.198-0.30301c-1.283 0.22-2.199 0.01001-2.199-0.505 0-0.48498 0.743-0.88098 1.651-0.88098 0.909 0 2.123-0.51102 2.699-1.134 0.57701-0.62402 2.203-1.362 3.615-1.641 4.129-0.814 3.714-1.675-0.819-1.699-2.306-0.013-5.261-0.26401-6.566-0.55801-1.33-0.29999-3.219-0.129-4.293 0.38699-1.44 0.69202-2.002 0.69601-2.255 0.014008-0.186-0.49899-0.69299-0.70999-1.127-0.47-1.158 0.643-7.037-0.48801-6.511-1.252 0.246-0.358 1.727-0.46503 3.29-0.23801 2.51 0.36499 2.953 0.147 3.798-1.868 0.842-2.009 0.756-2.295-0.726-2.395-1.303-0.088013-1.464 0.12198-0.714 0.93399 0.733 0.793 0.593 1.177-0.57599 1.58-0.85001 0.293-1.684 0.15698-1.855-0.30301-0.17-0.45902-0.776-0.83499-1.347-0.83499-0.56999 0-1.428-0.79901-1.905-1.777-0.545-1.114-1.688-1.809-3.067-1.862-4.701-0.18301-4.853-0.26901-2.782-1.571 1.759-1.107 1.838-1.373 0.647-2.172-0.74699-0.50101-1.611-2.065-1.92-3.477-0.69701-3.187 1.042-3.473 3.989-0.65601 2.918 2.789 6.504 3.96 8.78 2.866 1.905-0.91598 2.5-2.408 0.959-2.408-0.483 0-0.78-0.444-0.659-0.987s-0.27501-0.89801-0.879-0.79001c-0.60501 0.10901-1.1-0.12399-1.1-0.518 0-0.39398-0.808-0.526-1.796-0.29401-0.98799 0.23202-1.695 0.11002-1.572-0.271 0.123-0.38199-0.274-1.501-0.882-2.487-1.439-2.331-0.77699-3.162 3.028-3.803 2.005-0.33801 2.81-0.79703 2.262-1.289-0.548-0.492-1.49-0.457-2.646 0.098999-2.238 1.076-3.67 1.104-3.67 0.072998 0-0.43402 0.768-0.79001 1.707-0.79001 2.936 0 2.94-1.561 0.007004-2.669l-2.808-1.06 2.526-0.571 2.525-0.57-2.418-1.871c-1.33-1.029-2.418-2.056-2.418-2.283 0-0.45203 4.92 0.19898 7.035 0.92899 0.72499 0.25101 1.583 0.487 1.905 0.52399 0.32199 0.038025 0.883 0.33502 1.246 0.66101 1.365 1.226 9.16 0.30701 9.16-1.079 0-0.38397-0.89-0.70398-1.979-0.71198-1.088-0.007019-2.89-0.87701-4.005-1.933-1.259-1.192-2.566-1.733-3.45-1.429-1.117 0.38498-1.285 0.164-0.77901-1.028 0.498-1.176 0.40601-1.308-0.407-0.58301-1.249 1.113-2.87-0.023987-3.804-2.669-0.396-1.119-1.111-1.536-2.198-1.281-1.192 0.28-1.726-0.15302-2.046-1.66-0.431-2.023 0.47601-2.768 1.52-1.25 0.83301 1.211 3.949 0.93799 4.519-0.39502 0.278-0.65097 1.057-1.184 1.731-1.184 0.673 0 1.225-0.35599 1.225-0.79001 0-0.43399-0.59401-0.78998-1.319-0.78998-0.726 0-1.319-0.35501-1.319-0.79001 0-0.43399-0.642-0.789-1.427-0.789-1.094 0-1.198-0.24799-0.44701-1.06 1.25-1.354 0.20401-2.359-1.293-1.243-0.86099 0.64101-1.099 0.46498-0.998-0.742 0.072998-0.87199 0.545-1.405 1.05-1.186 0.504 0.21901 0.224-0.11099-0.623-0.73399-0.84599-0.623-1.539-1.36-1.539-1.638 0-1.074 2.035-0.411 5.716 1.864 2.109 1.303 4.06 2.369 4.336 2.369 1.336 0 0.224-2.324-2.162-4.515-1.848-1.698-2.319-2.58-1.539-2.883 0.61801-0.23999 0.036011-0.23498-1.294 0.012009-1.843 0.343-2.418 0.147-2.418-0.821 0-0.772 0.77499-1.295 1.978-1.333 1.088-0.033997 1.484-0.241 0.88-0.45999-0.60501-0.21901-1.1-0.961-1.1-1.649s0.26601-1.012 0.59-0.72099c0.324 0.29098 1.508-0.012009 2.632-0.673 1.208-0.711 3.535-1.116 5.692-0.99 2.353 0.13701 3.789-0.147 4.045-0.8 0.218-0.556 0.063004-0.959-0.345-0.894-0.408 0.065002-1.336 0.070999-2.061 0.013-1.173-0.093994-1.173-0.19099 0-0.871 1.13-0.65599 1.101-0.76799-0.20299-0.778-1.589-0.011993-3.022-3.259-2.057-4.661 0.32001-0.466 2.367 0.228 4.982 1.687 3.687 2.059 4.574 2.285 5.241 1.338 1.164-1.652 1.011-2.803-0.22501-1.693-0.58 0.521-1.618 0.948-2.306 0.948-1.002 0-1.037-0.232-0.176-1.163 0.862-0.933 0.773-1.433-0.45-2.531-0.981-0.882-1.169-1.476-0.52701-1.668 0.548-0.164 0.99699-0.648 0.99699-1.076 0-0.433-0.82799-0.541-1.869-0.244-1.257 0.358-1.672 0.24701-1.267-0.342 0.342-0.496 0.008987-0.87399-0.76901-0.87399-0.754 0-1.371-0.334-1.371-0.74301 0-1.567 1.764-1.6 4.536-0.085999 2.586 1.412 3.084 1.456 4.843 0.421 1.078-0.635 2.535-0.95599 3.237-0.714 0.702 0.242 1.537 0.059998 1.856-0.40399 0.32001-0.464 0.162-0.843-0.34999-0.843-0.513 0-0.944-0.62199-0.96001-1.383-0.024994-1.25-0.14999-1.236-1.319 0.151-1.537 1.826-1.699 1.037-0.28299-1.387 1.002-1.717 0.998-1.718-0.89801-0.20599-1.902 1.517-1.908 1.516-2.957-0.98201-0.633-1.505-1.589-2.425-2.4-2.309-0.832 0.119-1.461-0.52701-1.644-1.688-0.26001-1.652-0.029999-1.819 1.909-1.382 3.119 0.703 5.327-0.15199 4.027-1.559-0.54999-0.595-0.767-1.628-0.482-2.295 0.41901-0.98099 0.19701-1.059-1.163-0.405-2.748 1.321-3.637 0.98001-3.037-1.166 0.353-1.262 0.181-1.975-0.47501-1.975-0.564 0-0.771-0.371-0.459-0.824 0.31201-0.454 0.041-1.431-0.603-2.172-0.643-0.741 0.60901 0.085007 2.783 1.836 2.173 1.751 5.233 3.658 6.798 4.238 1.566 0.58 2.631 1.369 2.367 1.753-0.26399 0.384-0.161 0.722 0.231 0.75101 0.39101 0.028992 1.997 0.204 3.569 0.388 1.717 0.20099 2.858-0.011002 2.858-0.532 0-0.47801 0.513-0.69101 1.139-0.47601 0.68401 0.23601 0.92001 0.56801 1.001-0.398 0.102-1.213 0.25-0.157-0.511-0.539-1.534-0.76999-4.267 0.215-4.267-0.866 0-0.43401-0.703-0.789-1.563-0.789s-2.391-0.521-3.402-1.157-2.089-0.933-2.394-0.658c-0.306 0.274-0.55501-0.093994-0.55501-0.81799v-1.909c0-1.329 5.961-0.565 9.453 1.211l3.737 0.59v-0.812c0-1.46-0.55-2.253-1.759-2.537-1.8-0.423-2.468-1.808-0.871-1.808 0.552 0 0.506-0.547-0.121-1.45-1.062-1.526-5.266-1.471-4.911 0.064987 0.103 0.44601-0.901 1.087-2.231 1.424-1.521 0.386-2.418 0.31099-2.418-0.20401 0-0.51399-0.461-0.47499-1.241 0.106-0.84399 0.63-1.422 0.662-1.808 0.10001-0.312-0.453 0.345-1.157 1.461-1.563 7.882-2.872 9.488-3.625 9.927-4.651 0.385-0.90199 0.229-0.95999-0.705-0.26399-0.66 0.49199-1.458 0.66399-1.772 0.381-0.315-0.282-2.63-0.448-5.144-0.368-4.451 0.14099-5.549-0.39401-1.85-0.901 2.901-0.397 4.685-2.148 4.272-4.193-0.33-1.632-0.181-1.742 1.264-0.931 0.901 0.505 1.504 1.114 1.341 1.352-0.164 0.239 1.073 0.52499 2.749 0.636 1.675 0.11 2.844-0.093002 2.597-0.45201-0.246-0.35899 0.087997-1.58 0.743-2.714 1.014-1.757 1.008-1.999-0.044998-1.636-0.821 0.283-1.237-0.133-1.237-1.238 0-0.91499-0.547-1.664-1.216-1.664-0.66899 0-1.407-0.655-1.64-1.456-0.399-1.367-0.22299-1.356 2.902 0.181 1.83 0.89999 3.2 1.822 3.046 2.048-0.155 0.226 1.095 0.502 2.778 0.61299 2.786 0.18401 2.935 0.091003 1.673-1.043-0.763-0.685-1.387-1.489-1.387-1.786 0-0.298-1.189-1.014-2.643-1.592-1.475-0.586-2.387-1.422-2.064-1.892 0.31799-0.46301 0.024002-1.232-0.655-1.709-0.67801-0.47699-1.684-2.001-2.236-3.387-0.94499-2.374-0.907-2.465 0.67-1.581 0.92 0.51599 1.521 1.295 1.336 1.73-0.18599 0.435 0.79901 0.866 2.188 0.957 1.688 0.11099 2.525-0.20801 2.525-0.96201 0-0.74199 0.517-0.95 1.509-0.608 1.22 0.42 1.16 0.183-0.31799-1.242-2.207-2.126-2.269-5.299-0.102-5.146 0.82201 0.057999 1.734-0.569 2.025-1.393 0.291-0.825 0.87-1.311 1.285-1.08 0.416 0.23 0.98601 0.082993 1.269-0.327 0.282-0.41-0.28401-0.97301-1.259-1.251-0.974-0.27699-1.771-1.085-1.771-1.794 0-1.003 0.23401-1.079 1.055-0.342 1.436 1.29 2.462 1.191 2.462-0.237 0-0.651 0.433-1.184 0.961-1.184s2.003-0.737 3.277-1.637c1.273-0.89999 2.449-1.277 2.611-0.839 0.40999 1.105-3.204 4.219-4.233 3.648-0.46201-0.257-0.602 0.084-0.313 0.761 0.28799 0.674 0.085999 1.226-0.45 1.226-0.535 0-0.97301 0.718-0.97301 1.595 0 1.587 0.021011 1.586 3.737-0.09201 2.056-0.92799 4.391-2.202 5.189-2.831 1.04-0.82001 1.626-0.89101 2.067-0.25 0.362 0.526-0.134 1.07-1.203 1.321-1 0.235-2.057 1.105-2.35 1.933-0.29199 0.828-0.858 1.325-1.256 1.104-0.829-0.46001-1.894 1.494-2.292 4.207-0.14999 1.02-0.98799 2.324-1.861 2.897-2.351 1.544-1.018 2.083 1.847 0.74799 1.363-0.635 2.996-1.155 3.629-1.155s2.369-0.92 3.857-2.045c2.551-1.927 2.706-1.953 2.706-0.448 0 0.898-0.763 1.814-1.741 2.093-0.95801 0.273-1.65 0.903-1.539 1.4 0.11099 0.496-0.386 0.91901-1.105 0.93901-1.332 0.035995-2.496 2.804-1.176 2.795 0.398-0.003006 1.871-0.54201 3.273-1.199 1.402-0.65599 2.754-1.01 3.005-0.785 0.25 0.22501-0.105 0.41501-0.791 0.421-0.90599 0.009003-0.959 0.176-0.19299 0.614 1.678 0.957-0.14601 2.731-2.808 2.731-2.23 0-2.363 0.18401-1.914 2.665 0.426 2.362 0.25699 2.666-1.486 2.666-1.082 0-2.389-0.379-2.905-0.842-0.664-0.59599-1.084-0.338-1.44 0.883-0.47299 1.625-0.289 1.695 3.18 1.207 2.026-0.284 5.149-1.162 6.942-1.951 2.817-1.24 3.147-1.263 2.433-0.168-1.375 2.107-4.168 4.82-4.963 4.82-1.486 0-5.706 4.139-4.93 4.835 1.217 1.094 8.351-1.435 11.625-4.12 2.07-1.699 3.198-2.153 3.861-1.557 0.664 0.59599 0.614 0.842-0.16901 0.842-0.60899 0-0.85001 0.373-0.536 0.83 0.314 0.457-0.423 1.658-1.637 2.669-1.694 1.41-1.969 2.058-1.179 2.78 0.56601 0.51799 0.634 0.84599 0.15001 0.72899-1.969-0.47699-4.837 1.062-4.837 2.596 0 0.93599-0.73 1.772-1.758 2.014-0.968 0.227-1.759 0.71501-1.759 1.086 0 0.37001-0.659 0.44501-1.463 0.168-1.007-0.347-1.258-0.20599-0.806 0.45201 1.159 1.684 4.653 0.030991 10.635-5.032 1.027-0.86801 2.606-2.112 3.51-2.764 1.491-1.074 1.59-1.056 1.067 0.198-0.31699 0.76001-0.19699 1.382 0.26601 1.382 0.464 0 0.177 0.699-0.63899 1.554-2.18 2.287-2.478 5.548-0.509 5.578 1.402 0.020996 1.381 0.12199-0.19 0.939-0.967 0.504-1.85 0.76-1.961 0.569-0.112-0.19099-0.827 0.452-1.589 1.429-0.79401 1.019-2.303 1.777-3.534 1.777-2.773 0-2.751 1.08 0.046005 2.225 1.474 0.603 2.918 0.651 4.397 0.146 1.343-0.459 2.202-0.465 2.202-0.01799 0 0.40399 0.97099-0.138 2.158-1.204s2.724-1.938 3.415-1.938c0.69099 0 1.464-0.711 1.716-1.58 0.58601-2.009 1.662-2.009 3.059 0 0.942 1.354 0.87801 1.581-0.448 1.592-1.296 0.009995-1.337 0.131-0.252 0.74699 1.103 0.627 1.063 0.815-0.27 1.275-0.86099 0.29599-1.361 1.016-1.112 1.599 0.24901 0.58299-0.127 1.58-0.836 2.217-0.851 0.76401-0.97299 1.332-0.35899 1.673 1.179 0.65399-0.60501 2.744-2.342 2.744-0.66699 0-1.212 0.377-1.212 0.838 0 0.55 1.437 0.651 4.177 0.29399 2.298-0.29999 3.869-0.252 3.492 0.106-0.67 0.63701-1.452 0.834-5.91 1.489-1.209 0.17801-2.396 0.38701-2.638 0.46501-0.242 0.077988-1.429 0.125-2.638 0.105-1.699-0.028-1.813 0.060989-0.50201 0.39299 2.809 0.71101 3.942 2.121 2.605 3.243-0.632 0.53-1.808 0.965-2.614 0.965-1.124 0-1.237 0.245-0.48401 1.06 0.539 0.582 0.728 1.285 0.421 1.56-0.306 0.276 0.091003 0.72501 0.882 0.998 0.79199 0.27301 1.221 0.814 0.954 1.203-1.365 1.984 11.002-1.071 12.808-3.164 0.76601-0.888 5.415-3.376 5.748-3.076 0.176 0.158-0.177 1.163-0.785 2.235-0.717 1.266-1.703 1.857-2.814 1.689-1.662-0.25101-1.661-0.22501 0.048996 0.96199 1.474 1.023 1.525 1.225 0.31401 1.246-1.556 0.027008-2.832 2.081-2.024 3.256 0.27199 0.395-0.313 0.718-1.299 0.718-1.187 0-1.983 0.67801-2.353 2.002-0.308 1.101-1.687 2.526-3.065 3.166-1.621 0.75301-2.327 1.578-2.001 2.341 0.27699 0.648 0.677 1.179 0.89 1.179 1.483 0 13.38-5.665 14.731-7.014 1.72-1.719 4.92-2.294 4.92-0.88399 0 0.43399-0.89 0.795-1.979 0.80199-1.445 0.009003-1.657 0.19501-0.785 0.69101 1.317 0.74899 0.612 4.035-0.86499 4.035-0.479 0-0.627 0.35599-0.328 0.78999 0.299 0.435 0.101 0.78999-0.44 0.78999s-0.756 0.33-0.479 0.733c0.278 0.40401-0.39099 0.84801-1.487 0.987-1.095 0.14-1.991 0.787-1.991 1.439 0 0.705-0.979 1.286-2.418 1.435-1.331 0.13699-2.419 0.716-2.419 1.285 0 0.56999-0.89 1.594-1.978 2.276-1.718 1.076-1.769 1.245-0.388 1.281 0.875 0.02301 1.369 0.364 1.098 0.757-0.765 1.113 3.199 9.92e-4 5.801-1.626 1.284-0.80199 2.596-1.459 2.916-1.459 0.321 0 1.906-0.90599 3.523-2.014 2.897-1.984 4.48-1.661 3.468 0.70799-0.28299 0.664-1.01 1.036-1.615 0.82701-0.60501-0.20801-1.1 0.17-1.1 0.84s0.627 1.247 1.393 1.281c0.83 0.037003 0.968 0.21701 0.342 0.44601-0.577 0.211-0.814 0.935-0.526 1.609 0.44099 1.031 0.224 1.081-1.369 0.31599-1.912-0.91899-2.779 0.14-0.946 1.157 1.396 0.77501-2.315 3.602-3.976 3.03-0.752-0.259-1.366-0.066986-1.366 0.42801 0 0.49399 0.56799 1.095 1.263 1.334 0.69499 0.23999 1.049 0.93698 0.787 1.551-0.26201 0.61298-0.83 0.918-1.263 0.677-0.433-0.24002-0.787 0.11798-0.787 0.79498 0 2.217 2.19 1.299 6.628-2.78 4.672-4.294 8.8-6.687 9.58-5.553 0.26401 0.384-0.10901 1.137-0.82898 1.673-1.711 1.276-1.674 4.64 0.069977 6.371 1.165 1.156 1.199 1.627 0.22101 3.033-0.63599 0.91598-1.653 1.494-2.258 1.285-0.60602-0.20798-1.101-0.04599-1.101 0.36102 0 0.40698-0.59399 0.53598-1.319 0.28598-1.603-0.55298-1.727 0.59-0.22 2.022 0.905 0.86002 0.77002 0.893-0.76398 0.186-2.136-0.98498-2.973-0.51401-2.973 1.672 0 1.269-0.418 1.447-2.419 1.029-1.606-0.33499-2.011-0.26099-1.206 0.22101 1.536 0.92001 0.489 2.564-1.25 1.965-0.901-0.311-1.142-0.076996-0.785 0.759 0.461 1.079 0.85899 1.081 3.747 0.018005 1.777-0.65298 4.883-2.626 6.901-4.383l3.669-3.194-0.503 3.461c-0.27701 1.904-0.849 3.582-1.27 3.73-1.403 0.49197-3.412 4.746-2.484 5.261 0.482 0.268 0.87598 0.78 0.87598 1.138 0 0.97299-4.708 1.615-5.672 0.77399-1.201-1.048-2.243-0.89798-2.243 0.32303 0 0.57898 1.425 1.445 3.166 1.925 3.537 0.97501 7.096 0.186 8.926-1.979 0.995-1.177 1.099-1.15 1.099 0.28201 0 0.87-0.80701 2.359-1.793 3.31-0.98599 0.95099-1.481 1.736-1.099 1.746 0.38101 0.009979-0.58701 0.58499-2.152 1.278-1.565 0.69299-2.628 1.576-2.363 1.962 0.74698 1.085-2.144 1.766-3.428 0.80798-0.847-0.62997-1.533-0.43698-2.668 0.75302-0.84 0.88199-2.4 1.54-3.466 1.464-3.071-0.22101-3.844 0.093018-1.938 0.78601 1.061 0.38498 2.874 0.22998 4.565-0.39099 2.368-0.86902 2.97-0.85101 3.861 0.11298 0.58099 0.629 1.693 0.97101 2.471 0.76102 0.77802-0.21002 2.506-0.55002 3.84-0.75601 1.335-0.207 3.268-0.61499 4.296-0.90799 1.74-0.496 1.705-0.33801-0.51099 2.271-1.394 1.641-2.885 2.631-3.596 2.386-1.634-0.56299-4.373 1.365-4.373 3.079 0 0.76001-0.263 1.293-0.586 1.185-0.32201-0.10901-1.389 0.63501-2.371 1.652-0.983 1.017-2.176 1.633-2.652 1.369-1.481-0.82199-2.212 1.314-0.773 2.259 1.063 0.698 0.127 0.87799-4.262 0.82199-4.832-0.061981-5.624 0.125-5.624 1.33 0 0.923-0.452 1.248-1.319 0.949-0.726-0.25-2.012-0.186-2.858 0.142-0.847 0.328-2.43 0.518-3.518 0.423-3.2-0.28201-2.266 1.287 1.319 2.216l3.298 0.854-4.177-0.366c-2.421-0.21201-4.177-0.039978-4.177 0.409 0 0.42602 0.89 0.80002 1.978 0.83002 1.88 0.053009 1.891 0.087982 0.22 0.69998-1.298 0.47601-2.347 0.151-4.005-1.24-2.276-1.909-4.025-2.542-3.03-1.095 0.299 0.435 0.125 0.79001-0.388 0.79001-2.143 0-0.70801 1.423 1.927 1.911 2.504 0.46399 2.661 0.63098 1.266 1.35-0.87599 0.45102-2.261 0.556-3.078 0.23401-0.817-0.323-1.753-0.539-2.081-0.48099-0.327 0.05899-1.116-0.95102-1.754-2.244-1.443-2.929-2.289-2.986-2.649-0.17798-0.186 1.455-0.713 2.081-1.597 1.896-4.884-1.024-5.277-0.83301-5.259 2.557 0.016998 3.173 1.245 12.144 2.254 16.476 0.48399 2.073 0.35199 2.172-2.89 2.172h-3.396l0.349-5.546zm-13.922-16.569c0.84801-0.07901 0.944-0.26001 0.27-0.50702-0.578-0.211-0.806-0.95499-0.507-1.654 0.427-1.001 0.183-1.142-1.149-0.66299-2.815 1.013-4.275 1.082-5.429 0.258-0.73599-0.526-1.099-0.51199-1.099 0.044006 0 0.45499-0.692 0.978-1.539 1.161-1.328 0.28699-1.275 0.42899 0.38701 1.045 1.69 0.625 4.649 0.728 9.066 0.31601zm-21.984-12.842c0-0.383-0.59401-0.16299-1.319 0.48901-0.72501 0.65198-1.307 1.654-1.291 2.228 0.030991 1.153 2.61-1.532 2.61-2.717zm12.311-3.791c0-0.40802-0.43799-0.741-0.97299-0.741-0.545 0-0.73801-0.608-0.438-1.382 0.49699-1.28 0.446-1.277-0.687 0.031006-1.005 1.16-1.439 1.231-2.421 0.39499-1.392-1.185-7.792-1.651-7.792-0.56699 0 0.40298-0.59401 0.73401-1.319 0.73401-1.835 0-1.658 1.401 0.22 1.747 3.438 0.634 13.41 0.47202 13.41-0.21698zm8.794 0.049c0-1.022-1.495-1.022-2.198 0-0.299 0.43402 0.072998 0.79001 0.827 0.79001s1.371-0.35599 1.371-0.79001zm12.745-1.57c0.308-0.44803-0.044998-0.58102-0.828-0.311-1.523 0.52499-1.802 1.091-0.53699 1.091 0.455 0 1.069-0.35101 1.365-0.78zm37.379-1.589c0-0.43399-0.59299-0.79001-1.319-0.79001-0.72499 0-1.319 0.35602-1.319 0.79001s0.59401 0.79001 1.319 0.79001c0.72601 0 1.319-0.35602 1.319-0.79001zm-72.108-1.093c0-0.16602-0.79201-0.48801-1.76-0.716-0.968-0.22699-1.539-0.091003-1.267 0.30301 0.47301 0.68799 3.027 1.037 3.027 0.41299zm72.548-1.276c-0.696-1.012-1.319-1.012-1.319 0 0 0.43399 0.41901 0.789 0.931 0.789 0.51201 0 0.68701-0.35501 0.388-0.789zm-68.591-3.16c0.30301-0.44-0.355-0.784-1.487-0.77701-1.634 0.01001-1.773 0.16202-0.71199 0.77701 1.637 0.95001 1.545 0.95001 2.199 0zm3.957-0.836c0-0.45999-0.396-0.617-0.879-0.34799-1.127 0.625-1.127 1.184 0 1.184 0.483 0 0.879-0.37601 0.879-0.836zm-14.283-0.868c0.73999-0.664 1.334-0.67798 2.177-0.049988 0.85399 0.63699 1.942 0.52399 4.129-0.427 1.633-0.711 2.5-1.433 1.926-1.604-0.574-0.172-1.653 0.142-2.4 0.698-1.09 0.81299-1.491 0.81601-2.042 0.014008-0.541-0.78601-1.49-0.80301-4.481-0.080017-2.795 0.67602-3.466 1.105-2.545 1.629 1.64 0.93201 2.022 0.91 3.236-0.17999zm90.207-2.985c0.842-0.75702-0.86301-0.798-5.794-0.13699-0.36299 0.047974-0.659 0.465-0.659 0.92499 0 1.031 5.124 0.40399 6.453-0.78799zm-86.043-3.199c0.308-0.448-0.044998-0.58002-0.828-0.311-1.523 0.52499-1.802 1.091-0.537 1.091 0.455 0 1.069-0.35101 1.365-0.78zm4.403-11.066c-0.696-1.012-1.319-1.012-1.319 0 0 0.43402 0.41899 0.79001 0.931 0.79001 0.513 0 0.687-0.35599 0.388-0.79001zm1.212-3.873c1.574-0.89502 0.34401-2.696-1.425-2.086-0.74399 0.25598-2.325-0.10501-3.511-0.80301-1.351-0.79501-2.987-1.083-4.377-0.76999-2.683 0.60498-2.16 1.173 2.663 2.895 4.423 1.579 5.084 1.655 6.65 0.76401zm88.045-4.081c0-1.37-2.727-3.454-3.378-2.581-0.319 0.42801-1.272 1.007-2.119 1.288-2.756 0.91299-1.622 2.139 1.979 2.139 1.935 0 3.518-0.38098 3.518-0.84598zm-83.376-2.853c-0.635-0.228-1.393-0.19998-1.686 0.062012-0.29199 0.263 0.228 0.45001 1.155 0.41501 1.024-0.037994 1.232-0.22501 0.53101-0.47702zm4.232-9.727c-1.094-0.636-1.019-0.76999 0.44-0.78999 1.424-0.020004 1.513-0.164 0.46899-0.757-0.80499-0.457-1.685-0.438-2.34 0.050003-0.651 0.48599-1.246 0.5-1.563 0.037994-0.28299-0.41 0.078003-0.94899 0.80101-1.198 0.722-0.24899 1.307-0.908 1.3-1.465-0.009003-0.674-0.229-0.729-0.65901-0.16501-0.974 1.277-3.597 1.952-4.197 1.08-0.29001-0.422-0.897-0.564-1.347-0.314s-0.81801 0.082001-0.81801-0.37199c0-0.455-0.89099-0.74301-1.979-0.63901-1.414 0.134-1.944-0.207-1.856-1.194 0.069992-0.80299-0.48201-1.377-1.32-1.37-6.496 0.054001-2.07 5.258 5.755 6.767 6.617 1.275 9.141 1.389 7.314 0.329zm51.004-9.478c0-0.43401-0.396-0.78999-0.87999-0.78999-0.48401 0-0.879 0.35599-0.879 0.78999 0 0.435 0.39499 0.78999 0.879 0.78999 0.48399 0 0.87999-0.355 0.87999-0.78999zm-54.522-0.79c1.067-0.619 0.94099-0.768-0.65901-0.77701-1.088-0.007004-1.979 0.343-1.979 0.77701 0 0.98999 0.933 0.98999 2.638 0zm10.161-10.336c0.90599-1.316-1.132-2.827-2.346-1.737-1.014 0.91101-0.379 2.596 0.979 2.596 0.427 0 1.042-0.386 1.367-0.85899zm4.349-1.51c-0.696-1.012-1.319-1.012-1.319 0 0 0.43401 0.41901 0.789 0.931 0.789s0.687-0.355 0.388-0.789zm35.615-4.739c0-0.43401-0.41901-0.78999-0.93201-0.78999-0.51199 0-0.686 0.35599-0.38699 0.78999 0.696 1.012 1.319 1.012 1.319 0zm-34.736-3.159c0.299-0.43401 0.148-0.79001-0.33499-0.79001-0.48401 0-1.124 0.356-1.423 0.79001-0.299 0.43399-0.14801 0.78999 0.336 0.78999 0.483 0 1.124-0.356 1.422-0.78999zm-5.056-0.987c-0.41499-1.118-1.829-0.99501-2.272 0.19699-0.161 0.43501 0.367 0.79001 1.173 0.79001s1.301-0.444 1.099-0.987zm-3.298-1.428c0-1.257-1.963-1.725-2.723-0.648-1.199 1.7-0.94 2.16 0.965 1.712 0.967-0.227 1.758-0.70601 1.758-1.064zm39.616-5.108c3.266-1.517 3.26-1.769-0.035004-1.334-1.446 0.19-2.429 0.636-2.185 0.99101 0.24399 0.355-0.453 0.79999-1.548 0.989-1.395 0.241-1.517 0.37599-0.409 0.45099 0.87 0.059006 2.75-0.435 4.177-1.097zm-10.596-8.714c0-0.192-0.617-0.34801-1.371-0.34801s-1.123 0.36101-0.819 0.802c0.502 0.73 2.19 0.379 2.19-0.454zm-11.432-11.663c0-0.73799-0.84698-0.92999-2.858-0.64999-2.767 0.385-2.788 0.416-0.66 0.96899 3.262 0.847 3.518 0.824 3.518-0.319zm-34.937 122.99c0.29201-0.26199 1.051-0.29001 1.686-0.062012 0.701 0.25201 0.493 0.439-0.532 0.47702-0.927 0.033997-1.446-0.15201-1.154-0.41501zm15.635-127.39c-1.096-1.839-1.159-2.443-0.25601-2.443 1.15 0 2.872 3.053 1.996 3.539-0.44899 0.25-1.232-0.244-1.74-1.096zm13.146-23.877c0-0.37399 0.364-0.67999 0.808-0.67999s1.433-0.216 2.198-0.48001c0.765-0.263 1.391-0.127 1.391 0.30301 0 0.42999-0.989 0.952-2.198 1.16-1.209 0.207-2.199 0.070999-2.199-0.30301zm7.802-5.962c-1.07-1.182-1.008-1.271 0.552-0.787 1.689 0.522 1.694 0.49899 0.129-0.59201-1.5-1.045-1.376-1.124 1.535-0.989 1.741 0.081009 3.167 0.23601 3.169 0.34401 0.005997 0.315-3.479 3.357-3.846 3.357-0.18201 0-0.875-0.60001-1.539-1.333zm-0.265-5.544c-1.466-1.805-1.496-2.019-0.22-1.579 0.812 0.27899 1.477 0.164 1.477-0.25601 0-0.42099 0.444-0.765 0.987-0.765 0.70401 0 0.718 0.291 0.050003 1.013-1.163 1.26-0.27699 2.627 2.041 3.147 1.448 0.325 1.371 0.407-0.44 0.46201-1.419 0.042999-2.8-0.674-3.895-2.022zm0.518-5.159c-1.375-1.235-1.286-2.18 0.205-2.18 1.394 0 2.579 2.117 1.516 2.707-0.38501 0.214-1.16-0.022995-1.721-0.52699zm0.475-6.398c-0.24901-0.582-0.10001-1.56 0.332-2.172 0.571-0.81 0.78799-0.522 0.798 1.059 0.014999 2.358-0.41701 2.783-1.13 1.113z" fill="#6f9108"/></g></svg>