<?xml version="1.0" encoding="UTF-8"?><svg xmlns="http://www.w3.org/2000/svg" xmlns:xlink="http://www.w3.org/1999/xlink" height="227.2" preserveAspectRatio="xMidYMid meet" version="1.1" viewBox="104.9 97.6 215.4 227.2" width="215.4" zoomAndPan="magnify">
 <g id="surface1">
  <g id="change1_1"><path d="m301.47 201.98c-0.02-0.03-0.03-0.05-0.04-0.07l-69.85-73.25c-9.6-9.45-10.89-12.91-18.7-12.91-6.07 0-10.29 3.98-20.61 14.02l-67.53 72.12c-2.06 2.06-3.36 4.96-3.36 8.2v103.4c0 6.22 4.76 11.27 10.63 11.27h162.09c5.87 0 10.63-5.05 10.63-11.27v-103.4c0-3.19-1.25-6.06-3.26-8.11" fill="#f7e3b5"/></g>
  <g id="change2_1"><path d="m217.89 295.73c-2.56 0-4.64-2.64-4.64-5.92v-44.11c0-3.27 2.08-5.92 4.64-5.92h65.65c2.56 0 4.63 2.65 4.63 5.92v44.11c0 3.28-2.07 5.92-4.63 5.92h-65.65" fill="#ea8342"/></g>
  <g id="change3_1"><path d="m316.49 200.13l-98.75-98.75c-2.45-2.446-5.06-3.802-7.18-1.685 0 0-5.97 4.575-7.24 5.855l-94.76 94.76c-2.35 2.35-3.63 4.88-1.51 6.99l5.91 5.92c2.12 2.12 4.65 0.84 7-1.51l92.65-92.65 92.47 92.48c2.45 2.44 5.06 3.8 7.18 1.68l5.92-5.92c2.11-2.11 0.76-4.72-1.69-7.17" fill="#e0464c"/></g>
  <g id="change2_2"><path d="m201.47 324.61v-79.15c0-3.14-2.54-5.68-5.68-5.68h-42.3c-3.13 0-5.68 2.54-5.68 5.68v79.15h53.66" fill="#ea8342"/></g>
  <g id="change4_1"><path d="m222.04 290.41c-2.24 0-4.06-2.14-4.06-4.79v-35.73c0-2.64 1.82-4.79 4.06-4.79h57.35c2.24 0 4.05 2.15 4.05 4.79v35.73c0 2.65-1.81 4.79-4.05 4.79h-57.35" fill="#a6d1ee"/></g>
  <g id="change5_1"><path d="m283.44 259v-9.11c0-2.64-1.81-4.79-4.05-4.79h-57.35c-2.24 0-4.06 2.15-4.06 4.79v9.11h65.46" fill="#f8a64b"/></g>
  <g id="change2_3"><path d="m229.8 189.86c0 9.5-7.7 17.2-17.2 17.2-9.51 0-17.21-7.7-17.21-17.2s7.7-17.21 17.21-17.21c9.5 0 17.2 7.71 17.2 17.21" fill="#ea8342"/></g>
  <g id="change4_2"><path d="m225.68 189.86c0 7.22-5.86 13.08-13.08 13.08s-13.08-5.86-13.08-13.08c0-7.23 5.86-13.08 13.08-13.08s13.08 5.85 13.08 13.08" fill="#a6d1ee"/></g>
  <g id="change6_1"><path d="m305.33 304.9c-2.12 0-4.07 0.67-5.67 1.81 0.14-0.58 0.23-1.18 0.23-1.81 0-4.21-3.41-7.62-7.62-7.62-2.68 0-5.04 1.39-6.39 3.48-1.36-2.09-3.71-3.48-6.4-3.48-1.42 0-2.75 0.4-3.89 1.08-1-4.35-4.89-7.61-9.54-7.61-4.78 0-8.76 3.43-9.62 7.95-1.25-0.89-2.77-1.42-4.43-1.42-2.18 0-4.14 0.93-5.54 2.4-1.73-2.75-4.78-4.57-8.27-4.57-5.41 0-9.8 4.38-9.8 9.79 0 0.26 0.02 0.53 0.04 0.78-1.18-0.5-2.48-0.78-3.84-0.78-5.41 0-9.8 4.39-9.8 9.8s4.39 9.79 9.8 9.79h80.74c5.41 0 9.79-4.38 9.79-9.79s-4.38-9.8-9.79-9.8" fill="#53c285"/></g>
 </g>
</svg>