<svg xmlns="http://www.w3.org/2000/svg" xmlns:xlink="http://www.w3.org/1999/xlink" version="1.1" x="0px" y="0px" viewBox="0 0 500 153.971" style="fill:rgb(0,0,0)" xml:space="preserve" role="img" aria-label="Purple Banner">
                                          <g id="__id131_s74d8jafyo">
                                            <path style="fill:rgb(201,226,101)" d="M500,75.382c-27.576-11.422-55.737-20.876-84.281-28.362c-7.192,27.428-14.387,54.854-21.577,82.283   c24.828,6.512,49.326,14.733,73.306,24.668c-0.077-15.378-0.597-30.837-1.557-46.354C476.875,96.611,488.245,85.86,500,75.382z"></path>
                                            <path style="fill:rgb(201,226,101)" d="M0,75.382C27.571,63.96,55.733,54.508,84.276,47.02c7.194,27.43,14.387,54.856,21.579,82.283   c-24.829,6.512-49.322,14.733-73.304,24.668c0.079-15.378,0.596-30.837,1.556-46.354C23.124,96.611,11.753,85.86,0,75.382z"></path>
                                          </g>
                                          <g id="__id132_s74d8jafyo">
                                            <path style="fill:rgb(0,128,55)" d="M394.14,129.303c12.354-5.368,25.096-10.326,38.213-14.836c-10.559-3.412-21.188-6.519-31.878-9.321   C398.365,113.198,396.252,121.249,394.14,129.303z"></path>
                                            <path style="fill:rgb(0,128,55)" d="M105.857,129.303c-12.353-5.368-25.098-10.324-38.214-14.836   c10.559-3.412,21.189-6.519,31.879-9.321C101.632,113.198,103.745,121.249,105.857,129.303z"></path>
                                          </g>
                                          <g id="__id133_s74d8jafyo">
                                            <path style="fill:rgb(186,212,101)" d="M41.282,32.876C50,59.856,58.715,86.84,67.434,113.823c118.667-38.346,246.46-38.346,365.128-0.003   c8.715-26.981,17.434-53.965,26.147-80.946C323.043-10.958,176.949-10.958,41.282,32.876z"></path>
                                          </g>
                                        </svg>