<?xml version="1.0" encoding="UTF-8"?><svg xmlns="http://www.w3.org/2000/svg" xmlns:xlink="http://www.w3.org/1999/xlink" height="489.4" preserveAspectRatio="xMidYMid meet" version="1.0" viewBox="0.0 0.0 489.4 489.4" width="489.4" zoomAndPan="magnify"><g fill="#f4bc33" id="change1_1"><circle cx="244.714" cy="244.713" fill="inherit" r="166.606"/><path d="M211.822 56.982L244.714 0 277.603 56.982z" fill="inherit"/><path d="M122.365 98.581L122.354 32.788 179.331 65.689z" fill="inherit"/><path d="M65.689 179.333L32.785 122.362 98.578 122.367z" fill="inherit"/><path d="M56.982 277.605L0 244.721 56.982 211.828z" fill="inherit"/><path d="M98.578 367.065L32.785 367.081 65.689 310.099z" fill="inherit"/><path d="M179.331 423.741L122.359 456.65 122.365 390.852z" fill="inherit"/><path d="M277.603 432.448L244.719 489.435 211.825 432.448z" fill="inherit"/><path d="M367.062 390.852L367.078 456.645 310.096 423.741z" fill="inherit"/><path d="M423.738 310.099L456.653 367.071 390.85 367.065z" fill="inherit"/><path d="M432.445 211.828L489.433 244.711 432.445 277.605z" fill="inherit"/><path d="M390.85 122.367L456.643 122.352 423.738 179.333z" fill="inherit"/><path d="M310.096 65.692L367.068 32.782 367.062 98.581z" fill="inherit"/></g></svg>