<?xml version="1.0" encoding="UTF-8"?><svg xmlns="http://www.w3.org/2000/svg" xmlns:xlink="http://www.w3.org/1999/xlink" height="322.9" preserveAspectRatio="xMidYMid meet" version="1.0" viewBox="0.0 0.0 415.8 322.9" width="415.8" zoomAndPan="magnify"><defs><clipPath id="a"><path d="M 0 3 L 415.800781 3 L 415.800781 321 L 0 321 Z M 0 3"/></clipPath><clipPath id="b"><path d="M 179 90 L 372 90 L 372 277 L 179 277 Z M 179 90"/></clipPath><clipPath id="c"><path d="M 110.597656 54.941406 C 141.046875 28.847656 209.199219 3.742188 209.199219 3.742188 C 250.910156 3.742188 331.992188 62.789062 365.554688 118.222656 C 382.433594 146.09375 419.441406 254.625 415.511719 262.484375 C 414.082031 265.347656 126.71875 323.519531 125.574219 320.179688 C 107.484375 315.261719 8.179688 278.992188 0.265625 275.035156 C -1.960938 273.921875 7.730469 143.078125 110.597656 54.941406 Z M 110.597656 54.941406"/></clipPath><clipPath id="d"><path d="M 179 98 L 372 98 L 372 249 L 179 249 Z M 179 98"/></clipPath><clipPath id="e"><path d="M 110.597656 54.941406 C 141.046875 28.847656 209.199219 3.742188 209.199219 3.742188 C 250.910156 3.742188 331.992188 62.789062 365.554688 118.222656 C 382.433594 146.09375 419.441406 254.625 415.511719 262.484375 C 414.082031 265.347656 126.71875 323.519531 125.574219 320.179688 C 107.484375 315.261719 8.179688 278.992188 0.265625 275.035156 C -1.960938 273.921875 7.730469 143.078125 110.597656 54.941406 Z M 110.597656 54.941406"/></clipPath><clipPath id="f"><path d="M 371.390625 243.550781 C 371.390625 243.550781 335.453125 261.570312 291.570312 269.21875 C 241.132812 278.003906 181.832031 276.578125 181.832031 276.578125 C 179.433594 269.632812 179.445312 261.574219 179.78125 254.347656 C 180.566406 237.570312 184.136719 220.960938 188.644531 204.824219 C 218.359375 98.535156 276.816406 35.6875 340.800781 154.550781 C 355.070312 181.058594 371.390625 243.550781 371.390625 243.550781 Z M 371.390625 243.550781"/></clipPath><clipPath id="g"><path d="M 0 231 L 415.800781 231 L 415.800781 321 L 0 321 Z M 0 231"/></clipPath><clipPath id="h"><path d="M 110.597656 54.941406 C 141.046875 28.847656 209.199219 3.742188 209.199219 3.742188 C 250.910156 3.742188 331.992188 62.789062 365.554688 118.222656 C 382.433594 146.09375 419.441406 254.625 415.511719 262.484375 C 414.082031 265.347656 126.71875 323.519531 125.574219 320.179688 C 107.484375 315.261719 8.179688 278.992188 0.265625 275.035156 C -1.960938 273.921875 7.730469 143.078125 110.597656 54.941406 Z M 110.597656 54.941406"/></clipPath><clipPath id="i"><path d="M 121 0 L 215 0 L 215 322.871094 L 121 322.871094 Z M 121 0"/></clipPath></defs><g><g clip-path="url(#a)" id="change1_1"><path d="M 110.597656 54.941406 C 141.046875 28.847656 209.199219 3.742188 209.199219 3.742188 C 250.910156 3.742188 331.992188 62.789062 365.554688 118.222656 C 382.433594 146.09375 419.441406 254.625 415.511719 262.484375 C 414.082031 265.347656 126.71875 323.519531 125.574219 320.179688 C 107.484375 315.261719 8.179688 278.992188 0.265625 275.035156 C -1.960938 273.921875 7.730469 143.078125 110.597656 54.941406" fill="#b3256b" fill-rule="evenodd"/></g><g clip-path="url(#b)"><g clip-path="url(#c)" clip-rule="evenodd" id="change2_1"><path d="M 371.390625 243.550781 C 371.390625 243.550781 335.453125 261.570312 291.570312 269.21875 C 241.132812 278.003906 181.832031 276.578125 181.832031 276.578125 C 179.433594 269.632812 179.445312 261.574219 179.78125 254.347656 C 180.566406 237.570312 184.136719 220.960938 188.644531 204.824219 C 218.359375 98.535156 276.816406 35.6875 340.800781 154.550781 C 355.070312 181.058594 371.390625 243.550781 371.390625 243.550781" fill="#8d2040" fill-rule="evenodd"/></g></g><g clip-path="url(#d)"><g clip-path="url(#e)" clip-rule="evenodd"><g clip-path="url(#f)"><path d="M 2790.625 1208.582812 C 2791.523438 1206.746875 2767.734375 1206.942187 2765.234375 1206.707812 C 2660.585938 1196.04375 2554.84375 1166.825 2453.828125 1139.090625 C 2353.242188 1111.5125 1603.125 880.770312 1577.265625 811.04375 M 2419.6875 2207.29375 C 2433.203125 2189.16875 2445.039062 2169.79375 2456.640625 2150.457812 C 2486.40625 2100.965625 2512.8125 2049.676562 2537.1875 1997.371875 C 2619.84375 1819.910937 2673.671875 1634.520312 2727.734375 1446.98125 C 2733.4375 1427.254687 2783.046875 1224.0125 2792.1875 1214.910937 C 2804.257812 1202.840625 3758.125 769.520312 3758.125 779.16875" fill="none" stroke="#202347" stroke-linecap="round" stroke-linejoin="round" stroke-miterlimit="10" stroke-width="73.17" transform="matrix(.1 0 0 -.1 0 322.87)"/></g></g></g><g clip-path="url(#g)"><g clip-path="url(#h)" clip-rule="evenodd" id="change3_1"><path d="M 5.113281 244.765625 C 9.625 243.375 21.746094 250.785156 27.753906 252.820312 C 61.066406 264.113281 110.964844 281.183594 146.15625 281.515625 C 167.070312 281.714844 189.550781 275.71875 210.070312 272.660156 C 252.886719 266.273438 295.660156 259.152344 338.074219 250.4375 C 366.574219 244.582031 394.859375 236.441406 423.488281 231.355469 C 424.503906 231.175781 423.945312 233.367188 424.207031 234.363281 C 426.632812 243.535156 415.417969 273.929688 414.0625 274.410156 C 365.320312 291.71875 275.050781 319.875 166.03125 335.113281 C 161.796875 335.707031 157.496094 334.820312 153.253906 334.589844 C 110.933594 332.28125 59.960938 307.242188 27.074219 294.179688 C 8.957031 286.984375 -31.1875 267.0625 -15.921875 243.816406" fill="#2b2b6d" fill-rule="evenodd"/></g></g><g clip-path="url(#i)"><path d="M 1263.789062 36.590625 C 1223.28125 1234.598437 1276.640625 2072.176562 1728.75 2751.2 C 1918.789062 3036.590625 2111.09375 3192.098437 2111.09375 3192.098437" fill="none" stroke="#4e3d9f" stroke-linecap="round" stroke-linejoin="round" stroke-miterlimit="10" stroke-width="73.17" transform="matrix(.1 0 0 -.1 0 322.87)"/></g><path d="M 1765.3125 464.364062 C 1769.492188 453.85625 1953.789062 481.2 1976.640625 483.817187 C 2225.039062 512.215625 2470 562.059375 2715.3125 609.285937 C 3001.25 664.364062 3286.09375 734.090625 3574.257812 776.551562 C 3581.875 777.684375 3654.257812 780.2625 3656.289062 789.16875 C 3659.023438 801.395312 3722.34375 796.551562 3725.234375 809.246875 M 2046.09375 1935.2625 C 2029.335938 1932.7625 1993.476562 1824.051562 1988.203125 1812.528125 M 2331.328125 2322.1375 C 2333.4375 2331.121875 2317.65625 2309.754687 2311.09375 2303.309375 C 2232.03125 2225.926562 2164.453125 2139.090625 2104.414062 2046.278125 M 1245.976562 2648.153125 C 1260.78125 2662.957812 1283.007812 2677.254687 1301.601562 2689.559375 C 1309.648438 2694.832812 1317.695312 2700.145312 1325.546875 2705.73125 C 1326.796875 2706.590625 1332.773438 2711.2 1332.617188 2711.121875 M 1193.320312 2601.473437 C 1198.710938 2604.325 1182.734375 2595.223437 1177.890625 2591.473437 C 1164.921875 2581.395312 1152.460938 2570.653125 1140 2559.95 C 1112.695312 2536.5125 1086.210938 2511.98125 1060.507812 2486.746875 C 974.53125 2402.332812 908.398438 2311.98125 843.320312 2212.098437" fill="none" stroke="#db4680" stroke-linecap="round" stroke-linejoin="round" stroke-miterlimit="10" stroke-width="36.59" transform="matrix(.1 0 0 -.1 0 322.87)"/></g></svg>