<?xml version="1.0" encoding="UTF-8"?><svg xmlns="http://www.w3.org/2000/svg" xmlns:xlink="http://www.w3.org/1999/xlink" height="335.7" preserveAspectRatio="xMidYMid meet" version="1.0" viewBox="0.0 0.0 323.6 335.7" width="323.6" zoomAndPan="magnify"><g id="change1_1"><path d="M225.0331,119.4761l-19.1221,4.8397c-17.4828,4.4248-31.1438,21.1336-34.7615,42.5168l-3.9569,23.3882 l-3.9569-23.3882c-3.6177-21.3832-17.2787-38.092-34.7615-42.5168l-19.1221-4.8397l19.1221-4.8397 c17.4828-4.4248,31.1438-21.1336,34.7615-42.5168l3.9569-23.3882l3.9569,23.3882c3.6177,21.3832,17.2787,38.092,34.7615,42.5168 L225.0331,119.4761z" fill="#FECD1A"/></g><g id="change1_2"><path d="M318.384,217.8751l-14.564,3.0137c-13.3155,2.7553-23.7202,13.16-26.4755,26.4755l-3.0137,14.564 l-3.0137-14.564c-2.7553-13.3155-13.16-23.7202-26.4755-26.4755l-14.564-3.0137l14.564-3.0137 c13.3155-2.7553,23.7201-13.16,26.4755-26.4755l3.0137-14.564l3.0137,14.564c2.7553,13.3155,13.16,23.7201,26.4755,26.4755 L318.384,217.8751z" fill="#FECD1A"/></g><g id="change1_3"><path d="M142.745,277.5081l-23.4117,2.5199c-11.1337,2.3039-19.8336,11.0038-22.1375,22.1375l-2.5199,33.4862 l-2.5199-33.4862c-2.3039-11.1337-11.0038-19.8336-22.1375-22.1375l-21.5713-2.5199l21.5713-2.5199 c11.1337-2.3039,19.8336-11.0038,22.1375-22.1375l2.5199-43.8373l2.5199,43.8373c2.3039,11.1337,11.0038,19.8336,22.1375,22.1375 L142.745,277.5081z" fill="#FECD1A"/></g><g id="change1_4"><path d="M323.5973,99.3644l-4.9311,1.3758c-4.5083,1.2579-8.0312,6.008-8.9641,12.0869l-1.0204,6.6489 l-1.0204-6.6489c-0.9329-6.0789-4.4557-10.829-8.9641-12.0869l-4.9311-1.3758l4.9311-1.3759 c4.5083-1.2579,8.0312-6.008,8.9641-12.0869l1.0204-6.6489l1.0204,6.6489c0.9329,6.0789,4.4557,10.829,8.9641,12.0869 L323.5973,99.3644z" fill="#FECD1A"/></g><g id="change1_5"><path d="M24.4265,150.6729l-4.0377,1.1266c-3.6916,1.03-6.5761,4.9195-7.34,9.8971l-0.8355,5.4444l-0.8355-5.4444 c-0.7639-4.9776-3.6485-8.8671-7.34-9.8971L0,150.6729l4.0377-1.1266c3.6916-1.03,6.5761-4.9195,7.34-9.8971l0.8355-5.4444 l0.8355,5.4444c0.7639,4.9776,3.6485,8.8671,7.34,9.8971L24.4265,150.6729z" fill="#FECD1A"/></g><g id="change1_6"><path d="M112.4161,22.6797l-5.5607,1.5515c-5.084,1.4185-9.0566,6.7751-10.1086,13.6303l-1.1507,7.4979 l-1.1507-7.4979c-1.052-6.8551-5.0247-12.2117-10.1087-13.6303l-5.5607-1.5515l5.5607-1.5515 c5.084-1.4185,9.0566-6.7751,10.1087-13.6303L95.5961,0l1.1507,7.4979c1.052,6.8551,5.0246,12.2117,10.1086,13.6303 L112.4161,22.6797z" fill="#FECD1A"/></g><g id="change1_7"><path d="M264.5752,33.7178l-2.7064,0.7551c-2.4743,0.6904-4.4078,3.2974-4.9198,6.6337l-0.56,3.6492l-0.56-3.6492 c-0.512-3.3363-2.4454-5.9434-4.9198-6.6337l-2.7064-0.7551l2.7064-0.7551c2.4743-0.6904,4.4078-3.2974,4.9198-6.6337l0.56-3.6492 l0.56,3.6492c0.512,3.3363,2.4455,5.9434,4.9198,6.6337L264.5752,33.7178z" fill="#FECD1A"/></g></svg>